# Tiled2Unity generated file. Do not modify by hand.
# Wavefront file for 'WaterMap_mesh_0008.obj'

# Vertices (Count = 636)
v -69 -2 0
v -70 -2 0
v -70 -1 0
v -69 -1 0
v -29 -3 0
v -30 -3 0
v -30 -2 0
v -29 -2 0
v -32 -3 0
v -33 -3 0
v -33 -2 0
v -32 -2 0
v -70 -3 0
v -71 -3 0
v -71 -2 0
v -70 -2 0
v -71 -3 0
v -72 -3 0
v -72 -2 0
v -71 -2 0
v -29 -4 0
v -30 -4 0
v -30 -3 0
v -29 -3 0
v -68 -4 0
v -69 -4 0
v -69 -3 0
v -68 -3 0
v -67 -5 0
v -68 -5 0
v -68 -4 0
v -67 -4 0
v -69 -5 0
v -70 -5 0
v -70 -4 0
v -69 -4 0
v -31 -6 0
v -32 -6 0
v -32 -5 0
v -31 -5 0
v -73 -6 0
v -74 -6 0
v -74 -5 0
v -73 -5 0
v -28 -7 0
v -29 -7 0
v -29 -6 0
v -28 -6 0
v -26 -8 0
v -27 -8 0
v -27 -7 0
v -26 -7 0
v -30 -8 0
v -31 -8 0
v -31 -7 0
v -30 -7 0
v -67 -8 0
v -68 -8 0
v -68 -7 0
v -67 -7 0
v -72 -8 0
v -73 -8 0
v -73 -7 0
v -72 -7 0
v -24 -9 0
v -25 -9 0
v -25 -8 0
v -24 -8 0
v -26 -9 0
v -27 -9 0
v -27 -8 0
v -26 -8 0
v -28 -9 0
v -29 -9 0
v -29 -8 0
v -28 -8 0
v -65 -9 0
v -66 -9 0
v -66 -8 0
v -65 -8 0
v -70 -9 0
v -71 -9 0
v -71 -8 0
v -70 -8 0
v -74 -9 0
v -75 -9 0
v -75 -8 0
v -74 -8 0
v -25 -11 0
v -26 -11 0
v -26 -10 0
v -25 -10 0
v -29 -11 0
v -30 -11 0
v -30 -10 0
v -29 -10 0
v -68 -11 0
v -69 -11 0
v -69 -10 0
v -68 -10 0
v -71 -11 0
v -72 -11 0
v -72 -10 0
v -71 -10 0
v -22 -12 0
v -23 -12 0
v -23 -11 0
v -22 -11 0
v -74 -12 0
v -75 -12 0
v -75 -11 0
v -74 -11 0
v -20 -13 0
v -21 -13 0
v -21 -12 0
v -20 -12 0
v -23 -13 0
v -24 -13 0
v -24 -12 0
v -23 -12 0
v -25 -13 0
v -26 -13 0
v -26 -12 0
v -25 -12 0
v -27 -13 0
v -28 -13 0
v -28 -12 0
v -27 -12 0
v -43 -13 0
v -44 -13 0
v -44 -12 0
v -43 -12 0
v -67 -13 0
v -68 -13 0
v -68 -12 0
v -67 -12 0
v -74 -13 0
v -75 -13 0
v -75 -12 0
v -74 -12 0
v -75 -13 0
v -76 -13 0
v -76 -12 0
v -75 -12 0
v -18 -14 0
v -19 -14 0
v -19 -13 0
v -18 -13 0
v -75 -14 0
v -76 -14 0
v -76 -13 0
v -75 -13 0
v -27 -15 0
v -28 -15 0
v -28 -14 0
v -27 -14 0
v -45 -15 0
v -46 -15 0
v -46 -14 0
v -45 -14 0
v -71 -15 0
v -72 -15 0
v -72 -14 0
v -71 -14 0
v -78 -15 0
v -79 -15 0
v -79 -14 0
v -78 -14 0
v -74 -16 0
v -75 -16 0
v -75 -15 0
v -74 -15 0
v -44 -17 0
v -45 -17 0
v -45 -16 0
v -44 -16 0
v -73 -17 0
v -74 -17 0
v -74 -16 0
v -73 -16 0
v -77 -17 0
v -78 -17 0
v -78 -16 0
v -77 -16 0
v -36 -20 0
v -37 -20 0
v -37 -19 0
v -36 -19 0
v -40 -20 0
v -41 -20 0
v -41 -19 0
v -40 -19 0
v -42 -21 0
v -43 -21 0
v -43 -20 0
v -42 -20 0
v -63 -28 0
v -64 -28 0
v -64 -27 0
v -63 -27 0
v -64 -29 0
v -65 -29 0
v -65 -28 0
v -64 -28 0
v -68 -30 0
v -69 -30 0
v -69 -29 0
v -68 -29 0
v -43 -31 0
v -44 -31 0
v -44 -30 0
v -43 -30 0
v -65 -31 0
v -66 -31 0
v -66 -30 0
v -65 -30 0
v -68 -31 0
v -69 -31 0
v -69 -30 0
v -68 -30 0
v -69 -31 0
v -70 -31 0
v -70 -30 0
v -69 -30 0
v -38 -32 0
v -39 -32 0
v -39 -31 0
v -38 -31 0
v -41 -32 0
v -42 -32 0
v -42 -31 0
v -41 -31 0
v -34 -33 0
v -35 -33 0
v -35 -32 0
v -34 -32 0
v -37 -33 0
v -38 -33 0
v -38 -32 0
v -37 -32 0
v -43 -33 0
v -44 -33 0
v -44 -32 0
v -43 -32 0
v -46 -33 0
v -47 -33 0
v -47 -32 0
v -46 -32 0
v -32 -35 0
v -33 -35 0
v -33 -34 0
v -32 -34 0
v -46 -35 0
v -47 -35 0
v -47 -34 0
v -46 -34 0
v -30 -36 0
v -31 -36 0
v -31 -35 0
v -30 -35 0
v -47 -37 0
v -48 -37 0
v -48 -36 0
v -47 -36 0
v -13 -42 0
v -14 -42 0
v -14 -41 0
v -13 -41 0
v -11 -44 0
v -12 -44 0
v -12 -43 0
v -11 -43 0
v -15 -44 0
v -16 -44 0
v -16 -43 0
v -15 -43 0
v -78 -44 0
v -79 -44 0
v -79 -43 0
v -78 -43 0
v -43 -45 0
v -44 -45 0
v -44 -44 0
v -43 -44 0
v -79 -45 0
v -80 -45 0
v -80 -44 0
v -79 -44 0
v -83 -45 0
v -84 -45 0
v -84 -44 0
v -83 -44 0
v -10 -46 0
v -11 -46 0
v -11 -45 0
v -10 -45 0
v -15 -46 0
v -16 -46 0
v -16 -45 0
v -15 -45 0
v -46 -46 0
v -47 -46 0
v -47 -45 0
v -46 -45 0
v -80 -46 0
v -81 -46 0
v -81 -45 0
v -80 -45 0
v -85 -46 0
v -86 -46 0
v -86 -45 0
v -85 -45 0
v -15 -47 0
v -16 -47 0
v -16 -46 0
v -15 -46 0
v -34 -47 0
v -35 -47 0
v -35 -46 0
v -34 -46 0
v -38 -47 0
v -39 -47 0
v -39 -46 0
v -38 -46 0
v -41 -47 0
v -42 -47 0
v -42 -46 0
v -41 -46 0
v -45 -47 0
v -46 -47 0
v -46 -46 0
v -45 -46 0
v -81 -47 0
v -82 -47 0
v -82 -46 0
v -81 -46 0
v -84 -47 0
v -85 -47 0
v -85 -46 0
v -84 -46 0
v -36 -48 0
v -37 -48 0
v -37 -47 0
v -36 -47 0
v -10 -49 0
v -11 -49 0
v -11 -48 0
v -10 -48 0
v -16 -49 0
v -17 -49 0
v -17 -48 0
v -16 -48 0
v -41 -49 0
v -42 -49 0
v -42 -48 0
v -41 -48 0
v -10 -51 0
v -11 -51 0
v -11 -50 0
v -10 -50 0
v -14 -51 0
v -15 -51 0
v -15 -50 0
v -14 -50 0
v -16 -51 0
v -17 -51 0
v -17 -50 0
v -16 -50 0
v -11 -53 0
v -12 -53 0
v -12 -52 0
v -11 -52 0
v -13 -53 0
v -14 -53 0
v -14 -52 0
v -13 -52 0
v -22 -59 0
v -23 -59 0
v -23 -58 0
v -22 -58 0
v -24 -59 0
v -25 -59 0
v -25 -58 0
v -24 -58 0
v -25 -61 0
v -26 -61 0
v -26 -60 0
v -25 -60 0
v -28 -61 0
v -29 -61 0
v -29 -60 0
v -28 -60 0
v -27 -62 0
v -28 -62 0
v -28 -61 0
v -27 -61 0
v -58 -62 0
v -59 -62 0
v -59 -61 0
v -58 -61 0
v -60 -62 0
v -61 -62 0
v -61 -61 0
v -60 -61 0
v -66 -62 0
v -67 -62 0
v -67 -61 0
v -66 -61 0
v -61 -63 0
v -62 -63 0
v -62 -62 0
v -61 -62 0
v -62 -63 0
v -63 -63 0
v -63 -62 0
v -62 -62 0
v -65 -63 0
v -66 -63 0
v -66 -62 0
v -65 -62 0
v -29 -64 0
v -30 -64 0
v -30 -63 0
v -29 -63 0
v -62 -64 0
v -63 -64 0
v -63 -63 0
v -62 -63 0
v -60 -65 0
v -61 -65 0
v -61 -64 0
v -60 -64 0
v -65 -65 0
v -66 -65 0
v -66 -64 0
v -65 -64 0
v -67 -65 0
v -68 -65 0
v -68 -64 0
v -67 -64 0
v -29 -66 0
v -30 -66 0
v -30 -65 0
v -29 -65 0
v -63 -66 0
v -64 -66 0
v -64 -65 0
v -63 -65 0
v -64 -66 0
v -65 -66 0
v -65 -65 0
v -64 -65 0
v -39 -67 0
v -40 -67 0
v -40 -66 0
v -39 -66 0
v -41 -67 0
v -42 -67 0
v -42 -66 0
v -41 -66 0
v -42 -67 0
v -43 -67 0
v -43 -66 0
v -42 -66 0
v -39 -68 0
v -40 -68 0
v -40 -67 0
v -39 -67 0
v -43 -68 0
v -44 -68 0
v -44 -67 0
v -43 -67 0
v -28 -69 0
v -29 -69 0
v -29 -68 0
v -28 -68 0
v -39 -69 0
v -40 -69 0
v -40 -68 0
v -39 -68 0
v -43 -69 0
v -44 -69 0
v -44 -68 0
v -43 -68 0
v -39 -70 0
v -40 -70 0
v -40 -69 0
v -39 -69 0
v -43 -70 0
v -44 -70 0
v -44 -69 0
v -43 -69 0
v -40 -71 0
v -41 -71 0
v -41 -70 0
v -40 -70 0
v -41 -71 0
v -42 -71 0
v -42 -70 0
v -41 -70 0
v -42 -71 0
v -43 -71 0
v -43 -70 0
v -42 -70 0
v -43 -71 0
v -44 -71 0
v -44 -70 0
v -43 -70 0
v -60 -81 0
v -61 -81 0
v -61 -80 0
v -60 -80 0
v -55 -82 0
v -56 -82 0
v -56 -81 0
v -55 -81 0
v -56 -82 0
v -57 -82 0
v -57 -81 0
v -56 -81 0
v -3 -83 0
v -4 -83 0
v -4 -82 0
v -3 -82 0
v -5 -83 0
v -6 -83 0
v -6 -82 0
v -5 -82 0
v -56 -83 0
v -57 -83 0
v -57 -82 0
v -56 -82 0
v -67 -84 0
v -68 -84 0
v -68 -83 0
v -67 -83 0
v -4 -85 0
v -5 -85 0
v -5 -84 0
v -4 -84 0
v -6 -85 0
v -7 -85 0
v -7 -84 0
v -6 -84 0
v -11 -86 0
v -12 -86 0
v -12 -85 0
v -11 -85 0
v -13 -86 0
v -14 -86 0
v -14 -85 0
v -13 -85 0
v -55 -86 0
v -56 -86 0
v -56 -85 0
v -55 -85 0
v -15 -87 0
v -16 -87 0
v -16 -86 0
v -15 -86 0
v -59 -88 0
v -60 -88 0
v -60 -87 0
v -59 -87 0
v -67 -88 0
v -68 -88 0
v -68 -87 0
v -67 -87 0
v -11 -89 0
v -12 -89 0
v -12 -88 0
v -11 -88 0
v -57 -89 0
v -58 -89 0
v -58 -88 0
v -57 -88 0
v -59 -89 0
v -60 -89 0
v -60 -88 0
v -59 -88 0
v -60 -89 0
v -61 -89 0
v -61 -88 0
v -60 -88 0
v -67 -89 0
v -68 -89 0
v -68 -88 0
v -67 -88 0
v -66 -90 0
v -67 -90 0
v -67 -89 0
v -66 -89 0
v -67 -90 0
v -68 -90 0
v -68 -89 0
v -67 -89 0
v -15 -91 0
v -16 -91 0
v -16 -90 0
v -15 -90 0
v -18 -91 0
v -19 -91 0
v -19 -90 0
v -18 -90 0
v -61 -91 0
v -62 -91 0
v -62 -90 0
v -61 -90 0
v -62 -91 0
v -63 -91 0
v -63 -90 0
v -62 -90 0
v -13 -93 0
v -14 -93 0
v -14 -92 0
v -13 -92 0
v -17 -94 0
v -18 -94 0
v -18 -93 0
v -17 -93 0
v -21 -95 0
v -22 -95 0
v -22 -94 0
v -21 -94 0
v -21 -97 0
v -22 -97 0
v -22 -96 0
v -21 -96 0
v -24 -97 0
v -25 -97 0
v -25 -96 0
v -24 -96 0
v -21 -99 0
v -22 -99 0
v -22 -98 0
v -21 -98 0

# Texture cooridinates (Count = 6)
vt 0.21875 0.53125
vt 0.25 0.53125
vt 0.25 0.5625
vt 0.21875 0.5625
vt 0.1875 0.53125
vt 0.1875 0.5625

# Normal
vn 0 0 -1

# Mesh description
g WaterMap_mesh_0008

# Faces
f 1/1/1 2/2/1 3/3/1 4/4/1
f 5/1/1 6/2/1 7/3/1 8/4/1
f 9/1/1 10/2/1 11/3/1 12/4/1
f 13/5/1 14/1/1 15/4/1 16/6/1
f 17/1/1 18/2/1 19/3/1 20/4/1
f 21/1/1 22/2/1 23/3/1 24/4/1
f 25/1/1 26/2/1 27/3/1 28/4/1
f 29/1/1 30/2/1 31/3/1 32/4/1
f 33/1/1 34/2/1 35/3/1 36/4/1
f 37/5/1 38/1/1 39/4/1 40/6/1
f 41/5/1 42/1/1 43/4/1 44/6/1
f 45/1/1 46/2/1 47/3/1 48/4/1
f 49/1/1 50/2/1 51/3/1 52/4/1
f 53/1/1 54/2/1 55/3/1 56/4/1
f 57/1/1 58/2/1 59/3/1 60/4/1
f 61/5/1 62/1/1 63/4/1 64/6/1
f 65/1/1 66/2/1 67/3/1 68/4/1
f 69/5/1 70/1/1 71/4/1 72/6/1
f 73/1/1 74/2/1 75/3/1 76/4/1
f 77/1/1 78/2/1 79/3/1 80/4/1
f 81/1/1 82/2/1 83/3/1 84/4/1
f 85/5/1 86/1/1 87/4/1 88/6/1
f 89/1/1 90/2/1 91/3/1 92/4/1
f 93/1/1 94/2/1 95/3/1 96/4/1
f 97/1/1 98/2/1 99/3/1 100/4/1
f 101/1/1 102/2/1 103/3/1 104/4/1
f 105/1/1 106/2/1 107/3/1 108/4/1
f 109/5/1 110/1/1 111/4/1 112/6/1
f 113/5/1 114/1/1 115/4/1 116/6/1
f 117/5/1 118/1/1 119/4/1 120/6/1
f 121/5/1 122/1/1 123/4/1 124/6/1
f 125/5/1 126/1/1 127/4/1 128/6/1
f 129/1/1 130/2/1 131/3/1 132/4/1
f 133/1/1 134/2/1 135/3/1 136/4/1
f 137/1/1 138/2/1 139/3/1 140/4/1
f 141/1/1 142/2/1 143/3/1 144/4/1
f 145/5/1 146/1/1 147/4/1 148/6/1
f 149/5/1 150/1/1 151/4/1 152/6/1
f 153/5/1 154/1/1 155/4/1 156/6/1
f 157/1/1 158/2/1 159/3/1 160/4/1
f 161/1/1 162/2/1 163/3/1 164/4/1
f 165/5/1 166/1/1 167/4/1 168/6/1
f 169/5/1 170/1/1 171/4/1 172/6/1
f 173/5/1 174/1/1 175/4/1 176/6/1
f 177/1/1 178/2/1 179/3/1 180/4/1
f 181/1/1 182/2/1 183/3/1 184/4/1
f 185/5/1 186/1/1 187/4/1 188/6/1
f 189/5/1 190/1/1 191/4/1 192/6/1
f 193/1/1 194/2/1 195/3/1 196/4/1
f 197/5/1 198/1/1 199/4/1 200/6/1
f 201/1/1 202/2/1 203/3/1 204/4/1
f 205/1/1 206/2/1 207/3/1 208/4/1
f 209/1/1 210/2/1 211/3/1 212/4/1
f 213/1/1 214/2/1 215/3/1 216/4/1
f 217/1/1 218/2/1 219/3/1 220/4/1
f 221/1/1 222/2/1 223/3/1 224/4/1
f 225/1/1 226/2/1 227/3/1 228/4/1
f 229/5/1 230/1/1 231/4/1 232/6/1
f 233/5/1 234/1/1 235/4/1 236/6/1
f 237/1/1 238/2/1 239/3/1 240/4/1
f 241/1/1 242/2/1 243/3/1 244/4/1
f 245/1/1 246/2/1 247/3/1 248/4/1
f 249/1/1 250/2/1 251/3/1 252/4/1
f 253/5/1 254/1/1 255/4/1 256/6/1
f 257/5/1 258/1/1 259/4/1 260/6/1
f 261/5/1 262/1/1 263/4/1 264/6/1
f 265/1/1 266/2/1 267/3/1 268/4/1
f 269/5/1 270/1/1 271/4/1 272/6/1
f 273/5/1 274/1/1 275/4/1 276/6/1
f 277/5/1 278/1/1 279/4/1 280/6/1
f 281/5/1 282/1/1 283/4/1 284/6/1
f 285/1/1 286/2/1 287/3/1 288/4/1
f 289/5/1 290/1/1 291/4/1 292/6/1
f 293/5/1 294/1/1 295/4/1 296/6/1
f 297/5/1 298/1/1 299/4/1 300/6/1
f 301/1/1 302/2/1 303/3/1 304/4/1
f 305/5/1 306/1/1 307/4/1 308/6/1
f 309/5/1 310/1/1 311/4/1 312/6/1
f 313/1/1 314/2/1 315/3/1 316/4/1
f 317/1/1 318/2/1 319/3/1 320/4/1
f 321/5/1 322/1/1 323/4/1 324/6/1
f 325/1/1 326/2/1 327/3/1 328/4/1
f 329/1/1 330/2/1 331/3/1 332/4/1
f 333/1/1 334/2/1 335/3/1 336/4/1
f 337/1/1 338/2/1 339/3/1 340/4/1
f 341/1/1 342/2/1 343/3/1 344/4/1
f 345/1/1 346/2/1 347/3/1 348/4/1
f 349/1/1 350/2/1 351/3/1 352/4/1
f 353/1/1 354/2/1 355/3/1 356/4/1
f 357/1/1 358/2/1 359/3/1 360/4/1
f 361/5/1 362/1/1 363/4/1 364/6/1
f 365/5/1 366/1/1 367/4/1 368/6/1
f 369/5/1 370/1/1 371/4/1 372/6/1
f 373/1/1 374/2/1 375/3/1 376/4/1
f 377/1/1 378/2/1 379/3/1 380/4/1
f 381/5/1 382/1/1 383/4/1 384/6/1
f 385/5/1 386/1/1 387/4/1 388/6/1
f 389/5/1 390/1/1 391/4/1 392/6/1
f 393/5/1 394/1/1 395/4/1 396/6/1
f 397/1/1 398/2/1 399/3/1 400/4/1
f 401/1/1 402/2/1 403/3/1 404/4/1
f 405/5/1 406/1/1 407/4/1 408/6/1
f 409/5/1 410/1/1 411/4/1 412/6/1
f 413/1/1 414/2/1 415/3/1 416/4/1
f 417/5/1 418/1/1 419/4/1 420/6/1
f 421/1/1 422/2/1 423/3/1 424/4/1
f 425/5/1 426/1/1 427/4/1 428/6/1
f 429/1/1 430/2/1 431/3/1 432/4/1
f 433/5/1 434/1/1 435/4/1 436/6/1
f 437/1/1 438/2/1 439/3/1 440/4/1
f 441/1/1 442/2/1 443/3/1 444/4/1
f 445/5/1 446/1/1 447/4/1 448/6/1
f 449/5/1 450/1/1 451/4/1 452/6/1
f 453/1/1 454/2/1 455/3/1 456/4/1
f 457/5/1 458/1/1 459/4/1 460/6/1
f 461/5/1 462/1/1 463/4/1 464/6/1
f 465/5/1 466/1/1 467/4/1 468/6/1
f 469/1/1 470/2/1 471/3/1 472/4/1
f 473/1/1 474/2/1 475/3/1 476/4/1
f 477/1/1 478/2/1 479/3/1 480/4/1
f 481/1/1 482/2/1 483/3/1 484/4/1
f 485/5/1 486/1/1 487/4/1 488/6/1
f 489/5/1 490/1/1 491/4/1 492/6/1
f 493/1/1 494/2/1 495/3/1 496/4/1
f 497/5/1 498/1/1 499/4/1 500/6/1
f 501/1/1 502/2/1 503/3/1 504/4/1
f 505/5/1 506/1/1 507/4/1 508/6/1
f 509/5/1 510/1/1 511/4/1 512/6/1
f 513/5/1 514/1/1 515/4/1 516/6/1
f 517/1/1 518/2/1 519/3/1 520/4/1
f 521/5/1 522/1/1 523/4/1 524/6/1
f 525/1/1 526/2/1 527/3/1 528/4/1
f 529/5/1 530/1/1 531/4/1 532/6/1
f 533/1/1 534/2/1 535/3/1 536/4/1
f 537/5/1 538/1/1 539/4/1 540/6/1
f 541/5/1 542/1/1 543/4/1 544/6/1
f 545/1/1 546/2/1 547/3/1 548/4/1
f 549/5/1 550/1/1 551/4/1 552/6/1
f 553/5/1 554/1/1 555/4/1 556/6/1
f 557/1/1 558/2/1 559/3/1 560/4/1
f 561/1/1 562/2/1 563/3/1 564/4/1
f 565/1/1 566/2/1 567/3/1 568/4/1
f 569/1/1 570/2/1 571/3/1 572/4/1
f 573/5/1 574/1/1 575/4/1 576/6/1
f 577/5/1 578/1/1 579/4/1 580/6/1
f 581/1/1 582/2/1 583/3/1 584/4/1
f 585/5/1 586/1/1 587/4/1 588/6/1
f 589/5/1 590/1/1 591/4/1 592/6/1
f 593/1/1 594/2/1 595/3/1 596/4/1
f 597/1/1 598/2/1 599/3/1 600/4/1
f 601/1/1 602/2/1 603/3/1 604/4/1
f 605/5/1 606/1/1 607/4/1 608/6/1
f 609/1/1 610/2/1 611/3/1 612/4/1
f 613/1/1 614/2/1 615/3/1 616/4/1
f 617/1/1 618/2/1 619/3/1 620/4/1
f 621/1/1 622/2/1 623/3/1 624/4/1
f 625/1/1 626/2/1 627/3/1 628/4/1
f 629/1/1 630/2/1 631/3/1 632/4/1
f 633/5/1 634/1/1 635/4/1 636/6/1

