# Tiled2Unity generated file. Do not modify by hand.
# Wavefront file for 'WaterMap_mesh_0011.obj'

# Vertices (Count = 276)
v -86 -11 0
v -87 -11 0
v -87 -10 0
v -86 -10 0
v -87 -11 0
v -88 -11 0
v -88 -10 0
v -87 -10 0
v -88 -11 0
v -89 -11 0
v -89 -10 0
v -88 -10 0
v -86 -12 0
v -87 -12 0
v -87 -11 0
v -86 -11 0
v -87 -12 0
v -88 -12 0
v -88 -11 0
v -87 -11 0
v -88 -12 0
v -89 -12 0
v -89 -11 0
v -88 -11 0
v -86 -13 0
v -87 -13 0
v -87 -12 0
v -86 -12 0
v -87 -13 0
v -88 -13 0
v -88 -12 0
v -87 -12 0
v -88 -13 0
v -89 -13 0
v -89 -12 0
v -88 -12 0
v -86 -14 0
v -87 -14 0
v -87 -13 0
v -86 -13 0
v -87 -14 0
v -88 -14 0
v -88 -13 0
v -87 -13 0
v -88 -14 0
v -89 -14 0
v -89 -13 0
v -88 -13 0
v -86 -15 0
v -87 -15 0
v -87 -14 0
v -86 -14 0
v -87 -15 0
v -88 -15 0
v -88 -14 0
v -87 -14 0
v -88 -15 0
v -89 -15 0
v -89 -14 0
v -88 -14 0
v -86 -16 0
v -87 -16 0
v -87 -15 0
v -86 -15 0
v -87 -16 0
v -88 -16 0
v -88 -15 0
v -87 -15 0
v -88 -16 0
v -89 -16 0
v -89 -15 0
v -88 -15 0
v -86 -17 0
v -87 -17 0
v -87 -16 0
v -86 -16 0
v -87 -17 0
v -88 -17 0
v -88 -16 0
v -87 -16 0
v -88 -17 0
v -89 -17 0
v -89 -16 0
v -88 -16 0
v -7 -84 0
v -8 -84 0
v -8 -83 0
v -7 -83 0
v -8 -84 0
v -9 -84 0
v -9 -83 0
v -8 -83 0
v -9 -84 0
v -10 -84 0
v -10 -83 0
v -9 -83 0
v -7 -85 0
v -8 -85 0
v -8 -84 0
v -7 -84 0
v -8 -85 0
v -9 -85 0
v -9 -84 0
v -8 -84 0
v -9 -85 0
v -10 -85 0
v -10 -84 0
v -9 -84 0
v -7 -86 0
v -8 -86 0
v -8 -85 0
v -7 -85 0
v -8 -86 0
v -9 -86 0
v -9 -85 0
v -8 -85 0
v -9 -86 0
v -10 -86 0
v -10 -85 0
v -9 -85 0
v -7 -87 0
v -8 -87 0
v -8 -86 0
v -7 -86 0
v -8 -87 0
v -9 -87 0
v -9 -86 0
v -8 -86 0
v -9 -87 0
v -10 -87 0
v -10 -86 0
v -9 -86 0
v -7 -88 0
v -8 -88 0
v -8 -87 0
v -7 -87 0
v -8 -88 0
v -9 -88 0
v -9 -87 0
v -8 -87 0
v -9 -88 0
v -10 -88 0
v -10 -87 0
v -9 -87 0
v -7 -89 0
v -8 -89 0
v -8 -88 0
v -7 -88 0
v -8 -89 0
v -9 -89 0
v -9 -88 0
v -8 -88 0
v -9 -89 0
v -10 -89 0
v -10 -88 0
v -9 -88 0
v -83 -89 0
v -84 -89 0
v -84 -88 0
v -83 -88 0
v -84 -89 0
v -85 -89 0
v -85 -88 0
v -84 -88 0
v -85 -89 0
v -86 -89 0
v -86 -88 0
v -85 -88 0
v -86 -89 0
v -87 -89 0
v -87 -88 0
v -86 -88 0
v -87 -89 0
v -88 -89 0
v -88 -88 0
v -87 -88 0
v -88 -89 0
v -89 -89 0
v -89 -88 0
v -88 -88 0
v -89 -89 0
v -90 -89 0
v -90 -88 0
v -89 -88 0
v -90 -89 0
v -91 -89 0
v -91 -88 0
v -90 -88 0
v -7 -90 0
v -8 -90 0
v -8 -89 0
v -7 -89 0
v -8 -90 0
v -9 -90 0
v -9 -89 0
v -8 -89 0
v -9 -90 0
v -10 -90 0
v -10 -89 0
v -9 -89 0
v -83 -90 0
v -84 -90 0
v -84 -89 0
v -83 -89 0
v -84 -90 0
v -85 -90 0
v -85 -89 0
v -84 -89 0
v -85 -90 0
v -86 -90 0
v -86 -89 0
v -85 -89 0
v -86 -90 0
v -87 -90 0
v -87 -89 0
v -86 -89 0
v -87 -90 0
v -88 -90 0
v -88 -89 0
v -87 -89 0
v -88 -90 0
v -89 -90 0
v -89 -89 0
v -88 -89 0
v -89 -90 0
v -90 -90 0
v -90 -89 0
v -89 -89 0
v -90 -90 0
v -91 -90 0
v -91 -89 0
v -90 -89 0
v -7 -91 0
v -8 -91 0
v -8 -90 0
v -7 -90 0
v -8 -91 0
v -9 -91 0
v -9 -90 0
v -8 -90 0
v -9 -91 0
v -10 -91 0
v -10 -90 0
v -9 -90 0
v -83 -91 0
v -84 -91 0
v -84 -90 0
v -83 -90 0
v -84 -91 0
v -85 -91 0
v -85 -90 0
v -84 -90 0
v -85 -91 0
v -86 -91 0
v -86 -90 0
v -85 -90 0
v -86 -91 0
v -87 -91 0
v -87 -90 0
v -86 -90 0
v -87 -91 0
v -88 -91 0
v -88 -90 0
v -87 -90 0
v -88 -91 0
v -89 -91 0
v -89 -90 0
v -88 -90 0
v -89 -91 0
v -90 -91 0
v -90 -90 0
v -89 -90 0
v -90 -91 0
v -91 -91 0
v -91 -90 0
v -90 -90 0

# Texture cooridinates (Count = 16)
vt 0.375 0.53125
vt 0.40625 0.53125
vt 0.40625 0.5625
vt 0.375 0.5625
vt 0.4375 0.53125
vt 0.4375 0.5625
vt 0.46875 0.53125
vt 0.46875 0.5625
vt 0.375 0.5
vt 0.40625 0.5
vt 0.4375 0.5
vt 0.46875 0.5
vt 0.375 0.46875
vt 0.40625 0.46875
vt 0.4375 0.46875
vt 0.46875 0.46875

# Normal
vn 0 0 -1

# Mesh description
g WaterMap_mesh_0011

# Faces
f 1/1/1 2/2/1 3/3/1 4/4/1
f 5/2/1 6/5/1 7/6/1 8/3/1
f 9/5/1 10/7/1 11/8/1 12/6/1
f 13/9/1 14/10/1 15/2/1 16/1/1
f 17/10/1 18/11/1 19/5/1 20/2/1
f 21/11/1 22/12/1 23/7/1 24/5/1
f 25/9/1 26/10/1 27/2/1 28/1/1
f 29/10/1 30/11/1 31/5/1 32/2/1
f 33/11/1 34/12/1 35/7/1 36/5/1
f 37/9/1 38/10/1 39/2/1 40/1/1
f 41/10/1 42/11/1 43/5/1 44/2/1
f 45/11/1 46/12/1 47/7/1 48/5/1
f 49/9/1 50/10/1 51/2/1 52/1/1
f 53/10/1 54/11/1 55/5/1 56/2/1
f 57/11/1 58/12/1 59/7/1 60/5/1
f 61/9/1 62/10/1 63/2/1 64/1/1
f 65/10/1 66/11/1 67/5/1 68/2/1
f 69/11/1 70/12/1 71/7/1 72/5/1
f 73/13/1 74/14/1 75/10/1 76/9/1
f 77/14/1 78/15/1 79/11/1 80/10/1
f 81/15/1 82/16/1 83/12/1 84/11/1
f 85/1/1 86/2/1 87/3/1 88/4/1
f 89/2/1 90/5/1 91/6/1 92/3/1
f 93/5/1 94/7/1 95/8/1 96/6/1
f 97/9/1 98/10/1 99/2/1 100/1/1
f 101/10/1 102/11/1 103/5/1 104/2/1
f 105/11/1 106/12/1 107/7/1 108/5/1
f 109/9/1 110/10/1 111/2/1 112/1/1
f 113/10/1 114/11/1 115/5/1 116/2/1
f 117/11/1 118/12/1 119/7/1 120/5/1
f 121/9/1 122/10/1 123/2/1 124/1/1
f 125/10/1 126/11/1 127/5/1 128/2/1
f 129/11/1 130/12/1 131/7/1 132/5/1
f 133/9/1 134/10/1 135/2/1 136/1/1
f 137/10/1 138/11/1 139/5/1 140/2/1
f 141/11/1 142/12/1 143/7/1 144/5/1
f 145/9/1 146/10/1 147/2/1 148/1/1
f 149/10/1 150/11/1 151/5/1 152/2/1
f 153/11/1 154/12/1 155/7/1 156/5/1
f 157/14/1 158/10/1 159/9/1 160/13/1
f 161/10/1 162/2/1 163/1/1 164/9/1
f 165/10/1 166/2/1 167/1/1 168/9/1
f 169/10/1 170/2/1 171/1/1 172/9/1
f 173/10/1 174/2/1 175/1/1 176/9/1
f 177/10/1 178/2/1 179/1/1 180/9/1
f 181/10/1 182/2/1 183/1/1 184/9/1
f 185/2/1 186/3/1 187/4/1 188/1/1
f 189/9/1 190/10/1 191/2/1 192/1/1
f 193/10/1 194/11/1 195/5/1 196/2/1
f 197/11/1 198/12/1 199/7/1 200/5/1
f 201/15/1 202/11/1 203/10/1 204/14/1
f 205/11/1 206/5/1 207/2/1 208/10/1
f 209/11/1 210/5/1 211/2/1 212/10/1
f 213/11/1 214/5/1 215/2/1 216/10/1
f 217/11/1 218/5/1 219/2/1 220/10/1
f 221/11/1 222/5/1 223/2/1 224/10/1
f 225/11/1 226/5/1 227/2/1 228/10/1
f 229/5/1 230/6/1 231/3/1 232/2/1
f 233/13/1 234/14/1 235/10/1 236/9/1
f 237/14/1 238/15/1 239/11/1 240/10/1
f 241/15/1 242/16/1 243/12/1 244/11/1
f 245/16/1 246/12/1 247/11/1 248/15/1
f 249/12/1 250/7/1 251/5/1 252/11/1
f 253/12/1 254/7/1 255/5/1 256/11/1
f 257/12/1 258/7/1 259/5/1 260/11/1
f 261/12/1 262/7/1 263/5/1 264/11/1
f 265/12/1 266/7/1 267/5/1 268/11/1
f 269/12/1 270/7/1 271/5/1 272/11/1
f 273/7/1 274/8/1 275/6/1 276/5/1

