# Tiled2Unity generated file. Do not modify by hand.
# Wavefront file for 'MapFeu_mesh_0005.obj'

# Vertices (Count = 72)
v -77 -18 0
v -78 -18 0
v -78 -17 0
v -77 -17 0
v -78 -18 0
v -79 -18 0
v -79 -17 0
v -78 -17 0
v -79 -18 0
v -80 -18 0
v -80 -17 0
v -79 -17 0
v -90 -18 0
v -91 -18 0
v -91 -17 0
v -90 -17 0
v -91 -18 0
v -92 -18 0
v -92 -17 0
v -91 -17 0
v -92 -18 0
v -93 -18 0
v -93 -17 0
v -92 -17 0
v -84 -19 0
v -85 -19 0
v -85 -18 0
v -84 -18 0
v -76 -21 0
v -77 -21 0
v -77 -20 0
v -76 -20 0
v -93 -21 0
v -94 -21 0
v -94 -20 0
v -93 -20 0
v -79 -23 0
v -80 -23 0
v -80 -22 0
v -79 -22 0
v -83 -24 0
v -84 -24 0
v -84 -23 0
v -83 -23 0
v -88 -24 0
v -89 -24 0
v -89 -23 0
v -88 -23 0
v -92 -25 0
v -93 -25 0
v -93 -24 0
v -92 -24 0
v -77 -28 0
v -78 -28 0
v -78 -27 0
v -77 -27 0
v -78 -28 0
v -79 -28 0
v -79 -27 0
v -78 -27 0
v -79 -28 0
v -80 -28 0
v -80 -27 0
v -79 -27 0
v -82 -28 0
v -83 -28 0
v -83 -27 0
v -82 -27 0
v -88 -28 0
v -89 -28 0
v -89 -27 0
v -88 -27 0

# Texture cooridinates (Count = 16)
vt 0.71875 0.15625
vt 0.75 0.15625
vt 0.75 0.1875
vt 0.71875 0.1875
vt 0.78125 0.15625
vt 0.78125 0.1875
vt 0.5625 0.53125
vt 0.59375 0.53125
vt 0.59375 0.5625
vt 0.5625 0.5625
vt 0.59375 0.4375
vt 0.625 0.4375
vt 0.625 0.46875
vt 0.59375 0.46875
vt 0.65625 0.4375
vt 0.65625 0.46875

# Normal
vn 0 0 -1

# Mesh description
g MapFeu_mesh_0005

# Faces
f 1/1/1 2/2/1 3/3/1 4/4/1
f 5/2/1 6/5/1 7/6/1 8/3/1
f 9/7/1 10/8/1 11/9/1 12/10/1
f 13/11/1 14/12/1 15/13/1 16/14/1
f 17/1/1 18/2/1 19/3/1 20/4/1
f 21/2/1 22/5/1 23/6/1 24/3/1
f 25/7/1 26/8/1 27/9/1 28/10/1
f 29/11/1 30/12/1 31/13/1 32/14/1
f 33/12/1 34/15/1 35/16/1 36/13/1
f 37/7/1 38/8/1 39/9/1 40/10/1
f 41/11/1 42/12/1 43/13/1 44/14/1
f 45/12/1 46/15/1 47/16/1 48/13/1
f 49/7/1 50/8/1 51/9/1 52/10/1
f 53/12/1 54/15/1 55/16/1 56/13/1
f 57/1/1 58/2/1 59/3/1 60/4/1
f 61/2/1 62/5/1 63/6/1 64/3/1
f 65/7/1 66/8/1 67/9/1 68/10/1
f 69/11/1 70/12/1 71/13/1 72/14/1

