# Tiled2Unity generated file. Do not modify by hand.
# Wavefront file for 'MapFeu_mesh_0008.obj'

# Vertices (Count = 208)
v -55 -28 0
v -56 -28 0
v -56 -27 0
v -55 -27 0
v -56 -28 0
v -57 -28 0
v -57 -27 0
v -56 -27 0
v -54 -29 0
v -55 -29 0
v -55 -28 0
v -54 -28 0
v -55 -29 0
v -56 -29 0
v -56 -28 0
v -55 -28 0
v -56 -29 0
v -57 -29 0
v -57 -28 0
v -56 -28 0
v -57 -29 0
v -58 -29 0
v -58 -28 0
v -57 -28 0
v -54 -30 0
v -55 -30 0
v -55 -29 0
v -54 -29 0
v -55 -30 0
v -56 -30 0
v -56 -29 0
v -55 -29 0
v -56 -30 0
v -57 -30 0
v -57 -29 0
v -56 -29 0
v -57 -30 0
v -58 -30 0
v -58 -29 0
v -57 -29 0
v -54 -31 0
v -55 -31 0
v -55 -30 0
v -54 -30 0
v -55 -31 0
v -56 -31 0
v -56 -30 0
v -55 -30 0
v -56 -31 0
v -57 -31 0
v -57 -30 0
v -56 -30 0
v -57 -31 0
v -58 -31 0
v -58 -30 0
v -57 -30 0
v -54 -32 0
v -55 -32 0
v -55 -31 0
v -54 -31 0
v -55 -32 0
v -56 -32 0
v -56 -31 0
v -55 -31 0
v -56 -32 0
v -57 -32 0
v -57 -31 0
v -56 -31 0
v -57 -32 0
v -58 -32 0
v -58 -31 0
v -57 -31 0
v -54 -33 0
v -55 -33 0
v -55 -32 0
v -54 -32 0
v -55 -33 0
v -56 -33 0
v -56 -32 0
v -55 -32 0
v -56 -33 0
v -57 -33 0
v -57 -32 0
v -56 -32 0
v -57 -33 0
v -58 -33 0
v -58 -32 0
v -57 -32 0
v -55 -34 0
v -56 -34 0
v -56 -33 0
v -55 -33 0
v -56 -34 0
v -57 -34 0
v -57 -33 0
v -56 -33 0
v -56 -65 0
v -57 -65 0
v -57 -64 0
v -56 -64 0
v -57 -65 0
v -58 -65 0
v -58 -64 0
v -57 -64 0
v -55 -66 0
v -56 -66 0
v -56 -65 0
v -55 -65 0
v -56 -66 0
v -57 -66 0
v -57 -65 0
v -56 -65 0
v -57 -66 0
v -58 -66 0
v -58 -65 0
v -57 -65 0
v -58 -66 0
v -59 -66 0
v -59 -65 0
v -58 -65 0
v -55 -67 0
v -56 -67 0
v -56 -66 0
v -55 -66 0
v -56 -67 0
v -57 -67 0
v -57 -66 0
v -56 -66 0
v -57 -67 0
v -58 -67 0
v -58 -66 0
v -57 -66 0
v -58 -67 0
v -59 -67 0
v -59 -66 0
v -58 -66 0
v -55 -68 0
v -56 -68 0
v -56 -67 0
v -55 -67 0
v -56 -68 0
v -57 -68 0
v -57 -67 0
v -56 -67 0
v -57 -68 0
v -58 -68 0
v -58 -67 0
v -57 -67 0
v -58 -68 0
v -59 -68 0
v -59 -67 0
v -58 -67 0
v -55 -69 0
v -56 -69 0
v -56 -68 0
v -55 -68 0
v -56 -69 0
v -57 -69 0
v -57 -68 0
v -56 -68 0
v -57 -69 0
v -58 -69 0
v -58 -68 0
v -57 -68 0
v -58 -69 0
v -59 -69 0
v -59 -68 0
v -58 -68 0
v -55 -70 0
v -56 -70 0
v -56 -69 0
v -55 -69 0
v -56 -70 0
v -57 -70 0
v -57 -69 0
v -56 -69 0
v -57 -70 0
v -58 -70 0
v -58 -69 0
v -57 -69 0
v -58 -70 0
v -59 -70 0
v -59 -69 0
v -58 -69 0
v -55 -71 0
v -56 -71 0
v -56 -70 0
v -55 -70 0
v -56 -71 0
v -57 -71 0
v -57 -70 0
v -56 -70 0
v -57 -71 0
v -58 -71 0
v -58 -70 0
v -57 -70 0
v -58 -71 0
v -59 -71 0
v -59 -70 0
v -58 -70 0
v -56 -72 0
v -57 -72 0
v -57 -71 0
v -56 -71 0
v -57 -72 0
v -58 -72 0
v -58 -71 0
v -57 -71 0

# Texture cooridinates (Count = 20)
vt 0.59375 0.09375
vt 0.625 0.09375
vt 0.625 0.125
vt 0.59375 0.125
vt 0.78125 0.25
vt 0.8125 0.25
vt 0.8125 0.28125
vt 0.78125 0.28125
vt 0.59375 0.15625
vt 0.625 0.15625
vt 0.625 0.1875
vt 0.59375 0.1875
vt 0.75 0.21875
vt 0.78125 0.21875
vt 0.75 0.25
vt 0.78125 0.1875
vt 0.8125 0.1875
vt 0.8125 0.21875
vt 0.75 0.1875
vt 0.75 0.28125

# Normal
vn 0 0 -1

# Mesh description
g MapFeu_mesh_0008

# Faces
f 1/1/1 2/2/1 3/3/1 4/4/1
f 5/1/1 6/2/1 7/3/1 8/4/1
f 9/5/1 10/6/1 11/7/1 12/8/1
f 13/9/1 14/10/1 15/11/1 16/12/1
f 17/1/1 18/2/1 19/3/1 20/4/1
f 21/13/1 22/14/1 23/5/1 24/15/1
f 25/16/1 26/17/1 27/18/1 28/14/1
f 29/9/1 30/10/1 31/11/1 32/12/1
f 33/9/1 34/10/1 35/11/1 36/12/1
f 37/19/1 38/16/1 39/14/1 40/13/1
f 41/14/1 42/18/1 43/6/1 44/5/1
f 45/1/1 46/2/1 47/3/1 48/4/1
f 49/9/1 50/10/1 51/11/1 52/12/1
f 53/15/1 54/5/1 55/8/1 56/20/1
f 57/5/1 58/6/1 59/7/1 60/8/1
f 61/4/1 62/3/1 63/10/1 64/9/1
f 65/4/1 66/3/1 67/10/1 68/9/1
f 69/19/1 70/16/1 71/14/1 72/13/1
f 73/5/1 74/6/1 75/7/1 76/8/1
f 77/1/1 78/2/1 79/3/1 80/4/1
f 81/9/1 82/10/1 83/11/1 84/12/1
f 85/15/1 86/5/1 87/8/1 88/20/1
f 89/9/1 90/10/1 91/11/1 92/12/1
f 93/4/1 94/3/1 95/10/1 96/9/1
f 97/9/1 98/10/1 99/11/1 100/12/1
f 101/9/1 102/10/1 103/11/1 104/12/1
f 105/5/1 106/6/1 107/7/1 108/8/1
f 109/9/1 110/10/1 111/11/1 112/12/1
f 113/9/1 114/10/1 115/11/1 116/12/1
f 117/15/1 118/5/1 119/8/1 120/20/1
f 121/5/1 122/6/1 123/7/1 124/8/1
f 125/9/1 126/10/1 127/11/1 128/12/1
f 129/9/1 130/10/1 131/11/1 132/12/1
f 133/15/1 134/5/1 135/8/1 136/20/1
f 137/14/1 138/18/1 139/6/1 140/5/1
f 141/4/1 142/3/1 143/10/1 144/9/1
f 145/4/1 146/3/1 147/10/1 148/9/1
f 149/13/1 150/14/1 151/5/1 152/15/1
f 153/16/1 154/17/1 155/18/1 156/14/1
f 157/1/1 158/2/1 159/3/1 160/4/1
f 161/1/1 162/2/1 163/3/1 164/4/1
f 165/19/1 166/16/1 167/14/1 168/13/1
f 169/5/1 170/6/1 171/7/1 172/8/1
f 173/9/1 174/10/1 175/11/1 176/12/1
f 177/9/1 178/10/1 179/11/1 180/12/1
f 181/15/1 182/5/1 183/8/1 184/20/1
f 185/14/1 186/18/1 187/6/1 188/5/1
f 189/9/1 190/10/1 191/11/1 192/12/1
f 193/9/1 194/10/1 195/11/1 196/12/1
f 197/15/1 198/5/1 199/8/1 200/20/1
f 201/9/1 202/10/1 203/11/1 204/12/1
f 205/9/1 206/10/1 207/11/1 208/12/1

