# Tiled2Unity generated file. Do not modify by hand.
# Wavefront file for 'Chateau_transition_mesh_0006.obj'

# Vertices (Count = 36)
v -6 -1 0
v -7 -1 0
v -7 0 0
v -6 0 0
v -54 -1 0
v -55 -1 0
v -55 0 0
v -54 0 0
v -15 -3 0
v -16 -3 0
v -16 -2 0
v -15 -2 0
v -47 -4 0
v -48 -4 0
v -48 -3 0
v -47 -3 0
v -51 -4 0
v -52 -4 0
v -52 -3 0
v -51 -3 0
v -12 -5 0
v -13 -5 0
v -13 -4 0
v -12 -4 0
v -44 -5 0
v -45 -5 0
v -45 -4 0
v -44 -4 0
v -21 -7 0
v -22 -7 0
v -22 -6 0
v -21 -6 0
v -36 -8 0
v -37 -8 0
v -37 -7 0
v -36 -7 0

# Texture cooridinates (Count = 4)
vt 0 0.71875
vt 0.03125 0.71875
vt 0.03125 0.75
vt 0 0.75

# Normal
vn 0 0 -1

# Mesh description
g Chateau_transition_mesh_0006

# Faces
f 1/1/1 2/2/1 3/3/1 4/4/1
f 5/1/1 6/2/1 7/3/1 8/4/1
f 9/1/1 10/2/1 11/3/1 12/4/1
f 13/1/1 14/2/1 15/3/1 16/4/1
f 17/1/1 18/2/1 19/3/1 20/4/1
f 21/1/1 22/2/1 23/3/1 24/4/1
f 25/1/1 26/2/1 27/3/1 28/4/1
f 29/1/1 30/2/1 31/3/1 32/4/1
f 33/1/1 34/2/1 35/3/1 36/4/1

