# Tiled2Unity generated file. Do not modify by hand.
# Wavefront file for 'Forest_Map_mesh_0017.obj'

# Vertices (Count = 468)
v -59 -11 0
v -60 -11 0
v -60 -10 0
v -59 -10 0
v -59 -12 0
v -60 -12 0
v -60 -11 0
v -59 -11 0
v -59 -13 0
v -60 -13 0
v -60 -12 0
v -59 -12 0
v -59 -14 0
v -60 -14 0
v -60 -13 0
v -59 -13 0
v -58 -15 0
v -59 -15 0
v -59 -14 0
v -58 -14 0
v -59 -15 0
v -60 -15 0
v -60 -14 0
v -59 -14 0
v -58 -16 0
v -59 -16 0
v -59 -15 0
v -58 -15 0
v -59 -16 0
v -60 -16 0
v -60 -15 0
v -59 -15 0
v -58 -17 0
v -59 -17 0
v -59 -16 0
v -58 -16 0
v -59 -17 0
v -60 -17 0
v -60 -16 0
v -59 -16 0
v -58 -18 0
v -59 -18 0
v -59 -17 0
v -58 -17 0
v -59 -18 0
v -60 -18 0
v -60 -17 0
v -59 -17 0
v -13 -19 0
v -14 -19 0
v -14 -18 0
v -13 -18 0
v -14 -19 0
v -15 -19 0
v -15 -18 0
v -14 -18 0
v -15 -19 0
v -16 -19 0
v -16 -18 0
v -15 -18 0
v -58 -19 0
v -59 -19 0
v -59 -18 0
v -58 -18 0
v -59 -19 0
v -60 -19 0
v -60 -18 0
v -59 -18 0
v -13 -20 0
v -14 -20 0
v -14 -19 0
v -13 -19 0
v -14 -20 0
v -15 -20 0
v -15 -19 0
v -14 -19 0
v -15 -20 0
v -16 -20 0
v -16 -19 0
v -15 -19 0
v -58 -20 0
v -59 -20 0
v -59 -19 0
v -58 -19 0
v -59 -20 0
v -60 -20 0
v -60 -19 0
v -59 -19 0
v -13 -21 0
v -14 -21 0
v -14 -20 0
v -13 -20 0
v -14 -21 0
v -15 -21 0
v -15 -20 0
v -14 -20 0
v -15 -21 0
v -16 -21 0
v -16 -20 0
v -15 -20 0
v -22 -21 0
v -23 -21 0
v -23 -20 0
v -22 -20 0
v -23 -21 0
v -24 -21 0
v -24 -20 0
v -23 -20 0
v -24 -21 0
v -25 -21 0
v -25 -20 0
v -24 -20 0
v -13 -22 0
v -14 -22 0
v -14 -21 0
v -13 -21 0
v -14 -22 0
v -15 -22 0
v -15 -21 0
v -14 -21 0
v -15 -22 0
v -16 -22 0
v -16 -21 0
v -15 -21 0
v -22 -22 0
v -23 -22 0
v -23 -21 0
v -22 -21 0
v -23 -22 0
v -24 -22 0
v -24 -21 0
v -23 -21 0
v -24 -22 0
v -25 -22 0
v -25 -21 0
v -24 -21 0
v -22 -23 0
v -23 -23 0
v -23 -22 0
v -22 -22 0
v -23 -23 0
v -24 -23 0
v -24 -22 0
v -23 -22 0
v -24 -23 0
v -25 -23 0
v -25 -22 0
v -24 -22 0
v -22 -24 0
v -23 -24 0
v -23 -23 0
v -22 -23 0
v -23 -24 0
v -24 -24 0
v -24 -23 0
v -23 -23 0
v -24 -24 0
v -25 -24 0
v -25 -23 0
v -24 -23 0
v -13 -27 0
v -14 -27 0
v -14 -26 0
v -13 -26 0
v -14 -27 0
v -15 -27 0
v -15 -26 0
v -14 -26 0
v -15 -27 0
v -16 -27 0
v -16 -26 0
v -15 -26 0
v -13 -28 0
v -14 -28 0
v -14 -27 0
v -13 -27 0
v -14 -28 0
v -15 -28 0
v -15 -27 0
v -14 -27 0
v -15 -28 0
v -16 -28 0
v -16 -27 0
v -15 -27 0
v -3 -29 0
v -4 -29 0
v -4 -28 0
v -3 -28 0
v -13 -29 0
v -14 -29 0
v -14 -28 0
v -13 -28 0
v -14 -29 0
v -15 -29 0
v -15 -28 0
v -14 -28 0
v -15 -29 0
v -16 -29 0
v -16 -28 0
v -15 -28 0
v -13 -30 0
v -14 -30 0
v -14 -29 0
v -13 -29 0
v -14 -30 0
v -15 -30 0
v -15 -29 0
v -14 -29 0
v -15 -30 0
v -16 -30 0
v -16 -29 0
v -15 -29 0
v -6 -36 0
v -7 -36 0
v -7 -35 0
v -6 -35 0
v -7 -36 0
v -8 -36 0
v -8 -35 0
v -7 -35 0
v -8 -36 0
v -9 -36 0
v -9 -35 0
v -8 -35 0
v -6 -37 0
v -7 -37 0
v -7 -36 0
v -6 -36 0
v -7 -37 0
v -8 -37 0
v -8 -36 0
v -7 -36 0
v -8 -37 0
v -9 -37 0
v -9 -36 0
v -8 -36 0
v -6 -38 0
v -7 -38 0
v -7 -37 0
v -6 -37 0
v -7 -38 0
v -8 -38 0
v -8 -37 0
v -7 -37 0
v -8 -38 0
v -9 -38 0
v -9 -37 0
v -8 -37 0
v -6 -39 0
v -7 -39 0
v -7 -38 0
v -6 -38 0
v -7 -39 0
v -8 -39 0
v -8 -38 0
v -7 -38 0
v -8 -39 0
v -9 -39 0
v -9 -38 0
v -8 -38 0
v -10 -52 0
v -11 -52 0
v -11 -51 0
v -10 -51 0
v -11 -52 0
v -12 -52 0
v -12 -51 0
v -11 -51 0
v -12 -52 0
v -13 -52 0
v -13 -51 0
v -12 -51 0
v 0 -53 0
v -1 -53 0
v -1 -52 0
v 0 -52 0
v -10 -53 0
v -11 -53 0
v -11 -52 0
v -10 -52 0
v -11 -53 0
v -12 -53 0
v -12 -52 0
v -11 -52 0
v -12 -53 0
v -13 -53 0
v -13 -52 0
v -12 -52 0
v 0 -54 0
v -1 -54 0
v -1 -53 0
v 0 -53 0
v -10 -54 0
v -11 -54 0
v -11 -53 0
v -10 -53 0
v -11 -54 0
v -12 -54 0
v -12 -53 0
v -11 -53 0
v -12 -54 0
v -13 -54 0
v -13 -53 0
v -12 -53 0
v 0 -55 0
v -1 -55 0
v -1 -54 0
v 0 -54 0
v -10 -55 0
v -11 -55 0
v -11 -54 0
v -10 -54 0
v -11 -55 0
v -12 -55 0
v -12 -54 0
v -11 -54 0
v -12 -55 0
v -13 -55 0
v -13 -54 0
v -12 -54 0
v 0 -56 0
v -1 -56 0
v -1 -55 0
v 0 -55 0
v -2 -58 0
v -3 -58 0
v -3 -57 0
v -2 -57 0
v -3 -58 0
v -4 -58 0
v -4 -57 0
v -3 -57 0
v -4 -58 0
v -5 -58 0
v -5 -57 0
v -4 -57 0
v -6 -58 0
v -7 -58 0
v -7 -57 0
v -6 -57 0
v -7 -58 0
v -8 -58 0
v -8 -57 0
v -7 -57 0
v -8 -58 0
v -9 -58 0
v -9 -57 0
v -8 -57 0
v -13 -58 0
v -14 -58 0
v -14 -57 0
v -13 -57 0
v -14 -58 0
v -15 -58 0
v -15 -57 0
v -14 -57 0
v -15 -58 0
v -16 -58 0
v -16 -57 0
v -15 -57 0
v -18 -58 0
v -19 -58 0
v -19 -57 0
v -18 -57 0
v -19 -58 0
v -20 -58 0
v -20 -57 0
v -19 -57 0
v -20 -58 0
v -21 -58 0
v -21 -57 0
v -20 -57 0
v -2 -59 0
v -3 -59 0
v -3 -58 0
v -2 -58 0
v -3 -59 0
v -4 -59 0
v -4 -58 0
v -3 -58 0
v -4 -59 0
v -5 -59 0
v -5 -58 0
v -4 -58 0
v -6 -59 0
v -7 -59 0
v -7 -58 0
v -6 -58 0
v -7 -59 0
v -8 -59 0
v -8 -58 0
v -7 -58 0
v -8 -59 0
v -9 -59 0
v -9 -58 0
v -8 -58 0
v -13 -59 0
v -14 -59 0
v -14 -58 0
v -13 -58 0
v -14 -59 0
v -15 -59 0
v -15 -58 0
v -14 -58 0
v -15 -59 0
v -16 -59 0
v -16 -58 0
v -15 -58 0
v -18 -59 0
v -19 -59 0
v -19 -58 0
v -18 -58 0
v -19 -59 0
v -20 -59 0
v -20 -58 0
v -19 -58 0
v -20 -59 0
v -21 -59 0
v -21 -58 0
v -20 -58 0
v -2 -60 0
v -3 -60 0
v -3 -59 0
v -2 -59 0
v -3 -60 0
v -4 -60 0
v -4 -59 0
v -3 -59 0
v -4 -60 0
v -5 -60 0
v -5 -59 0
v -4 -59 0
v -6 -60 0
v -7 -60 0
v -7 -59 0
v -6 -59 0
v -7 -60 0
v -8 -60 0
v -8 -59 0
v -7 -59 0
v -8 -60 0
v -9 -60 0
v -9 -59 0
v -8 -59 0
v -13 -60 0
v -14 -60 0
v -14 -59 0
v -13 -59 0
v -14 -60 0
v -15 -60 0
v -15 -59 0
v -14 -59 0
v -15 -60 0
v -16 -60 0
v -16 -59 0
v -15 -59 0
v -18 -60 0
v -19 -60 0
v -19 -59 0
v -18 -59 0
v -19 -60 0
v -20 -60 0
v -20 -59 0
v -19 -59 0
v -20 -60 0
v -21 -60 0
v -21 -59 0
v -20 -59 0

# Texture cooridinates (Count = 26)
vt 0.84375 0.5
vt 0.875 0.5
vt 0.875 0.53125
vt 0.84375 0.53125
vt 0.84375 0.46875
vt 0.875 0.46875
vt 0.84375 0.4375
vt 0.875 0.4375
vt 0.84375 0.40625
vt 0.875 0.40625
vt 0.90625 0.5
vt 0.90625 0.53125
vt 0.90625 0.46875
vt 0.90625 0.4375
vt 0.9375 0.5
vt 0.9375 0.53125
vt 0.875 0.375
vt 0.90625 0.375
vt 0.90625 0.40625
vt 0.9375 0.375
vt 0.9375 0.40625
vt 0.9375 0.46875
vt 0.875 0.34375
vt 0.90625 0.34375
vt 0.9375 0.34375
vt 0.9375 0.4375

# Normal
vn 0 0 -1

# Mesh description
g Forest_Map_mesh_0017

# Faces
f 1/1/1 2/2/1 3/3/1 4/4/1
f 5/5/1 6/6/1 7/2/1 8/1/1
f 9/7/1 10/8/1 11/6/1 12/5/1
f 13/9/1 14/10/1 15/8/1 16/7/1
f 17/1/1 18/2/1 19/3/1 20/4/1
f 21/2/1 22/11/1 23/12/1 24/3/1
f 25/1/1 26/2/1 27/3/1 28/4/1
f 29/2/1 30/11/1 31/12/1 32/3/1
f 33/5/1 34/6/1 35/2/1 36/1/1
f 37/6/1 38/13/1 39/11/1 40/2/1
f 41/7/1 42/8/1 43/6/1 44/5/1
f 45/8/1 46/14/1 47/13/1 48/6/1
f 49/1/1 50/2/1 51/3/1 52/4/1
f 53/2/1 54/11/1 55/12/1 56/3/1
f 57/11/1 58/15/1 59/16/1 60/12/1
f 61/17/1 62/18/1 63/19/1 64/10/1
f 65/18/1 66/20/1 67/21/1 68/19/1
f 69/5/1 70/6/1 71/2/1 72/1/1
f 73/6/1 74/13/1 75/11/1 76/2/1
f 77/13/1 78/22/1 79/15/1 80/11/1
f 81/23/1 82/24/1 83/18/1 84/17/1
f 85/24/1 86/25/1 87/20/1 88/18/1
f 89/7/1 90/8/1 91/6/1 92/5/1
f 93/8/1 94/14/1 95/13/1 96/6/1
f 97/14/1 98/26/1 99/22/1 100/13/1
f 101/1/1 102/2/1 103/3/1 104/4/1
f 105/2/1 106/11/1 107/12/1 108/3/1
f 109/11/1 110/15/1 111/16/1 112/12/1
f 113/9/1 114/10/1 115/8/1 116/7/1
f 117/10/1 118/19/1 119/14/1 120/8/1
f 121/19/1 122/21/1 123/26/1 124/14/1
f 125/5/1 126/6/1 127/2/1 128/1/1
f 129/6/1 130/13/1 131/11/1 132/2/1
f 133/13/1 134/22/1 135/15/1 136/11/1
f 137/7/1 138/8/1 139/6/1 140/5/1
f 141/8/1 142/14/1 143/13/1 144/6/1
f 145/14/1 146/26/1 147/22/1 148/13/1
f 149/9/1 150/10/1 151/8/1 152/7/1
f 153/10/1 154/19/1 155/14/1 156/8/1
f 157/19/1 158/21/1 159/26/1 160/14/1
f 161/1/1 162/2/1 163/3/1 164/4/1
f 165/2/1 166/11/1 167/12/1 168/3/1
f 169/11/1 170/15/1 171/16/1 172/12/1
f 173/5/1 174/6/1 175/2/1 176/1/1
f 177/6/1 178/13/1 179/11/1 180/2/1
f 181/13/1 182/22/1 183/15/1 184/11/1
f 185/2/1 186/11/1 187/12/1 188/3/1
f 189/7/1 190/8/1 191/6/1 192/5/1
f 193/8/1 194/14/1 195/13/1 196/6/1
f 197/14/1 198/26/1 199/22/1 200/13/1
f 201/9/1 202/10/1 203/8/1 204/7/1
f 205/10/1 206/19/1 207/14/1 208/8/1
f 209/19/1 210/21/1 211/26/1 212/14/1
f 213/1/1 214/2/1 215/3/1 216/4/1
f 217/2/1 218/11/1 219/12/1 220/3/1
f 221/11/1 222/15/1 223/16/1 224/12/1
f 225/5/1 226/6/1 227/2/1 228/1/1
f 229/6/1 230/13/1 231/11/1 232/2/1
f 233/13/1 234/22/1 235/15/1 236/11/1
f 237/7/1 238/8/1 239/6/1 240/5/1
f 241/8/1 242/14/1 243/13/1 244/6/1
f 245/14/1 246/26/1 247/22/1 248/13/1
f 249/9/1 250/10/1 251/8/1 252/7/1
f 253/10/1 254/19/1 255/14/1 256/8/1
f 257/19/1 258/21/1 259/26/1 260/14/1
f 261/1/1 262/2/1 263/3/1 264/4/1
f 265/2/1 266/11/1 267/12/1 268/3/1
f 269/11/1 270/15/1 271/16/1 272/12/1
f 273/11/1 274/15/1 275/16/1 276/12/1
f 277/5/1 278/6/1 279/2/1 280/1/1
f 281/6/1 282/13/1 283/11/1 284/2/1
f 285/13/1 286/22/1 287/15/1 288/11/1
f 289/13/1 290/22/1 291/15/1 292/11/1
f 293/7/1 294/8/1 295/6/1 296/5/1
f 297/8/1 298/14/1 299/13/1 300/6/1
f 301/14/1 302/26/1 303/22/1 304/13/1
f 305/14/1 306/26/1 307/22/1 308/13/1
f 309/9/1 310/10/1 311/8/1 312/7/1
f 313/10/1 314/19/1 315/14/1 316/8/1
f 317/19/1 318/21/1 319/26/1 320/14/1
f 321/19/1 322/21/1 323/26/1 324/14/1
f 325/1/1 326/2/1 327/3/1 328/4/1
f 329/2/1 330/11/1 331/12/1 332/3/1
f 333/11/1 334/15/1 335/16/1 336/12/1
f 337/1/1 338/2/1 339/3/1 340/4/1
f 341/2/1 342/11/1 343/12/1 344/3/1
f 345/11/1 346/15/1 347/16/1 348/12/1
f 349/1/1 350/2/1 351/3/1 352/4/1
f 353/2/1 354/11/1 355/12/1 356/3/1
f 357/11/1 358/15/1 359/16/1 360/12/1
f 361/1/1 362/2/1 363/3/1 364/4/1
f 365/2/1 366/11/1 367/12/1 368/3/1
f 369/11/1 370/15/1 371/16/1 372/12/1
f 373/5/1 374/6/1 375/2/1 376/1/1
f 377/6/1 378/13/1 379/11/1 380/2/1
f 381/13/1 382/22/1 383/15/1 384/11/1
f 385/5/1 386/6/1 387/2/1 388/1/1
f 389/6/1 390/13/1 391/11/1 392/2/1
f 393/13/1 394/22/1 395/15/1 396/11/1
f 397/5/1 398/6/1 399/2/1 400/1/1
f 401/6/1 402/13/1 403/11/1 404/2/1
f 405/13/1 406/22/1 407/15/1 408/11/1
f 409/5/1 410/6/1 411/2/1 412/1/1
f 413/6/1 414/13/1 415/11/1 416/2/1
f 417/13/1 418/22/1 419/15/1 420/11/1
f 421/7/1 422/8/1 423/6/1 424/5/1
f 425/8/1 426/14/1 427/13/1 428/6/1
f 429/14/1 430/26/1 431/22/1 432/13/1
f 433/7/1 434/8/1 435/6/1 436/5/1
f 437/8/1 438/14/1 439/13/1 440/6/1
f 441/14/1 442/26/1 443/22/1 444/13/1
f 445/7/1 446/8/1 447/6/1 448/5/1
f 449/8/1 450/14/1 451/13/1 452/6/1
f 453/14/1 454/26/1 455/22/1 456/13/1
f 457/7/1 458/8/1 459/6/1 460/5/1
f 461/8/1 462/14/1 463/13/1 464/6/1
f 465/14/1 466/26/1 467/22/1 468/13/1

