# Tiled2Unity generated file. Do not modify by hand.
# Wavefront file for 'Forest_Map_mesh_0016.obj'

# Vertices (Count = 824)
v -30 -9 0
v -31 -9 0
v -31 -8 0
v -30 -8 0
v -31 -9 0
v -32 -9 0
v -32 -8 0
v -31 -8 0
v -32 -9 0
v -33 -9 0
v -33 -8 0
v -32 -8 0
v -30 -10 0
v -31 -10 0
v -31 -9 0
v -30 -9 0
v -31 -10 0
v -32 -10 0
v -32 -9 0
v -31 -9 0
v -32 -10 0
v -33 -10 0
v -33 -9 0
v -32 -9 0
v -30 -11 0
v -31 -11 0
v -31 -10 0
v -30 -10 0
v -31 -11 0
v -32 -11 0
v -32 -10 0
v -31 -10 0
v -32 -11 0
v -33 -11 0
v -33 -10 0
v -32 -10 0
v -30 -12 0
v -31 -12 0
v -31 -11 0
v -30 -11 0
v -31 -12 0
v -32 -12 0
v -32 -11 0
v -31 -11 0
v -32 -12 0
v -33 -12 0
v -33 -11 0
v -32 -11 0
v -10 -19 0
v -11 -19 0
v -11 -18 0
v -10 -18 0
v -10 -20 0
v -11 -20 0
v -11 -19 0
v -10 -19 0
v 0 -21 0
v -1 -21 0
v -1 -20 0
v 0 -20 0
v -1 -21 0
v -2 -21 0
v -2 -20 0
v -1 -20 0
v 0 -22 0
v -1 -22 0
v -1 -21 0
v 0 -21 0
v -1 -22 0
v -2 -22 0
v -2 -21 0
v -1 -21 0
v 0 -23 0
v -1 -23 0
v -1 -22 0
v 0 -22 0
v -1 -23 0
v -2 -23 0
v -2 -22 0
v -1 -22 0
v 0 -24 0
v -1 -24 0
v -1 -23 0
v 0 -23 0
v -1 -24 0
v -2 -24 0
v -2 -23 0
v -1 -23 0
v -59 -25 0
v -60 -25 0
v -60 -24 0
v -59 -24 0
v -59 -26 0
v -60 -26 0
v -60 -25 0
v -59 -25 0
v -7 -27 0
v -8 -27 0
v -8 -26 0
v -7 -26 0
v -8 -27 0
v -9 -27 0
v -9 -26 0
v -8 -26 0
v -9 -27 0
v -10 -27 0
v -10 -26 0
v -9 -26 0
v -59 -27 0
v -60 -27 0
v -60 -26 0
v -59 -26 0
v -7 -28 0
v -8 -28 0
v -8 -27 0
v -7 -27 0
v -8 -28 0
v -9 -28 0
v -9 -27 0
v -8 -27 0
v -9 -28 0
v -10 -28 0
v -10 -27 0
v -9 -27 0
v -54 -28 0
v -55 -28 0
v -55 -27 0
v -54 -27 0
v -55 -28 0
v -56 -28 0
v -56 -27 0
v -55 -27 0
v -59 -28 0
v -60 -28 0
v -60 -27 0
v -59 -27 0
v -7 -29 0
v -8 -29 0
v -8 -28 0
v -7 -28 0
v -8 -29 0
v -9 -29 0
v -9 -28 0
v -8 -28 0
v -9 -29 0
v -10 -29 0
v -10 -28 0
v -9 -28 0
v -54 -29 0
v -55 -29 0
v -55 -28 0
v -54 -28 0
v -55 -29 0
v -56 -29 0
v -56 -28 0
v -55 -28 0
v -7 -30 0
v -8 -30 0
v -8 -29 0
v -7 -29 0
v -8 -30 0
v -9 -30 0
v -9 -29 0
v -8 -29 0
v -9 -30 0
v -10 -30 0
v -10 -29 0
v -9 -29 0
v -54 -30 0
v -55 -30 0
v -55 -29 0
v -54 -29 0
v -55 -30 0
v -56 -30 0
v -56 -29 0
v -55 -29 0
v -2 -31 0
v -3 -31 0
v -3 -30 0
v -2 -30 0
v -3 -31 0
v -4 -31 0
v -4 -30 0
v -3 -30 0
v -54 -31 0
v -55 -31 0
v -55 -30 0
v -54 -30 0
v -55 -31 0
v -56 -31 0
v -56 -30 0
v -55 -30 0
v -2 -32 0
v -3 -32 0
v -3 -31 0
v -2 -31 0
v -3 -32 0
v -4 -32 0
v -4 -31 0
v -3 -31 0
v -2 -33 0
v -3 -33 0
v -3 -32 0
v -2 -32 0
v -3 -33 0
v -4 -33 0
v -4 -32 0
v -3 -32 0
v -2 -34 0
v -3 -34 0
v -3 -33 0
v -2 -33 0
v -3 -34 0
v -4 -34 0
v -4 -33 0
v -3 -33 0
v -5 -34 0
v -6 -34 0
v -6 -33 0
v -5 -33 0
v -6 -34 0
v -7 -34 0
v -7 -33 0
v -6 -33 0
v -7 -34 0
v -8 -34 0
v -8 -33 0
v -7 -33 0
v -51 -34 0
v -52 -34 0
v -52 -33 0
v -51 -33 0
v -52 -34 0
v -53 -34 0
v -53 -33 0
v -52 -33 0
v -5 -35 0
v -6 -35 0
v -6 -34 0
v -5 -34 0
v -6 -35 0
v -7 -35 0
v -7 -34 0
v -6 -34 0
v -7 -35 0
v -8 -35 0
v -8 -34 0
v -7 -34 0
v -51 -35 0
v -52 -35 0
v -52 -34 0
v -51 -34 0
v -52 -35 0
v -53 -35 0
v -53 -34 0
v -52 -34 0
v -5 -36 0
v -6 -36 0
v -6 -35 0
v -5 -35 0
v -6 -36 0
v -7 -36 0
v -7 -35 0
v -6 -35 0
v -7 -36 0
v -8 -36 0
v -8 -35 0
v -7 -35 0
v -51 -36 0
v -52 -36 0
v -52 -35 0
v -51 -35 0
v -52 -36 0
v -53 -36 0
v -53 -35 0
v -52 -35 0
v -5 -37 0
v -6 -37 0
v -6 -36 0
v -5 -36 0
v -6 -37 0
v -7 -37 0
v -7 -36 0
v -6 -36 0
v -7 -37 0
v -8 -37 0
v -8 -36 0
v -7 -36 0
v -51 -37 0
v -52 -37 0
v -52 -36 0
v -51 -36 0
v -52 -37 0
v -53 -37 0
v -53 -36 0
v -52 -36 0
v -54 -38 0
v -55 -38 0
v -55 -37 0
v -54 -37 0
v -55 -38 0
v -56 -38 0
v -56 -37 0
v -55 -37 0
v -56 -38 0
v -57 -38 0
v -57 -37 0
v -56 -37 0
v -54 -39 0
v -55 -39 0
v -55 -38 0
v -54 -38 0
v -55 -39 0
v -56 -39 0
v -56 -38 0
v -55 -38 0
v -56 -39 0
v -57 -39 0
v -57 -38 0
v -56 -38 0
v -54 -40 0
v -55 -40 0
v -55 -39 0
v -54 -39 0
v -55 -40 0
v -56 -40 0
v -56 -39 0
v -55 -39 0
v -56 -40 0
v -57 -40 0
v -57 -39 0
v -56 -39 0
v -51 -41 0
v -52 -41 0
v -52 -40 0
v -51 -40 0
v -52 -41 0
v -53 -41 0
v -53 -40 0
v -52 -40 0
v -53 -41 0
v -54 -41 0
v -54 -40 0
v -53 -40 0
v -54 -41 0
v -55 -41 0
v -55 -40 0
v -54 -40 0
v -55 -41 0
v -56 -41 0
v -56 -40 0
v -55 -40 0
v -56 -41 0
v -57 -41 0
v -57 -40 0
v -56 -40 0
v -5 -42 0
v -6 -42 0
v -6 -41 0
v -5 -41 0
v -6 -42 0
v -7 -42 0
v -7 -41 0
v -6 -41 0
v -7 -42 0
v -8 -42 0
v -8 -41 0
v -7 -41 0
v -51 -42 0
v -52 -42 0
v -52 -41 0
v -51 -41 0
v -52 -42 0
v -53 -42 0
v -53 -41 0
v -52 -41 0
v -53 -42 0
v -54 -42 0
v -54 -41 0
v -53 -41 0
v -54 -42 0
v -55 -42 0
v -55 -41 0
v -54 -41 0
v -55 -42 0
v -56 -42 0
v -56 -41 0
v -55 -41 0
v 0 -43 0
v -1 -43 0
v -1 -42 0
v 0 -42 0
v -1 -43 0
v -2 -43 0
v -2 -42 0
v -1 -42 0
v -2 -43 0
v -3 -43 0
v -3 -42 0
v -2 -42 0
v -5 -43 0
v -6 -43 0
v -6 -42 0
v -5 -42 0
v -6 -43 0
v -7 -43 0
v -7 -42 0
v -6 -42 0
v -7 -43 0
v -8 -43 0
v -8 -42 0
v -7 -42 0
v -51 -43 0
v -52 -43 0
v -52 -42 0
v -51 -42 0
v -52 -43 0
v -53 -43 0
v -53 -42 0
v -52 -42 0
v -53 -43 0
v -54 -43 0
v -54 -42 0
v -53 -42 0
v -54 -43 0
v -55 -43 0
v -55 -42 0
v -54 -42 0
v -55 -43 0
v -56 -43 0
v -56 -42 0
v -55 -42 0
v 0 -44 0
v -1 -44 0
v -1 -43 0
v 0 -43 0
v -1 -44 0
v -2 -44 0
v -2 -43 0
v -1 -43 0
v -2 -44 0
v -3 -44 0
v -3 -43 0
v -2 -43 0
v -5 -44 0
v -6 -44 0
v -6 -43 0
v -5 -43 0
v -6 -44 0
v -7 -44 0
v -7 -43 0
v -6 -43 0
v -7 -44 0
v -8 -44 0
v -8 -43 0
v -7 -43 0
v -51 -44 0
v -52 -44 0
v -52 -43 0
v -51 -43 0
v -52 -44 0
v -53 -44 0
v -53 -43 0
v -52 -43 0
v -53 -44 0
v -54 -44 0
v -54 -43 0
v -53 -43 0
v -54 -44 0
v -55 -44 0
v -55 -43 0
v -54 -43 0
v -55 -44 0
v -56 -44 0
v -56 -43 0
v -55 -43 0
v -56 -44 0
v -57 -44 0
v -57 -43 0
v -56 -43 0
v -57 -44 0
v -58 -44 0
v -58 -43 0
v -57 -43 0
v -58 -44 0
v -59 -44 0
v -59 -43 0
v -58 -43 0
v 0 -45 0
v -1 -45 0
v -1 -44 0
v 0 -44 0
v -1 -45 0
v -2 -45 0
v -2 -44 0
v -1 -44 0
v -2 -45 0
v -3 -45 0
v -3 -44 0
v -2 -44 0
v -5 -45 0
v -6 -45 0
v -6 -44 0
v -5 -44 0
v -6 -45 0
v -7 -45 0
v -7 -44 0
v -6 -44 0
v -7 -45 0
v -8 -45 0
v -8 -44 0
v -7 -44 0
v -10 -45 0
v -11 -45 0
v -11 -44 0
v -10 -44 0
v -11 -45 0
v -12 -45 0
v -12 -44 0
v -11 -44 0
v -12 -45 0
v -13 -45 0
v -13 -44 0
v -12 -44 0
v -49 -45 0
v -50 -45 0
v -50 -44 0
v -49 -44 0
v -50 -45 0
v -51 -45 0
v -51 -44 0
v -50 -44 0
v -51 -45 0
v -52 -45 0
v -52 -44 0
v -51 -44 0
v -56 -45 0
v -57 -45 0
v -57 -44 0
v -56 -44 0
v -57 -45 0
v -58 -45 0
v -58 -44 0
v -57 -44 0
v -58 -45 0
v -59 -45 0
v -59 -44 0
v -58 -44 0
v 0 -46 0
v -1 -46 0
v -1 -45 0
v 0 -45 0
v -1 -46 0
v -2 -46 0
v -2 -45 0
v -1 -45 0
v -2 -46 0
v -3 -46 0
v -3 -45 0
v -2 -45 0
v -10 -46 0
v -11 -46 0
v -11 -45 0
v -10 -45 0
v -11 -46 0
v -12 -46 0
v -12 -45 0
v -11 -45 0
v -12 -46 0
v -13 -46 0
v -13 -45 0
v -12 -45 0
v -49 -46 0
v -50 -46 0
v -50 -45 0
v -49 -45 0
v -50 -46 0
v -51 -46 0
v -51 -45 0
v -50 -45 0
v -51 -46 0
v -52 -46 0
v -52 -45 0
v -51 -45 0
v -56 -46 0
v -57 -46 0
v -57 -45 0
v -56 -45 0
v -57 -46 0
v -58 -46 0
v -58 -45 0
v -57 -45 0
v -58 -46 0
v -59 -46 0
v -59 -45 0
v -58 -45 0
v -10 -47 0
v -11 -47 0
v -11 -46 0
v -10 -46 0
v -11 -47 0
v -12 -47 0
v -12 -46 0
v -11 -46 0
v -12 -47 0
v -13 -47 0
v -13 -46 0
v -12 -46 0
v -49 -47 0
v -50 -47 0
v -50 -46 0
v -49 -46 0
v -50 -47 0
v -51 -47 0
v -51 -46 0
v -50 -46 0
v -51 -47 0
v -52 -47 0
v -52 -46 0
v -51 -46 0
v -53 -47 0
v -54 -47 0
v -54 -46 0
v -53 -46 0
v -54 -47 0
v -55 -47 0
v -55 -46 0
v -54 -46 0
v -55 -47 0
v -56 -47 0
v -56 -46 0
v -55 -46 0
v -56 -47 0
v -57 -47 0
v -57 -46 0
v -56 -46 0
v -57 -47 0
v -58 -47 0
v -58 -46 0
v -57 -46 0
v -58 -47 0
v -59 -47 0
v -59 -46 0
v -58 -46 0
v -10 -48 0
v -11 -48 0
v -11 -47 0
v -10 -47 0
v -11 -48 0
v -12 -48 0
v -12 -47 0
v -11 -47 0
v -12 -48 0
v -13 -48 0
v -13 -47 0
v -12 -47 0
v -22 -48 0
v -23 -48 0
v -23 -47 0
v -22 -47 0
v -23 -48 0
v -24 -48 0
v -24 -47 0
v -23 -47 0
v -24 -48 0
v -25 -48 0
v -25 -47 0
v -24 -47 0
v -49 -48 0
v -50 -48 0
v -50 -47 0
v -49 -47 0
v -50 -48 0
v -51 -48 0
v -51 -47 0
v -50 -47 0
v -51 -48 0
v -52 -48 0
v -52 -47 0
v -51 -47 0
v -53 -48 0
v -54 -48 0
v -54 -47 0
v -53 -47 0
v -54 -48 0
v -55 -48 0
v -55 -47 0
v -54 -47 0
v -55 -48 0
v -56 -48 0
v -56 -47 0
v -55 -47 0
v -22 -49 0
v -23 -49 0
v -23 -48 0
v -22 -48 0
v -23 -49 0
v -24 -49 0
v -24 -48 0
v -23 -48 0
v -24 -49 0
v -25 -49 0
v -25 -48 0
v -24 -48 0
v -35 -49 0
v -36 -49 0
v -36 -48 0
v -35 -48 0
v -36 -49 0
v -37 -49 0
v -37 -48 0
v -36 -48 0
v -37 -49 0
v -38 -49 0
v -38 -48 0
v -37 -48 0
v -53 -49 0
v -54 -49 0
v -54 -48 0
v -53 -48 0
v -54 -49 0
v -55 -49 0
v -55 -48 0
v -54 -48 0
v -55 -49 0
v -56 -49 0
v -56 -48 0
v -55 -48 0
v -22 -50 0
v -23 -50 0
v -23 -49 0
v -22 -49 0
v -23 -50 0
v -24 -50 0
v -24 -49 0
v -23 -49 0
v -24 -50 0
v -25 -50 0
v -25 -49 0
v -24 -49 0
v -35 -50 0
v -36 -50 0
v -36 -49 0
v -35 -49 0
v -36 -50 0
v -37 -50 0
v -37 -49 0
v -36 -49 0
v -37 -50 0
v -38 -50 0
v -38 -49 0
v -37 -49 0
v -53 -50 0
v -54 -50 0
v -54 -49 0
v -53 -49 0
v -54 -50 0
v -55 -50 0
v -55 -49 0
v -54 -49 0
v -55 -50 0
v -56 -50 0
v -56 -49 0
v -55 -49 0
v -35 -51 0
v -36 -51 0
v -36 -50 0
v -35 -50 0
v -36 -51 0
v -37 -51 0
v -37 -50 0
v -36 -50 0
v -37 -51 0
v -38 -51 0
v -38 -50 0
v -37 -50 0
v 0 -57 0
v -1 -57 0
v -1 -56 0
v 0 -56 0
v -1 -57 0
v -2 -57 0
v -2 -56 0
v -1 -56 0
v -2 -57 0
v -3 -57 0
v -3 -56 0
v -2 -56 0
v 0 -58 0
v -1 -58 0
v -1 -57 0
v 0 -57 0
v -1 -58 0
v -2 -58 0
v -2 -57 0
v -1 -57 0
v -2 -58 0
v -3 -58 0
v -3 -57 0
v -2 -57 0
v 0 -59 0
v -1 -59 0
v -1 -58 0
v 0 -58 0
v -1 -59 0
v -2 -59 0
v -2 -58 0
v -1 -58 0
v -2 -59 0
v -3 -59 0
v -3 -58 0
v -2 -58 0
v 0 -60 0
v -1 -60 0
v -1 -59 0
v 0 -59 0
v -1 -60 0
v -2 -60 0
v -2 -59 0
v -1 -59 0
v -2 -60 0
v -3 -60 0
v -3 -59 0
v -2 -59 0

# Texture cooridinates (Count = 47)
vt 0.84375 0.5
vt 0.875 0.5
vt 0.875 0.53125
vt 0.84375 0.53125
vt 0.90625 0.5
vt 0.90625 0.53125
vt 0.9375 0.5
vt 0.9375 0.53125
vt 0.84375 0.46875
vt 0.875 0.46875
vt 0.90625 0.46875
vt 0.9375 0.46875
vt 0.84375 0.4375
vt 0.875 0.4375
vt 0.90625 0.4375
vt 0.9375 0.4375
vt 0.84375 0.40625
vt 0.875 0.40625
vt 0.90625 0.40625
vt 0.9375 0.40625
vt 0.9375 0.96875
vt 0.96875 0.96875
vt 0.96875 1
vt 0.9375 1
vt 1 0.96875
vt 1 1
vt 0.9375 0.9375
vt 0.96875 0.9375
vt 1 0.9375
vt 0.9375 0.90625
vt 0.96875 0.90625
vt 1 0.90625
vt 0.9375 0.875
vt 0.96875 0.875
vt 1 0.875
vt 0.84375 0.59375
vt 0.875 0.59375
vt 0.875 0.625
vt 0.84375 0.625
vt 0.90625 0.59375
vt 0.90625 0.625
vt 0.9375 0.59375
vt 0.9375 0.625
vt 0.84375 0.5625
vt 0.875 0.5625
vt 0.90625 0.5625
vt 0.9375 0.5625

# Normal
vn 0 0 -1

# Mesh description
g Forest_Map_mesh_0016

# Faces
f 1/1/1 2/2/1 3/3/1 4/4/1
f 5/2/1 6/5/1 7/6/1 8/3/1
f 9/5/1 10/7/1 11/8/1 12/6/1
f 13/9/1 14/10/1 15/2/1 16/1/1
f 17/10/1 18/11/1 19/5/1 20/2/1
f 21/11/1 22/12/1 23/7/1 24/5/1
f 25/13/1 26/14/1 27/10/1 28/9/1
f 29/14/1 30/15/1 31/11/1 32/10/1
f 33/15/1 34/16/1 35/12/1 36/11/1
f 37/17/1 38/18/1 39/14/1 40/13/1
f 41/18/1 42/19/1 43/15/1 44/14/1
f 45/19/1 46/20/1 47/16/1 48/15/1
f 49/2/1 50/5/1 51/6/1 52/3/1
f 53/10/1 54/11/1 55/5/1 56/2/1
f 57/21/1 58/22/1 59/23/1 60/24/1
f 61/22/1 62/25/1 63/26/1 64/23/1
f 65/27/1 66/28/1 67/22/1 68/21/1
f 69/28/1 70/29/1 71/25/1 72/22/1
f 73/30/1 74/31/1 75/28/1 76/27/1
f 77/31/1 78/32/1 79/29/1 80/28/1
f 81/33/1 82/34/1 83/31/1 84/30/1
f 85/34/1 86/35/1 87/32/1 88/31/1
f 89/1/1 90/2/1 91/3/1 92/4/1
f 93/9/1 94/10/1 95/2/1 96/1/1
f 97/1/1 98/2/1 99/3/1 100/4/1
f 101/2/1 102/5/1 103/6/1 104/3/1
f 105/5/1 106/7/1 107/8/1 108/6/1
f 109/13/1 110/14/1 111/10/1 112/9/1
f 113/9/1 114/10/1 115/2/1 116/1/1
f 117/10/1 118/11/1 119/5/1 120/2/1
f 121/11/1 122/12/1 123/7/1 124/5/1
f 125/21/1 126/22/1 127/23/1 128/24/1
f 129/22/1 130/25/1 131/26/1 132/23/1
f 133/17/1 134/18/1 135/14/1 136/13/1
f 137/13/1 138/14/1 139/10/1 140/9/1
f 141/14/1 142/15/1 143/11/1 144/10/1
f 145/15/1 146/16/1 147/12/1 148/11/1
f 149/27/1 150/28/1 151/22/1 152/21/1
f 153/28/1 154/29/1 155/25/1 156/22/1
f 157/17/1 158/18/1 159/14/1 160/13/1
f 161/18/1 162/19/1 163/15/1 164/14/1
f 165/19/1 166/20/1 167/16/1 168/15/1
f 169/30/1 170/31/1 171/28/1 172/27/1
f 173/31/1 174/32/1 175/29/1 176/28/1
f 177/21/1 178/22/1 179/23/1 180/24/1
f 181/22/1 182/25/1 183/26/1 184/23/1
f 185/33/1 186/34/1 187/31/1 188/30/1
f 189/34/1 190/35/1 191/32/1 192/31/1
f 193/27/1 194/28/1 195/22/1 196/21/1
f 197/28/1 198/29/1 199/25/1 200/22/1
f 201/30/1 202/31/1 203/28/1 204/27/1
f 205/31/1 206/32/1 207/29/1 208/28/1
f 209/33/1 210/34/1 211/31/1 212/30/1
f 213/34/1 214/35/1 215/32/1 216/31/1
f 217/1/1 218/2/1 219/3/1 220/4/1
f 221/2/1 222/5/1 223/6/1 224/3/1
f 225/5/1 226/7/1 227/8/1 228/6/1
f 229/21/1 230/22/1 231/23/1 232/24/1
f 233/22/1 234/25/1 235/26/1 236/23/1
f 237/9/1 238/10/1 239/2/1 240/1/1
f 241/10/1 242/11/1 243/5/1 244/2/1
f 245/11/1 246/12/1 247/7/1 248/5/1
f 249/27/1 250/28/1 251/22/1 252/21/1
f 253/28/1 254/29/1 255/25/1 256/22/1
f 257/13/1 258/14/1 259/10/1 260/9/1
f 261/14/1 262/15/1 263/11/1 264/10/1
f 265/15/1 266/16/1 267/12/1 268/11/1
f 269/30/1 270/31/1 271/28/1 272/27/1
f 273/31/1 274/32/1 275/29/1 276/28/1
f 277/17/1 278/18/1 279/14/1 280/13/1
f 281/18/1 282/19/1 283/15/1 284/14/1
f 285/19/1 286/20/1 287/16/1 288/15/1
f 289/33/1 290/34/1 291/31/1 292/30/1
f 293/34/1 294/35/1 295/32/1 296/31/1
f 297/1/1 298/2/1 299/3/1 300/4/1
f 301/2/1 302/5/1 303/6/1 304/3/1
f 305/5/1 306/7/1 307/8/1 308/6/1
f 309/9/1 310/10/1 311/2/1 312/1/1
f 313/10/1 314/11/1 315/5/1 316/2/1
f 317/11/1 318/12/1 319/7/1 320/5/1
f 321/13/1 322/14/1 323/10/1 324/9/1
f 325/14/1 326/15/1 327/11/1 328/10/1
f 329/15/1 330/16/1 331/12/1 332/11/1
f 333/21/1 334/22/1 335/23/1 336/24/1
f 337/22/1 338/25/1 339/26/1 340/23/1
f 341/1/1 342/2/1 343/3/1 344/4/1
f 345/2/1 346/5/1 347/6/1 348/3/1
f 349/5/1 350/7/1 351/8/1 352/6/1
f 353/19/1 354/20/1 355/16/1 356/15/1
f 357/1/1 358/2/1 359/3/1 360/4/1
f 361/2/1 362/5/1 363/6/1 364/3/1
f 365/5/1 366/7/1 367/8/1 368/6/1
f 369/27/1 370/28/1 371/22/1 372/21/1
f 373/28/1 374/29/1 375/25/1 376/22/1
f 377/9/1 378/10/1 379/2/1 380/1/1
f 381/10/1 382/11/1 383/5/1 384/2/1
f 385/11/1 386/12/1 387/7/1 388/5/1
f 389/1/1 390/2/1 391/3/1 392/4/1
f 393/2/1 394/5/1 395/6/1 396/3/1
f 397/5/1 398/7/1 399/8/1 400/6/1
f 401/9/1 402/10/1 403/2/1 404/1/1
f 405/10/1 406/11/1 407/5/1 408/2/1
f 409/11/1 410/12/1 411/7/1 412/5/1
f 413/30/1 414/31/1 415/28/1 416/27/1
f 417/31/1 418/32/1 419/29/1 420/28/1
f 421/13/1 422/14/1 423/10/1 424/9/1
f 425/14/1 426/15/1 427/11/1 428/10/1
f 429/15/1 430/16/1 431/12/1 432/11/1
f 433/9/1 434/10/1 435/2/1 436/1/1
f 437/10/1 438/11/1 439/5/1 440/2/1
f 441/11/1 442/12/1 443/7/1 444/5/1
f 445/13/1 446/14/1 447/10/1 448/9/1
f 449/14/1 450/15/1 451/11/1 452/10/1
f 453/15/1 454/16/1 455/12/1 456/11/1
f 457/33/1 458/34/1 459/31/1 460/30/1
f 461/34/1 462/35/1 463/32/1 464/31/1
f 465/17/1 466/18/1 467/14/1 468/13/1
f 469/18/1 470/19/1 471/15/1 472/14/1
f 473/19/1 474/20/1 475/16/1 476/15/1
f 477/1/1 478/2/1 479/3/1 480/4/1
f 481/2/1 482/5/1 483/6/1 484/3/1
f 485/5/1 486/7/1 487/8/1 488/6/1
f 489/13/1 490/14/1 491/10/1 492/9/1
f 493/14/1 494/15/1 495/11/1 496/10/1
f 497/15/1 498/16/1 499/12/1 500/11/1
f 501/17/1 502/18/1 503/14/1 504/13/1
f 505/18/1 506/19/1 507/15/1 508/14/1
f 509/19/1 510/20/1 511/16/1 512/15/1
f 513/1/1 514/2/1 515/3/1 516/4/1
f 517/2/1 518/5/1 519/6/1 520/3/1
f 521/5/1 522/7/1 523/8/1 524/6/1
f 525/1/1 526/2/1 527/3/1 528/4/1
f 529/2/1 530/5/1 531/6/1 532/3/1
f 533/5/1 534/7/1 535/8/1 536/6/1
f 537/9/1 538/10/1 539/2/1 540/1/1
f 541/10/1 542/11/1 543/5/1 544/2/1
f 545/11/1 546/12/1 547/7/1 548/5/1
f 549/17/1 550/18/1 551/14/1 552/13/1
f 553/18/1 554/19/1 555/15/1 556/14/1
f 557/19/1 558/20/1 559/16/1 560/15/1
f 561/9/1 562/10/1 563/2/1 564/1/1
f 565/10/1 566/11/1 567/5/1 568/2/1
f 569/11/1 570/12/1 571/7/1 572/5/1
f 573/9/1 574/10/1 575/2/1 576/1/1
f 577/10/1 578/11/1 579/5/1 580/2/1
f 581/11/1 582/12/1 583/7/1 584/5/1
f 585/13/1 586/14/1 587/10/1 588/9/1
f 589/14/1 590/15/1 591/11/1 592/10/1
f 593/15/1 594/16/1 595/12/1 596/11/1
f 597/13/1 598/14/1 599/10/1 600/9/1
f 601/14/1 602/15/1 603/11/1 604/10/1
f 605/15/1 606/16/1 607/12/1 608/11/1
f 609/13/1 610/14/1 611/10/1 612/9/1
f 613/14/1 614/15/1 615/11/1 616/10/1
f 617/15/1 618/16/1 619/12/1 620/11/1
f 621/1/1 622/2/1 623/3/1 624/4/1
f 625/2/1 626/5/1 627/6/1 628/3/1
f 629/5/1 630/7/1 631/8/1 632/6/1
f 633/17/1 634/18/1 635/14/1 636/13/1
f 637/18/1 638/19/1 639/15/1 640/14/1
f 641/19/1 642/20/1 643/16/1 644/15/1
f 645/17/1 646/18/1 647/14/1 648/13/1
f 649/18/1 650/19/1 651/15/1 652/14/1
f 653/19/1 654/20/1 655/16/1 656/15/1
f 657/36/1 658/37/1 659/38/1 660/39/1
f 661/37/1 662/40/1 663/41/1 664/38/1
f 665/40/1 666/42/1 667/43/1 668/41/1
f 669/17/1 670/18/1 671/14/1 672/13/1
f 673/18/1 674/19/1 675/15/1 676/14/1
f 677/19/1 678/20/1 679/16/1 680/15/1
f 681/9/1 682/10/1 683/2/1 684/1/1
f 685/10/1 686/11/1 687/5/1 688/2/1
f 689/11/1 690/12/1 691/7/1 692/5/1
f 693/44/1 694/45/1 695/37/1 696/36/1
f 697/45/1 698/46/1 699/40/1 700/37/1
f 701/46/1 702/47/1 703/42/1 704/40/1
f 705/36/1 706/37/1 707/38/1 708/39/1
f 709/37/1 710/40/1 711/41/1 712/38/1
f 713/40/1 714/42/1 715/43/1 716/41/1
f 717/13/1 718/14/1 719/10/1 720/9/1
f 721/14/1 722/15/1 723/11/1 724/10/1
f 725/15/1 726/16/1 727/12/1 728/11/1
f 729/4/1 730/3/1 731/45/1 732/44/1
f 733/3/1 734/6/1 735/46/1 736/45/1
f 737/6/1 738/8/1 739/47/1 740/46/1
f 741/44/1 742/45/1 743/37/1 744/36/1
f 745/45/1 746/46/1 747/40/1 748/37/1
f 749/46/1 750/47/1 751/42/1 752/40/1
f 753/17/1 754/18/1 755/14/1 756/13/1
f 757/18/1 758/19/1 759/15/1 760/14/1
f 761/19/1 762/20/1 763/16/1 764/15/1
f 765/4/1 766/3/1 767/45/1 768/44/1
f 769/3/1 770/6/1 771/46/1 772/45/1
f 773/6/1 774/8/1 775/47/1 776/46/1
f 777/1/1 778/2/1 779/3/1 780/4/1
f 781/2/1 782/5/1 783/6/1 784/3/1
f 785/5/1 786/7/1 787/8/1 788/6/1
f 789/9/1 790/10/1 791/2/1 792/1/1
f 793/10/1 794/11/1 795/5/1 796/2/1
f 797/11/1 798/12/1 799/7/1 800/5/1
f 801/13/1 802/14/1 803/10/1 804/9/1
f 805/14/1 806/15/1 807/11/1 808/10/1
f 809/15/1 810/16/1 811/12/1 812/11/1
f 813/17/1 814/18/1 815/14/1 816/13/1
f 817/18/1 818/19/1 819/15/1 820/14/1
f 821/19/1 822/20/1 823/16/1 824/15/1

