# Tiled2Unity generated file. Do not modify by hand.
# Wavefront file for 'Ville_mesh_0026.obj'

# Vertices (Count = 8)
v -6 -11 0
v -7 -11 0
v -7 -10 0
v -6 -10 0
v -6 -12 0
v -7 -12 0
v -7 -11 0
v -6 -11 0

# Texture cooridinates (Count = 6)
vt 0.4444444 0.8571429
vt 0.5555556 0.8571429
vt 0.5555556 1
vt 0.4444444 1
vt 0.4444444 0.7142857
vt 0.5555556 0.7142857

# Normal
vn 0 0 -1

# Mesh description
g Ville_mesh_0026

# Faces
f 1/1/1 2/2/1 3/3/1 4/4/1
f 5/5/1 6/6/1 7/2/1 8/1/1

