# Tiled2Unity generated file. Do not modify by hand.
# Wavefront file for 'Ville_mesh_0030.obj'

# Vertices (Count = 560)
v 0 -9 0
v -1 -9 0
v -1 -8 0
v 0 -8 0
v -2 -9 0
v -3 -9 0
v -3 -8 0
v -2 -8 0
v 0 -10 0
v -1 -10 0
v -1 -9 0
v 0 -9 0
v -1 -10 0
v -2 -10 0
v -2 -9 0
v -1 -9 0
v -2 -10 0
v -3 -10 0
v -3 -9 0
v -2 -9 0
v 0 -11 0
v -1 -11 0
v -1 -10 0
v 0 -10 0
v -1 -11 0
v -2 -11 0
v -2 -10 0
v -1 -10 0
v -2 -11 0
v -3 -11 0
v -3 -10 0
v -2 -10 0
v -13 -13 0
v -14 -13 0
v -14 -12 0
v -13 -12 0
v -43 -15 0
v -44 -15 0
v -44 -14 0
v -43 -14 0
v -44 -15 0
v -45 -15 0
v -45 -14 0
v -44 -14 0
v -43 -16 0
v -44 -16 0
v -44 -15 0
v -43 -15 0
v -44 -16 0
v -45 -16 0
v -45 -15 0
v -44 -15 0
v -41 -17 0
v -42 -17 0
v -42 -16 0
v -41 -16 0
v -42 -17 0
v -43 -17 0
v -43 -16 0
v -42 -16 0
v -43 -17 0
v -44 -17 0
v -44 -16 0
v -43 -16 0
v -41 -18 0
v -42 -18 0
v -42 -17 0
v -41 -17 0
v -42 -18 0
v -43 -18 0
v -43 -17 0
v -42 -17 0
v -43 -18 0
v -44 -18 0
v -44 -17 0
v -43 -17 0
v -13 -19 0
v -14 -19 0
v -14 -18 0
v -13 -18 0
v -15 -19 0
v -16 -19 0
v -16 -18 0
v -15 -18 0
v -43 -19 0
v -44 -19 0
v -44 -18 0
v -43 -18 0
v -43 -20 0
v -44 -20 0
v -44 -19 0
v -43 -19 0
v -44 -20 0
v -45 -20 0
v -45 -19 0
v -44 -19 0
v -43 -21 0
v -44 -21 0
v -44 -20 0
v -43 -20 0
v -44 -21 0
v -45 -21 0
v -45 -20 0
v -44 -20 0
v -41 -24 0
v -42 -24 0
v -42 -23 0
v -41 -23 0
v -43 -24 0
v -44 -24 0
v -44 -23 0
v -43 -23 0
v -41 -25 0
v -42 -25 0
v -42 -24 0
v -41 -24 0
v -42 -25 0
v -43 -25 0
v -43 -24 0
v -42 -24 0
v -43 -25 0
v -44 -25 0
v -44 -24 0
v -43 -24 0
v -41 -26 0
v -42 -26 0
v -42 -25 0
v -41 -25 0
v -42 -26 0
v -43 -26 0
v -43 -25 0
v -42 -25 0
v -43 -26 0
v -44 -26 0
v -44 -25 0
v -43 -25 0
v -40 -39 0
v -41 -39 0
v -41 -38 0
v -40 -38 0
v -42 -39 0
v -43 -39 0
v -43 -38 0
v -42 -38 0
v -29 -40 0
v -30 -40 0
v -30 -39 0
v -29 -39 0
v -31 -40 0
v -32 -40 0
v -32 -39 0
v -31 -39 0
v -33 -40 0
v -34 -40 0
v -34 -39 0
v -33 -39 0
v -35 -40 0
v -36 -40 0
v -36 -39 0
v -35 -39 0
v -37 -40 0
v -38 -40 0
v -38 -39 0
v -37 -39 0
v -38 -40 0
v -39 -40 0
v -39 -39 0
v -38 -39 0
v -39 -40 0
v -40 -40 0
v -40 -39 0
v -39 -39 0
v -40 -40 0
v -41 -40 0
v -41 -39 0
v -40 -39 0
v -41 -40 0
v -42 -40 0
v -42 -39 0
v -41 -39 0
v -42 -40 0
v -43 -40 0
v -43 -39 0
v -42 -39 0
v -20 -41 0
v -21 -41 0
v -21 -40 0
v -20 -40 0
v -21 -41 0
v -22 -41 0
v -22 -40 0
v -21 -40 0
v -22 -41 0
v -23 -41 0
v -23 -40 0
v -22 -40 0
v -25 -41 0
v -26 -41 0
v -26 -40 0
v -25 -40 0
v -27 -41 0
v -28 -41 0
v -28 -40 0
v -27 -40 0
v -29 -41 0
v -30 -41 0
v -30 -40 0
v -29 -40 0
v -30 -41 0
v -31 -41 0
v -31 -40 0
v -30 -40 0
v -31 -41 0
v -32 -41 0
v -32 -40 0
v -31 -40 0
v -33 -41 0
v -34 -41 0
v -34 -40 0
v -33 -40 0
v -34 -41 0
v -35 -41 0
v -35 -40 0
v -34 -40 0
v -35 -41 0
v -36 -41 0
v -36 -40 0
v -35 -40 0
v -37 -41 0
v -38 -41 0
v -38 -40 0
v -37 -40 0
v -38 -41 0
v -39 -41 0
v -39 -40 0
v -38 -40 0
v -39 -41 0
v -40 -41 0
v -40 -40 0
v -39 -40 0
v -40 -41 0
v -41 -41 0
v -41 -40 0
v -40 -40 0
v -41 -41 0
v -42 -41 0
v -42 -40 0
v -41 -40 0
v -42 -41 0
v -43 -41 0
v -43 -40 0
v -42 -40 0
v -44 -41 0
v -45 -41 0
v -45 -40 0
v -44 -40 0
v -20 -42 0
v -21 -42 0
v -21 -41 0
v -20 -41 0
v -21 -42 0
v -22 -42 0
v -22 -41 0
v -21 -41 0
v -22 -42 0
v -23 -42 0
v -23 -41 0
v -22 -41 0
v -25 -42 0
v -26 -42 0
v -26 -41 0
v -25 -41 0
v -26 -42 0
v -27 -42 0
v -27 -41 0
v -26 -41 0
v -27 -42 0
v -28 -42 0
v -28 -41 0
v -27 -41 0
v -29 -42 0
v -30 -42 0
v -30 -41 0
v -29 -41 0
v -30 -42 0
v -31 -42 0
v -31 -41 0
v -30 -41 0
v -33 -42 0
v -34 -42 0
v -34 -41 0
v -33 -41 0
v -34 -42 0
v -35 -42 0
v -35 -41 0
v -34 -41 0
v -35 -42 0
v -36 -42 0
v -36 -41 0
v -35 -41 0
v -37 -42 0
v -38 -42 0
v -38 -41 0
v -37 -41 0
v -38 -42 0
v -39 -42 0
v -39 -41 0
v -38 -41 0
v -39 -42 0
v -40 -42 0
v -40 -41 0
v -39 -41 0
v -41 -42 0
v -42 -42 0
v -42 -41 0
v -41 -41 0
v -42 -42 0
v -43 -42 0
v -43 -41 0
v -42 -41 0
v -43 -42 0
v -44 -42 0
v -44 -41 0
v -43 -41 0
v -44 -42 0
v -45 -42 0
v -45 -41 0
v -44 -41 0
v -18 -43 0
v -19 -43 0
v -19 -42 0
v -18 -42 0
v -20 -43 0
v -21 -43 0
v -21 -42 0
v -20 -42 0
v -21 -43 0
v -22 -43 0
v -22 -42 0
v -21 -42 0
v -22 -43 0
v -23 -43 0
v -23 -42 0
v -22 -42 0
v -23 -43 0
v -24 -43 0
v -24 -42 0
v -23 -42 0
v -25 -43 0
v -26 -43 0
v -26 -42 0
v -25 -42 0
v -26 -43 0
v -27 -43 0
v -27 -42 0
v -26 -42 0
v -27 -43 0
v -28 -43 0
v -28 -42 0
v -27 -42 0
v -29 -43 0
v -30 -43 0
v -30 -42 0
v -29 -42 0
v -30 -43 0
v -31 -43 0
v -31 -42 0
v -30 -42 0
v -32 -43 0
v -33 -43 0
v -33 -42 0
v -32 -42 0
v -34 -43 0
v -35 -43 0
v -35 -42 0
v -34 -42 0
v -36 -43 0
v -37 -43 0
v -37 -42 0
v -36 -42 0
v -39 -43 0
v -40 -43 0
v -40 -42 0
v -39 -42 0
v -40 -43 0
v -41 -43 0
v -41 -42 0
v -40 -42 0
v -41 -43 0
v -42 -43 0
v -42 -42 0
v -41 -42 0
v -42 -43 0
v -43 -43 0
v -43 -42 0
v -42 -42 0
v -43 -43 0
v -44 -43 0
v -44 -42 0
v -43 -42 0
v -44 -43 0
v -45 -43 0
v -45 -42 0
v -44 -42 0
v -18 -44 0
v -19 -44 0
v -19 -43 0
v -18 -43 0
v -19 -44 0
v -20 -44 0
v -20 -43 0
v -19 -43 0
v -20 -44 0
v -21 -44 0
v -21 -43 0
v -20 -43 0
v -23 -44 0
v -24 -44 0
v -24 -43 0
v -23 -43 0
v -24 -44 0
v -25 -44 0
v -25 -43 0
v -24 -43 0
v -25 -44 0
v -26 -44 0
v -26 -43 0
v -25 -43 0
v -27 -44 0
v -28 -44 0
v -28 -43 0
v -27 -43 0
v -28 -44 0
v -29 -44 0
v -29 -43 0
v -28 -43 0
v -29 -44 0
v -30 -44 0
v -30 -43 0
v -29 -43 0
v -30 -44 0
v -31 -44 0
v -31 -43 0
v -30 -43 0
v -31 -44 0
v -32 -44 0
v -32 -43 0
v -31 -43 0
v -32 -44 0
v -33 -44 0
v -33 -43 0
v -32 -43 0
v -34 -44 0
v -35 -44 0
v -35 -43 0
v -34 -43 0
v -35 -44 0
v -36 -44 0
v -36 -43 0
v -35 -43 0
v -36 -44 0
v -37 -44 0
v -37 -43 0
v -36 -43 0
v -39 -44 0
v -40 -44 0
v -40 -43 0
v -39 -43 0
v -40 -44 0
v -41 -44 0
v -41 -43 0
v -40 -43 0
v -41 -44 0
v -42 -44 0
v -42 -43 0
v -41 -43 0
v -42 -44 0
v -43 -44 0
v -43 -43 0
v -42 -43 0
v -43 -44 0
v -44 -44 0
v -44 -43 0
v -43 -43 0
v -44 -44 0
v -45 -44 0
v -45 -43 0
v -44 -43 0
v -18 -45 0
v -19 -45 0
v -19 -44 0
v -18 -44 0
v -19 -45 0
v -20 -45 0
v -20 -44 0
v -19 -44 0
v -20 -45 0
v -21 -45 0
v -21 -44 0
v -20 -44 0
v -23 -45 0
v -24 -45 0
v -24 -44 0
v -23 -44 0
v -24 -45 0
v -25 -45 0
v -25 -44 0
v -24 -44 0
v -25 -45 0
v -26 -45 0
v -26 -44 0
v -25 -44 0
v -27 -45 0
v -28 -45 0
v -28 -44 0
v -27 -44 0
v -28 -45 0
v -29 -45 0
v -29 -44 0
v -28 -44 0
v -29 -45 0
v -30 -45 0
v -30 -44 0
v -29 -44 0
v -30 -45 0
v -31 -45 0
v -31 -44 0
v -30 -44 0
v -31 -45 0
v -32 -45 0
v -32 -44 0
v -31 -44 0
v -32 -45 0
v -33 -45 0
v -33 -44 0
v -32 -44 0
v -34 -45 0
v -35 -45 0
v -35 -44 0
v -34 -44 0
v -35 -45 0
v -36 -45 0
v -36 -44 0
v -35 -44 0
v -36 -45 0
v -37 -45 0
v -37 -44 0
v -36 -44 0
v -42 -45 0
v -43 -45 0
v -43 -44 0
v -42 -44 0
v -43 -45 0
v -44 -45 0
v -44 -44 0
v -43 -44 0
v -44 -45 0
v -45 -45 0
v -45 -44 0
v -44 -44 0

# Texture cooridinates (Count = 28)
vt 0 0.6666666
vt 0.1666667 0.6666666
vt 0.1666667 1
vt 0 1
vt 0.3333333 0.6666666
vt 0.5 0.6666666
vt 0.5 1
vt 0.3333333 1
vt 0 0.3333333
vt 0.1666667 0.3333333
vt 0.3333333 0.3333333
vt 0.5 0.3333333
vt 0 0
vt 0.1666667 0
vt 0.3333333 0
vt 0.5 0
vt 0.6666667 0.3333333
vt 0.6666667 0.6666666
vt 0.8333333 0.3333333
vt 0.8333333 0.6666666
vt 0.6666667 0
vt 0.8333333 0
vt 1 0.3333333
vt 1 0.6666666
vt 1 0
vt 0.6666667 1
vt 1 1
vt 0.8333333 1

# Normal
vn 0 0 -1

# Mesh description
g Ville_mesh_0030

# Faces
f 1/1/1 2/2/1 3/3/1 4/4/1
f 5/5/1 6/6/1 7/7/1 8/8/1
f 9/9/1 10/10/1 11/2/1 12/1/1
f 13/10/1 14/11/1 15/5/1 16/2/1
f 17/11/1 18/12/1 19/6/1 20/5/1
f 21/13/1 22/14/1 23/10/1 24/9/1
f 25/14/1 26/15/1 27/11/1 28/10/1
f 29/15/1 30/16/1 31/12/1 32/11/1
f 33/1/1 34/2/1 35/3/1 36/4/1
f 37/12/1 38/17/1 39/18/1 40/6/1
f 41/17/1 42/19/1 43/20/1 44/18/1
f 45/16/1 46/21/1 47/17/1 48/12/1
f 49/21/1 50/22/1 51/19/1 52/17/1
f 53/12/1 54/17/1 55/18/1 56/6/1
f 57/17/1 58/19/1 59/20/1 60/18/1
f 61/19/1 62/23/1 63/24/1 64/20/1
f 65/16/1 66/21/1 67/17/1 68/12/1
f 69/21/1 70/22/1 71/19/1 72/17/1
f 73/22/1 74/25/1 75/23/1 76/19/1
f 77/1/1 78/2/1 79/3/1 80/4/1
f 81/5/1 82/6/1 83/7/1 84/8/1
f 85/6/1 86/18/1 87/26/1 88/7/1
f 89/12/1 90/17/1 91/18/1 92/6/1
f 93/17/1 94/19/1 95/20/1 96/18/1
f 97/16/1 98/21/1 99/17/1 100/12/1
f 101/21/1 102/22/1 103/19/1 104/17/1
f 105/1/1 106/2/1 107/3/1 108/4/1
f 109/5/1 110/6/1 111/7/1 112/8/1
f 113/9/1 114/10/1 115/2/1 116/1/1
f 117/10/1 118/11/1 119/5/1 120/2/1
f 121/11/1 122/12/1 123/6/1 124/5/1
f 125/13/1 126/14/1 127/10/1 128/9/1
f 129/14/1 130/15/1 131/11/1 132/10/1
f 133/15/1 134/16/1 135/12/1 136/11/1
f 137/6/1 138/18/1 139/26/1 140/7/1
f 141/20/1 142/24/1 143/27/1 144/28/1
f 145/1/1 146/2/1 147/3/1 148/4/1
f 149/5/1 150/6/1 151/7/1 152/8/1
f 153/6/1 154/18/1 155/26/1 156/7/1
f 157/20/1 158/24/1 159/27/1 160/28/1
f 161/1/1 162/2/1 163/3/1 164/4/1
f 165/2/1 166/5/1 167/8/1 168/3/1
f 169/5/1 170/6/1 171/7/1 172/8/1
f 173/12/1 174/17/1 175/18/1 176/6/1
f 177/17/1 178/19/1 179/20/1 180/18/1
f 181/19/1 182/23/1 183/24/1 184/20/1
f 185/6/1 186/18/1 187/26/1 188/7/1
f 189/18/1 190/20/1 191/28/1 192/26/1
f 193/20/1 194/24/1 195/27/1 196/28/1
f 197/1/1 198/2/1 199/3/1 200/4/1
f 201/5/1 202/6/1 203/7/1 204/8/1
f 205/9/1 206/10/1 207/2/1 208/1/1
f 209/10/1 210/11/1 211/5/1 212/2/1
f 213/11/1 214/12/1 215/6/1 216/5/1
f 217/12/1 218/17/1 219/18/1 220/6/1
f 221/17/1 222/19/1 223/20/1 224/18/1
f 225/19/1 226/23/1 227/24/1 228/20/1
f 229/9/1 230/10/1 231/2/1 232/1/1
f 233/10/1 234/11/1 235/5/1 236/2/1
f 237/11/1 238/12/1 239/6/1 240/5/1
f 241/16/1 242/21/1 243/17/1 244/12/1
f 245/21/1 246/22/1 247/19/1 248/17/1
f 249/22/1 250/25/1 251/23/1 252/19/1
f 253/20/1 254/24/1 255/27/1 256/28/1
f 257/12/1 258/17/1 259/18/1 260/6/1
f 261/17/1 262/19/1 263/20/1 264/18/1
f 265/19/1 266/23/1 267/24/1 268/20/1
f 269/9/1 270/10/1 271/2/1 272/1/1
f 273/10/1 274/11/1 275/5/1 276/2/1
f 277/11/1 278/12/1 279/6/1 280/5/1
f 281/13/1 282/14/1 283/10/1 284/9/1
f 285/14/1 286/15/1 287/11/1 288/10/1
f 289/16/1 290/21/1 291/17/1 292/12/1
f 293/21/1 294/22/1 295/19/1 296/17/1
f 297/22/1 298/25/1 299/23/1 300/19/1
f 301/13/1 302/14/1 303/10/1 304/9/1
f 305/14/1 306/15/1 307/11/1 308/10/1
f 309/15/1 310/16/1 311/12/1 312/11/1
f 313/20/1 314/24/1 315/27/1 316/28/1
f 317/12/1 318/17/1 319/18/1 320/6/1
f 321/17/1 322/19/1 323/20/1 324/18/1
f 325/19/1 326/23/1 327/24/1 328/20/1
f 329/1/1 330/2/1 331/3/1 332/4/1
f 333/5/1 334/6/1 335/7/1 336/8/1
f 337/21/1 338/22/1 339/19/1 340/17/1
f 341/22/1 342/25/1 343/23/1 344/19/1
f 345/6/1 346/18/1 347/26/1 348/7/1
f 349/13/1 350/14/1 351/10/1 352/9/1
f 353/14/1 354/15/1 355/11/1 356/10/1
f 357/6/1 358/18/1 359/26/1 360/7/1
f 361/20/1 362/24/1 363/27/1 364/28/1
f 365/6/1 366/18/1 367/26/1 368/7/1
f 369/20/1 370/24/1 371/27/1 372/28/1
f 373/1/1 374/2/1 375/3/1 376/4/1
f 377/5/1 378/6/1 379/7/1 380/8/1
f 381/12/1 382/17/1 383/18/1 384/6/1
f 385/17/1 386/19/1 387/20/1 388/18/1
f 389/19/1 390/23/1 391/24/1 392/20/1
f 393/16/1 394/21/1 395/17/1 396/12/1
f 397/21/1 398/22/1 399/19/1 400/17/1
f 401/22/1 402/25/1 403/23/1 404/19/1
f 405/9/1 406/10/1 407/2/1 408/1/1
f 409/10/1 410/11/1 411/5/1 412/2/1
f 413/11/1 414/12/1 415/6/1 416/5/1
f 417/12/1 418/17/1 419/18/1 420/6/1
f 421/17/1 422/19/1 423/20/1 424/18/1
f 425/19/1 426/23/1 427/24/1 428/20/1
f 429/12/1 430/17/1 431/18/1 432/6/1
f 433/17/1 434/19/1 435/20/1 436/18/1
f 437/19/1 438/23/1 439/24/1 440/20/1
f 441/12/1 442/17/1 443/18/1 444/6/1
f 445/17/1 446/19/1 447/20/1 448/18/1
f 449/19/1 450/23/1 451/24/1 452/20/1
f 453/9/1 454/10/1 455/2/1 456/1/1
f 457/10/1 458/11/1 459/5/1 460/2/1
f 461/11/1 462/12/1 463/6/1 464/5/1
f 465/16/1 466/21/1 467/17/1 468/12/1
f 469/21/1 470/22/1 471/19/1 472/17/1
f 473/22/1 474/25/1 475/23/1 476/19/1
f 477/6/1 478/18/1 479/26/1 480/7/1
f 481/18/1 482/20/1 483/28/1 484/26/1
f 485/20/1 486/24/1 487/27/1 488/28/1
f 489/13/1 490/14/1 491/10/1 492/9/1
f 493/14/1 494/15/1 495/11/1 496/10/1
f 497/15/1 498/16/1 499/12/1 500/11/1
f 501/16/1 502/21/1 503/17/1 504/12/1
f 505/21/1 506/22/1 507/19/1 508/17/1
f 509/22/1 510/25/1 511/23/1 512/19/1
f 513/16/1 514/21/1 515/17/1 516/12/1
f 517/21/1 518/22/1 519/19/1 520/17/1
f 521/22/1 522/25/1 523/23/1 524/19/1
f 525/16/1 526/21/1 527/17/1 528/12/1
f 529/21/1 530/22/1 531/19/1 532/17/1
f 533/22/1 534/25/1 535/23/1 536/19/1
f 537/13/1 538/14/1 539/10/1 540/9/1
f 541/14/1 542/15/1 543/11/1 544/10/1
f 545/15/1 546/16/1 547/12/1 548/11/1
f 549/12/1 550/17/1 551/18/1 552/6/1
f 553/17/1 554/19/1 555/20/1 556/18/1
f 557/19/1 558/23/1 559/24/1 560/20/1

