# Tiled2Unity generated file. Do not modify by hand.
# Wavefront file for 'Ville_mesh_0002.obj'

# Vertices (Count = 92)
v -1 -3 0
v -2 -3 0
v -2 -2 0
v -1 -2 0
v -1 -5 0
v -2 -5 0
v -2 -4 0
v -1 -4 0
v -11 -27 0
v -12 -27 0
v -12 -26 0
v -11 -26 0
v -7 -28 0
v -8 -28 0
v -8 -27 0
v -7 -27 0
v -8 -29 0
v -9 -29 0
v -9 -28 0
v -8 -28 0
v -9 -29 0
v -10 -29 0
v -10 -28 0
v -9 -28 0
v -8 -30 0
v -9 -30 0
v -9 -29 0
v -8 -29 0
v -31 -41 0
v -32 -41 0
v -32 -40 0
v -31 -40 0
v -32 -41 0
v -33 -41 0
v -33 -40 0
v -32 -40 0
v -17 -42 0
v -18 -42 0
v -18 -41 0
v -17 -41 0
v -18 -42 0
v -19 -42 0
v -19 -41 0
v -18 -41 0
v -31 -42 0
v -32 -42 0
v -32 -41 0
v -31 -41 0
v -18 -43 0
v -19 -43 0
v -19 -42 0
v -18 -42 0
v -19 -43 0
v -20 -43 0
v -20 -42 0
v -19 -42 0
v -30 -43 0
v -31 -43 0
v -31 -42 0
v -30 -42 0
v -31 -43 0
v -32 -43 0
v -32 -42 0
v -31 -42 0
v -36 -43 0
v -37 -43 0
v -37 -42 0
v -36 -42 0
v -37 -43 0
v -38 -43 0
v -38 -42 0
v -37 -42 0
v -19 -44 0
v -20 -44 0
v -20 -43 0
v -19 -43 0
v -37 -44 0
v -38 -44 0
v -38 -43 0
v -37 -43 0
v -38 -44 0
v -39 -44 0
v -39 -43 0
v -38 -43 0
v -39 -44 0
v -40 -44 0
v -40 -43 0
v -39 -43 0
v -40 -44 0
v -41 -44 0
v -41 -43 0
v -40 -43 0

# Texture cooridinates (Count = 8)
vt 0.6666667 0
vt 1 0
vt 1 0.1666667
vt 0.6666667 0.1666667
vt 0 0
vt 0.3333333 0
vt 0.3333333 0.1666667
vt 0 0.1666667

# Normal
vn 0 0 -1

# Mesh description
g Ville_mesh_0002

# Faces
f 1/1/1 2/2/1 3/3/1 4/4/1
f 5/5/1 6/6/1 7/7/1 8/8/1
f 9/5/1 10/6/1 11/7/1 12/8/1
f 13/5/1 14/6/1 15/7/1 16/8/1
f 17/5/1 18/6/1 19/7/1 20/8/1
f 21/6/1 22/1/1 23/4/1 24/7/1
f 25/5/1 26/6/1 27/7/1 28/8/1
f 29/1/1 30/2/1 31/3/1 32/4/1
f 33/1/1 34/2/1 35/3/1 36/4/1
f 37/1/1 38/2/1 39/3/1 40/4/1
f 41/6/1 42/1/1 43/4/1 44/7/1
f 45/5/1 46/6/1 47/7/1 48/8/1
f 49/6/1 50/1/1 51/4/1 52/7/1
f 53/1/1 54/2/1 55/3/1 56/4/1
f 57/1/1 58/2/1 59/3/1 60/4/1
f 61/6/1 62/1/1 63/4/1 64/7/1
f 65/1/1 66/2/1 67/3/1 68/4/1
f 69/1/1 70/2/1 71/3/1 72/4/1
f 73/6/1 74/1/1 75/4/1 76/7/1
f 77/1/1 78/2/1 79/3/1 80/4/1
f 81/1/1 82/2/1 83/3/1 84/4/1
f 85/6/1 86/1/1 87/4/1 88/7/1
f 89/6/1 90/1/1 91/4/1 92/7/1

