# Tiled2Unity generated file. Do not modify by hand.
# Wavefront file for 'Ville_mesh_0019.obj'

# Vertices (Count = 76)
v -35 -9 0
v -36 -9 0
v -36 -8 0
v -35 -8 0
v -36 -9 0
v -37 -9 0
v -37 -8 0
v -36 -8 0
v -37 -9 0
v -38 -9 0
v -38 -8 0
v -37 -8 0
v -38 -9 0
v -39 -9 0
v -39 -8 0
v -38 -8 0
v -35 -10 0
v -36 -10 0
v -36 -9 0
v -35 -9 0
v -36 -10 0
v -37 -10 0
v -37 -9 0
v -36 -9 0
v -37 -10 0
v -38 -10 0
v -38 -9 0
v -37 -9 0
v -38 -10 0
v -39 -10 0
v -39 -9 0
v -38 -9 0
v -35 -11 0
v -36 -11 0
v -36 -10 0
v -35 -10 0
v -36 -11 0
v -37 -11 0
v -37 -10 0
v -36 -10 0
v -37 -11 0
v -38 -11 0
v -38 -10 0
v -37 -10 0
v -38 -11 0
v -39 -11 0
v -39 -10 0
v -38 -10 0
v -19 -21 0
v -20 -21 0
v -20 -20 0
v -19 -20 0
v -20 -21 0
v -21 -21 0
v -21 -20 0
v -20 -20 0
v -25 -24 0
v -26 -24 0
v -26 -23 0
v -25 -23 0
v -25 -25 0
v -26 -25 0
v -26 -24 0
v -25 -24 0
v -18 -28 0
v -19 -28 0
v -19 -27 0
v -18 -27 0
v -19 -28 0
v -20 -28 0
v -20 -27 0
v -19 -27 0
v -20 -28 0
v -21 -28 0
v -21 -27 0
v -20 -27 0

# Texture cooridinates (Count = 30)
vt 0.3 0.8
vt 0.35 0.8
vt 0.35 0.85
vt 0.3 0.85
vt 0.4 0.8
vt 0.4 0.85
vt 0.3 0.75
vt 0.35 0.75
vt 0.4 0.75
vt 0.3 0.7
vt 0.35 0.7
vt 0.4 0.7
vt 0.05 0.25
vt 0.1 0.25
vt 0.1 0.3
vt 0.05 0.3
vt 0.15 0.25
vt 0.15 0.3
vt 0.65 0.45
vt 0.7 0.45
vt 0.7 0.5
vt 0.65 0.5
vt 0.65 0.4
vt 0.7 0.4
vt 0.4 0.9
vt 0.35 0.9
vt 0.45 0.85
vt 0.45 0.9
vt 0.4 0.95
vt 0.35 0.95

# Normal
vn 0 0 -1

# Mesh description
g Ville_mesh_0019

# Faces
f 1/1/1 2/2/1 3/3/1 4/4/1
f 5/2/1 6/5/1 7/6/1 8/3/1
f 9/1/1 10/2/1 11/3/1 12/4/1
f 13/2/1 14/5/1 15/6/1 16/3/1
f 17/7/1 18/8/1 19/2/1 20/1/1
f 21/8/1 22/9/1 23/5/1 24/2/1
f 25/7/1 26/8/1 27/2/1 28/1/1
f 29/8/1 30/9/1 31/5/1 32/2/1
f 33/10/1 34/11/1 35/8/1 36/7/1
f 37/11/1 38/12/1 39/9/1 40/8/1
f 41/10/1 42/11/1 43/8/1 44/7/1
f 45/11/1 46/12/1 47/9/1 48/8/1
f 49/13/1 50/14/1 51/15/1 52/16/1
f 53/14/1 54/17/1 55/18/1 56/15/1
f 57/19/1 58/20/1 59/21/1 60/22/1
f 61/23/1 62/24/1 63/20/1 64/19/1
f 65/3/1 66/6/1 67/25/1 68/26/1
f 69/6/1 70/27/1 71/28/1 72/25/1
f 73/26/1 74/25/1 75/29/1 76/30/1

