# Tiled2Unity generated file. Do not modify by hand.
# Wavefront file for 'Ville_mesh_0053.obj'

# Vertices (Count = 12)
v -34 -1 0
v -35 -1 0
v -35 0 0
v -34 0 0
v -34 -2 0
v -35 -2 0
v -35 -1 0
v -34 -1 0
v -34 -3 0
v -35 -3 0
v -35 -2 0
v -34 -2 0

# Texture cooridinates (Count = 6)
vt 0 0.3333333
vt 0.3333333 0.3333333
vt 0.3333333 0.5
vt 0 0.5
vt 0 0.1666667
vt 0.3333333 0.1666667

# Normal
vn 0 0 -1

# Mesh description
g Ville_mesh_0053

# Faces
f 1/1/1 2/2/1 3/3/1 4/4/1
f 5/1/1 6/2/1 7/3/1 8/4/1
f 9/5/1 10/6/1 11/2/1 12/1/1

