# Tiled2Unity generated file. Do not modify by hand.
# Wavefront file for 'Ville_mesh_0049.obj'

# Vertices (Count = 16)
v -8 -3 0
v -9 -3 0
v -9 -2 0
v -8 -2 0
v -8 -4 0
v -9 -4 0
v -9 -3 0
v -8 -3 0
v -30 -18 0
v -31 -18 0
v -31 -17 0
v -30 -17 0
v -30 -19 0
v -31 -19 0
v -31 -18 0
v -30 -18 0

# Texture cooridinates (Count = 6)
vt 0.6666667 0.8571429
vt 0.7777778 0.8571429
vt 0.7777778 1
vt 0.6666667 1
vt 0.6666667 0.7142857
vt 0.7777778 0.7142857

# Normal
vn 0 0 -1

# Mesh description
g Ville_mesh_0049

# Faces
f 1/1/1 2/2/1 3/3/1 4/4/1
f 5/5/1 6/6/1 7/2/1 8/1/1
f 9/1/1 10/2/1 11/3/1 12/4/1
f 13/5/1 14/6/1 15/2/1 16/1/1

