# Tiled2Unity generated file. Do not modify by hand.
# Wavefront file for 'Ville_mesh_0048.obj'

# Vertices (Count = 92)
v -29 -5 0
v -30 -5 0
v -30 -4 0
v -29 -4 0
v -30 -5 0
v -31 -5 0
v -31 -4 0
v -30 -4 0
v -31 -5 0
v -32 -5 0
v -32 -4 0
v -31 -4 0
v -32 -5 0
v -33 -5 0
v -33 -4 0
v -32 -4 0
v -33 -5 0
v -34 -5 0
v -34 -4 0
v -33 -4 0
v -29 -6 0
v -30 -6 0
v -30 -5 0
v -29 -5 0
v -30 -6 0
v -31 -6 0
v -31 -5 0
v -30 -5 0
v -31 -6 0
v -32 -6 0
v -32 -5 0
v -31 -5 0
v -32 -6 0
v -33 -6 0
v -33 -5 0
v -32 -5 0
v -33 -6 0
v -34 -6 0
v -34 -5 0
v -33 -5 0
v -29 -7 0
v -30 -7 0
v -30 -6 0
v -29 -6 0
v -30 -7 0
v -31 -7 0
v -31 -6 0
v -30 -6 0
v -31 -7 0
v -32 -7 0
v -32 -6 0
v -31 -6 0
v -32 -7 0
v -33 -7 0
v -33 -6 0
v -32 -6 0
v -33 -7 0
v -34 -7 0
v -34 -6 0
v -33 -6 0
v -30 -8 0
v -31 -8 0
v -31 -7 0
v -30 -7 0
v -32 -8 0
v -33 -8 0
v -33 -7 0
v -32 -7 0
v -30 -9 0
v -31 -9 0
v -31 -8 0
v -30 -8 0
v -32 -9 0
v -33 -9 0
v -33 -8 0
v -32 -8 0
v -30 -10 0
v -31 -10 0
v -31 -9 0
v -30 -9 0
v -32 -10 0
v -33 -10 0
v -33 -9 0
v -32 -9 0
v -32 -25 0
v -33 -25 0
v -33 -24 0
v -32 -24 0
v -35 -25 0
v -36 -25 0
v -36 -24 0
v -35 -24 0

# Texture cooridinates (Count = 43)
vt 0 0.8125
vt 0.03125 0.8125
vt 0.03125 0.84375
vt 0 0.84375
vt 0.09375 0.78125
vt 0.125 0.78125
vt 0.125 0.8125
vt 0.09375 0.8125
vt 0.15625 0.78125
vt 0.15625 0.8125
vt 0.1875 0.78125
vt 0.1875 0.8125
vt 0.0625 0.8125
vt 0.09375 0.84375
vt 0.0625 0.84375
vt 0 0.78125
vt 0.03125 0.78125
vt 0.09375 0.75
vt 0.125 0.75
vt 0.15625 0.75
vt 0.1875 0.75
vt 0.0625 0.78125
vt 0 0.75
vt 0.03125 0.75
vt 0.0625 0.75
vt 0.0625 0.96875
vt 0.09375 0.96875
vt 0.09375 1
vt 0.0625 1
vt 0.0625 0.9375
vt 0.09375 0.9375
vt 0.53125 0.34375
vt 0.5625 0.34375
vt 0.5625 0.375
vt 0.53125 0.375
vt 0.59375 0.34375
vt 0.59375 0.375
vt 0.65625 0.34375
vt 0.6875 0.34375
vt 0.6875 0.375
vt 0.65625 0.375
vt 0.6875 0.40625
vt 0.65625 0.40625

# Normal
vn 0 0 -1

# Mesh description
g Ville_mesh_0048

# Faces
f 1/1/1 2/2/1 3/3/1 4/4/1
f 5/5/1 6/6/1 7/7/1 8/8/1
f 9/6/1 10/9/1 11/10/1 12/7/1
f 13/9/1 14/11/1 15/12/1 16/10/1
f 17/13/1 18/8/1 19/14/1 20/15/1
f 21/16/1 22/17/1 23/2/1 24/1/1
f 25/18/1 26/19/1 27/6/1 28/5/1
f 29/19/1 30/20/1 31/9/1 32/6/1
f 33/20/1 34/21/1 35/11/1 36/9/1
f 37/22/1 38/5/1 39/8/1 40/13/1
f 41/23/1 42/24/1 43/17/1 44/16/1
f 45/24/1 46/25/1 47/22/1 48/17/1
f 49/24/1 50/25/1 51/22/1 52/17/1
f 53/24/1 54/25/1 55/22/1 56/17/1
f 57/25/1 58/18/1 59/5/1 60/22/1
f 61/26/1 62/27/1 63/28/1 64/29/1
f 65/26/1 66/27/1 67/28/1 68/29/1
f 69/30/1 70/31/1 71/27/1 72/26/1
f 73/30/1 74/31/1 75/27/1 76/26/1
f 77/32/1 78/33/1 79/34/1 80/35/1
f 81/33/1 82/36/1 83/37/1 84/34/1
f 85/38/1 86/39/1 87/40/1 88/41/1
f 89/41/1 90/40/1 91/42/1 92/43/1

