# Tiled2Unity generated file. Do not modify by hand.
# Wavefront file for 'Ville_mesh_0004.obj'

# Vertices (Count = 684)
v 0 -29 0
v -1 -29 0
v -1 -28 0
v 0 -28 0
v -1 -29 0
v -2 -29 0
v -2 -28 0
v -1 -28 0
v 0 -30 0
v -1 -30 0
v -1 -29 0
v 0 -29 0
v -1 -30 0
v -2 -30 0
v -2 -29 0
v -1 -29 0
v 0 -31 0
v -1 -31 0
v -1 -30 0
v 0 -30 0
v -1 -31 0
v -2 -31 0
v -2 -30 0
v -1 -30 0
v -2 -31 0
v -3 -31 0
v -3 -30 0
v -2 -30 0
v -3 -31 0
v -4 -31 0
v -4 -30 0
v -3 -30 0
v -4 -31 0
v -5 -31 0
v -5 -30 0
v -4 -30 0
v 0 -32 0
v -1 -32 0
v -1 -31 0
v 0 -31 0
v -1 -32 0
v -2 -32 0
v -2 -31 0
v -1 -31 0
v -2 -32 0
v -3 -32 0
v -3 -31 0
v -2 -31 0
v -3 -32 0
v -4 -32 0
v -4 -31 0
v -3 -31 0
v -4 -32 0
v -5 -32 0
v -5 -31 0
v -4 -31 0
v 0 -33 0
v -1 -33 0
v -1 -32 0
v 0 -32 0
v -1 -33 0
v -2 -33 0
v -2 -32 0
v -1 -32 0
v -2 -33 0
v -3 -33 0
v -3 -32 0
v -2 -32 0
v -3 -33 0
v -4 -33 0
v -4 -32 0
v -3 -32 0
v -4 -33 0
v -5 -33 0
v -5 -32 0
v -4 -32 0
v -5 -33 0
v -6 -33 0
v -6 -32 0
v -5 -32 0
v 0 -34 0
v -1 -34 0
v -1 -33 0
v 0 -33 0
v -1 -34 0
v -2 -34 0
v -2 -33 0
v -1 -33 0
v -2 -34 0
v -3 -34 0
v -3 -33 0
v -2 -33 0
v -3 -34 0
v -4 -34 0
v -4 -33 0
v -3 -33 0
v -4 -34 0
v -5 -34 0
v -5 -33 0
v -4 -33 0
v -5 -34 0
v -6 -34 0
v -6 -33 0
v -5 -33 0
v -6 -34 0
v -7 -34 0
v -7 -33 0
v -6 -33 0
v 0 -35 0
v -1 -35 0
v -1 -34 0
v 0 -34 0
v -1 -35 0
v -2 -35 0
v -2 -34 0
v -1 -34 0
v -2 -35 0
v -3 -35 0
v -3 -34 0
v -2 -34 0
v -3 -35 0
v -4 -35 0
v -4 -34 0
v -3 -34 0
v -4 -35 0
v -5 -35 0
v -5 -34 0
v -4 -34 0
v -5 -35 0
v -6 -35 0
v -6 -34 0
v -5 -34 0
v -6 -35 0
v -7 -35 0
v -7 -34 0
v -6 -34 0
v -7 -35 0
v -8 -35 0
v -8 -34 0
v -7 -34 0
v 0 -36 0
v -1 -36 0
v -1 -35 0
v 0 -35 0
v -1 -36 0
v -2 -36 0
v -2 -35 0
v -1 -35 0
v -2 -36 0
v -3 -36 0
v -3 -35 0
v -2 -35 0
v -3 -36 0
v -4 -36 0
v -4 -35 0
v -3 -35 0
v -4 -36 0
v -5 -36 0
v -5 -35 0
v -4 -35 0
v -5 -36 0
v -6 -36 0
v -6 -35 0
v -5 -35 0
v -6 -36 0
v -7 -36 0
v -7 -35 0
v -6 -35 0
v -7 -36 0
v -8 -36 0
v -8 -35 0
v -7 -35 0
v -8 -36 0
v -9 -36 0
v -9 -35 0
v -8 -35 0
v 0 -37 0
v -1 -37 0
v -1 -36 0
v 0 -36 0
v -1 -37 0
v -2 -37 0
v -2 -36 0
v -1 -36 0
v -2 -37 0
v -3 -37 0
v -3 -36 0
v -2 -36 0
v -3 -37 0
v -4 -37 0
v -4 -36 0
v -3 -36 0
v -4 -37 0
v -5 -37 0
v -5 -36 0
v -4 -36 0
v -5 -37 0
v -6 -37 0
v -6 -36 0
v -5 -36 0
v -6 -37 0
v -7 -37 0
v -7 -36 0
v -6 -36 0
v -7 -37 0
v -8 -37 0
v -8 -36 0
v -7 -36 0
v -8 -37 0
v -9 -37 0
v -9 -36 0
v -8 -36 0
v 0 -38 0
v -1 -38 0
v -1 -37 0
v 0 -37 0
v -1 -38 0
v -2 -38 0
v -2 -37 0
v -1 -37 0
v -2 -38 0
v -3 -38 0
v -3 -37 0
v -2 -37 0
v -3 -38 0
v -4 -38 0
v -4 -37 0
v -3 -37 0
v -4 -38 0
v -5 -38 0
v -5 -37 0
v -4 -37 0
v -5 -38 0
v -6 -38 0
v -6 -37 0
v -5 -37 0
v -6 -38 0
v -7 -38 0
v -7 -37 0
v -6 -37 0
v -7 -38 0
v -8 -38 0
v -8 -37 0
v -7 -37 0
v -8 -38 0
v -9 -38 0
v -9 -37 0
v -8 -37 0
v -9 -38 0
v -10 -38 0
v -10 -37 0
v -9 -37 0
v 0 -39 0
v -1 -39 0
v -1 -38 0
v 0 -38 0
v -1 -39 0
v -2 -39 0
v -2 -38 0
v -1 -38 0
v -2 -39 0
v -3 -39 0
v -3 -38 0
v -2 -38 0
v -3 -39 0
v -4 -39 0
v -4 -38 0
v -3 -38 0
v -4 -39 0
v -5 -39 0
v -5 -38 0
v -4 -38 0
v -5 -39 0
v -6 -39 0
v -6 -38 0
v -5 -38 0
v -6 -39 0
v -7 -39 0
v -7 -38 0
v -6 -38 0
v -7 -39 0
v -8 -39 0
v -8 -38 0
v -7 -38 0
v -8 -39 0
v -9 -39 0
v -9 -38 0
v -8 -38 0
v -9 -39 0
v -10 -39 0
v -10 -38 0
v -9 -38 0
v -10 -39 0
v -11 -39 0
v -11 -38 0
v -10 -38 0
v 0 -40 0
v -1 -40 0
v -1 -39 0
v 0 -39 0
v -1 -40 0
v -2 -40 0
v -2 -39 0
v -1 -39 0
v -2 -40 0
v -3 -40 0
v -3 -39 0
v -2 -39 0
v -3 -40 0
v -4 -40 0
v -4 -39 0
v -3 -39 0
v -4 -40 0
v -5 -40 0
v -5 -39 0
v -4 -39 0
v -5 -40 0
v -6 -40 0
v -6 -39 0
v -5 -39 0
v -6 -40 0
v -7 -40 0
v -7 -39 0
v -6 -39 0
v -7 -40 0
v -8 -40 0
v -8 -39 0
v -7 -39 0
v -8 -40 0
v -9 -40 0
v -9 -39 0
v -8 -39 0
v -9 -40 0
v -10 -40 0
v -10 -39 0
v -9 -39 0
v -10 -40 0
v -11 -40 0
v -11 -39 0
v -10 -39 0
v -11 -40 0
v -12 -40 0
v -12 -39 0
v -11 -39 0
v -12 -40 0
v -13 -40 0
v -13 -39 0
v -12 -39 0
v 0 -41 0
v -1 -41 0
v -1 -40 0
v 0 -40 0
v -1 -41 0
v -2 -41 0
v -2 -40 0
v -1 -40 0
v -2 -41 0
v -3 -41 0
v -3 -40 0
v -2 -40 0
v -3 -41 0
v -4 -41 0
v -4 -40 0
v -3 -40 0
v -4 -41 0
v -5 -41 0
v -5 -40 0
v -4 -40 0
v -5 -41 0
v -6 -41 0
v -6 -40 0
v -5 -40 0
v -6 -41 0
v -7 -41 0
v -7 -40 0
v -6 -40 0
v -7 -41 0
v -8 -41 0
v -8 -40 0
v -7 -40 0
v -8 -41 0
v -9 -41 0
v -9 -40 0
v -8 -40 0
v -9 -41 0
v -10 -41 0
v -10 -40 0
v -9 -40 0
v -10 -41 0
v -11 -41 0
v -11 -40 0
v -10 -40 0
v -11 -41 0
v -12 -41 0
v -12 -40 0
v -11 -40 0
v -12 -41 0
v -13 -41 0
v -13 -40 0
v -12 -40 0
v -13 -41 0
v -14 -41 0
v -14 -40 0
v -13 -40 0
v -14 -41 0
v -15 -41 0
v -15 -40 0
v -14 -40 0
v 0 -42 0
v -1 -42 0
v -1 -41 0
v 0 -41 0
v -1 -42 0
v -2 -42 0
v -2 -41 0
v -1 -41 0
v -2 -42 0
v -3 -42 0
v -3 -41 0
v -2 -41 0
v -3 -42 0
v -4 -42 0
v -4 -41 0
v -3 -41 0
v -4 -42 0
v -5 -42 0
v -5 -41 0
v -4 -41 0
v -5 -42 0
v -6 -42 0
v -6 -41 0
v -5 -41 0
v -6 -42 0
v -7 -42 0
v -7 -41 0
v -6 -41 0
v -7 -42 0
v -8 -42 0
v -8 -41 0
v -7 -41 0
v -8 -42 0
v -9 -42 0
v -9 -41 0
v -8 -41 0
v -9 -42 0
v -10 -42 0
v -10 -41 0
v -9 -41 0
v -10 -42 0
v -11 -42 0
v -11 -41 0
v -10 -41 0
v -11 -42 0
v -12 -42 0
v -12 -41 0
v -11 -41 0
v -12 -42 0
v -13 -42 0
v -13 -41 0
v -12 -41 0
v -13 -42 0
v -14 -42 0
v -14 -41 0
v -13 -41 0
v -14 -42 0
v -15 -42 0
v -15 -41 0
v -14 -41 0
v -15 -42 0
v -16 -42 0
v -16 -41 0
v -15 -41 0
v 0 -43 0
v -1 -43 0
v -1 -42 0
v 0 -42 0
v -1 -43 0
v -2 -43 0
v -2 -42 0
v -1 -42 0
v -2 -43 0
v -3 -43 0
v -3 -42 0
v -2 -42 0
v -3 -43 0
v -4 -43 0
v -4 -42 0
v -3 -42 0
v -4 -43 0
v -5 -43 0
v -5 -42 0
v -4 -42 0
v -5 -43 0
v -6 -43 0
v -6 -42 0
v -5 -42 0
v -6 -43 0
v -7 -43 0
v -7 -42 0
v -6 -42 0
v -7 -43 0
v -8 -43 0
v -8 -42 0
v -7 -42 0
v -8 -43 0
v -9 -43 0
v -9 -42 0
v -8 -42 0
v -9 -43 0
v -10 -43 0
v -10 -42 0
v -9 -42 0
v -10 -43 0
v -11 -43 0
v -11 -42 0
v -10 -42 0
v -11 -43 0
v -12 -43 0
v -12 -42 0
v -11 -42 0
v -12 -43 0
v -13 -43 0
v -13 -42 0
v -12 -42 0
v -13 -43 0
v -14 -43 0
v -14 -42 0
v -13 -42 0
v -14 -43 0
v -15 -43 0
v -15 -42 0
v -14 -42 0
v -15 -43 0
v -16 -43 0
v -16 -42 0
v -15 -42 0
v -16 -43 0
v -17 -43 0
v -17 -42 0
v -16 -42 0
v 0 -44 0
v -1 -44 0
v -1 -43 0
v 0 -43 0
v -1 -44 0
v -2 -44 0
v -2 -43 0
v -1 -43 0
v -2 -44 0
v -3 -44 0
v -3 -43 0
v -2 -43 0
v -3 -44 0
v -4 -44 0
v -4 -43 0
v -3 -43 0
v -4 -44 0
v -5 -44 0
v -5 -43 0
v -4 -43 0
v -5 -44 0
v -6 -44 0
v -6 -43 0
v -5 -43 0
v -6 -44 0
v -7 -44 0
v -7 -43 0
v -6 -43 0
v -7 -44 0
v -8 -44 0
v -8 -43 0
v -7 -43 0
v -8 -44 0
v -9 -44 0
v -9 -43 0
v -8 -43 0
v -9 -44 0
v -10 -44 0
v -10 -43 0
v -9 -43 0
v -10 -44 0
v -11 -44 0
v -11 -43 0
v -10 -43 0
v -11 -44 0
v -12 -44 0
v -12 -43 0
v -11 -43 0
v -12 -44 0
v -13 -44 0
v -13 -43 0
v -12 -43 0
v -13 -44 0
v -14 -44 0
v -14 -43 0
v -13 -43 0
v -14 -44 0
v -15 -44 0
v -15 -43 0
v -14 -43 0
v -15 -44 0
v -16 -44 0
v -16 -43 0
v -15 -43 0
v -16 -44 0
v -17 -44 0
v -17 -43 0
v -16 -43 0
v -17 -44 0
v -18 -44 0
v -18 -43 0
v -17 -43 0
v 0 -45 0
v -1 -45 0
v -1 -44 0
v 0 -44 0
v -1 -45 0
v -2 -45 0
v -2 -44 0
v -1 -44 0
v -2 -45 0
v -3 -45 0
v -3 -44 0
v -2 -44 0
v -3 -45 0
v -4 -45 0
v -4 -44 0
v -3 -44 0
v -4 -45 0
v -5 -45 0
v -5 -44 0
v -4 -44 0
v -5 -45 0
v -6 -45 0
v -6 -44 0
v -5 -44 0
v -6 -45 0
v -7 -45 0
v -7 -44 0
v -6 -44 0
v -7 -45 0
v -8 -45 0
v -8 -44 0
v -7 -44 0
v -8 -45 0
v -9 -45 0
v -9 -44 0
v -8 -44 0
v -9 -45 0
v -10 -45 0
v -10 -44 0
v -9 -44 0
v -10 -45 0
v -11 -45 0
v -11 -44 0
v -10 -44 0
v -11 -45 0
v -12 -45 0
v -12 -44 0
v -11 -44 0
v -12 -45 0
v -13 -45 0
v -13 -44 0
v -12 -44 0
v -13 -45 0
v -14 -45 0
v -14 -44 0
v -13 -44 0
v -14 -45 0
v -15 -45 0
v -15 -44 0
v -14 -44 0
v -15 -45 0
v -16 -45 0
v -16 -44 0
v -15 -44 0
v -16 -45 0
v -17 -45 0
v -17 -44 0
v -16 -44 0
v -17 -45 0
v -18 -45 0
v -18 -44 0
v -17 -44 0

# Texture cooridinates (Count = 11)
vt 0.3333333 0.5
vt 0.6666667 0.5
vt 0.6666667 0.6666666
vt 0.3333333 0.6666666
vt 1 0.5
vt 1 0.6666666
vt 0.3333333 0.3333333
vt 0.6666667 0.3333333
vt 1 0.3333333
vt 0.6666667 0.8333333
vt 0.3333333 0.8333333

# Normal
vn 0 0 -1

# Mesh description
g Ville_mesh_0004

# Faces
f 1/1/1 2/2/1 3/3/1 4/4/1
f 5/2/1 6/5/1 7/6/1 8/3/1
f 9/7/1 10/8/1 11/2/1 12/1/1
f 13/8/1 14/9/1 15/5/1 16/2/1
f 17/7/1 18/8/1 19/2/1 20/1/1
f 21/4/1 22/3/1 23/10/1 24/11/1
f 25/1/1 26/2/1 27/3/1 28/4/1
f 29/1/1 30/2/1 31/3/1 32/4/1
f 33/2/1 34/5/1 35/6/1 36/3/1
f 37/7/1 38/8/1 39/2/1 40/1/1
f 41/7/1 42/8/1 43/2/1 44/1/1
f 45/7/1 46/8/1 47/2/1 48/1/1
f 49/7/1 50/8/1 51/2/1 52/1/1
f 53/8/1 54/9/1 55/5/1 56/2/1
f 57/7/1 58/8/1 59/2/1 60/1/1
f 61/7/1 62/8/1 63/2/1 64/1/1
f 65/7/1 66/8/1 67/2/1 68/1/1
f 69/7/1 70/8/1 71/2/1 72/1/1
f 73/4/1 74/3/1 75/10/1 76/11/1
f 77/2/1 78/5/1 79/6/1 80/3/1
f 81/7/1 82/8/1 83/2/1 84/1/1
f 85/7/1 86/8/1 87/2/1 88/1/1
f 89/7/1 90/8/1 91/2/1 92/1/1
f 93/7/1 94/8/1 95/2/1 96/1/1
f 97/7/1 98/8/1 99/2/1 100/1/1
f 101/4/1 102/3/1 103/10/1 104/11/1
f 105/2/1 106/5/1 107/6/1 108/3/1
f 109/7/1 110/8/1 111/2/1 112/1/1
f 113/7/1 114/8/1 115/2/1 116/1/1
f 117/7/1 118/8/1 119/2/1 120/1/1
f 121/7/1 122/8/1 123/2/1 124/1/1
f 125/7/1 126/8/1 127/2/1 128/1/1
f 129/7/1 130/8/1 131/2/1 132/1/1
f 133/4/1 134/3/1 135/10/1 136/11/1
f 137/2/1 138/5/1 139/6/1 140/3/1
f 141/7/1 142/8/1 143/2/1 144/1/1
f 145/7/1 146/8/1 147/2/1 148/1/1
f 149/7/1 150/8/1 151/2/1 152/1/1
f 153/7/1 154/8/1 155/2/1 156/1/1
f 157/7/1 158/8/1 159/2/1 160/1/1
f 161/7/1 162/8/1 163/2/1 164/1/1
f 165/7/1 166/8/1 167/2/1 168/1/1
f 169/4/1 170/3/1 171/10/1 172/11/1
f 173/2/1 174/5/1 175/6/1 176/3/1
f 177/7/1 178/8/1 179/2/1 180/1/1
f 181/7/1 182/8/1 183/2/1 184/1/1
f 185/7/1 186/8/1 187/2/1 188/1/1
f 189/7/1 190/8/1 191/2/1 192/1/1
f 193/7/1 194/8/1 195/2/1 196/1/1
f 197/7/1 198/8/1 199/2/1 200/1/1
f 201/7/1 202/8/1 203/2/1 204/1/1
f 205/7/1 206/8/1 207/2/1 208/1/1
f 209/8/1 210/9/1 211/5/1 212/2/1
f 213/7/1 214/8/1 215/2/1 216/1/1
f 217/7/1 218/8/1 219/2/1 220/1/1
f 221/7/1 222/8/1 223/2/1 224/1/1
f 225/7/1 226/8/1 227/2/1 228/1/1
f 229/7/1 230/8/1 231/2/1 232/1/1
f 233/7/1 234/8/1 235/2/1 236/1/1
f 237/7/1 238/8/1 239/2/1 240/1/1
f 241/7/1 242/8/1 243/2/1 244/1/1
f 245/4/1 246/3/1 247/10/1 248/11/1
f 249/2/1 250/5/1 251/6/1 252/3/1
f 253/7/1 254/8/1 255/2/1 256/1/1
f 257/7/1 258/8/1 259/2/1 260/1/1
f 261/7/1 262/8/1 263/2/1 264/1/1
f 265/7/1 266/8/1 267/2/1 268/1/1
f 269/7/1 270/8/1 271/2/1 272/1/1
f 273/7/1 274/8/1 275/2/1 276/1/1
f 277/7/1 278/8/1 279/2/1 280/1/1
f 281/7/1 282/8/1 283/2/1 284/1/1
f 285/7/1 286/8/1 287/2/1 288/1/1
f 289/4/1 290/3/1 291/10/1 292/11/1
f 293/2/1 294/5/1 295/6/1 296/3/1
f 297/7/1 298/8/1 299/2/1 300/1/1
f 301/7/1 302/8/1 303/2/1 304/1/1
f 305/7/1 306/8/1 307/2/1 308/1/1
f 309/7/1 310/8/1 311/2/1 312/1/1
f 313/7/1 314/8/1 315/2/1 316/1/1
f 317/7/1 318/8/1 319/2/1 320/1/1
f 321/7/1 322/8/1 323/2/1 324/1/1
f 325/7/1 326/8/1 327/2/1 328/1/1
f 329/7/1 330/8/1 331/2/1 332/1/1
f 333/7/1 334/8/1 335/2/1 336/1/1
f 337/4/1 338/3/1 339/10/1 340/11/1
f 341/1/1 342/2/1 343/3/1 344/4/1
f 345/2/1 346/5/1 347/6/1 348/3/1
f 349/7/1 350/8/1 351/2/1 352/1/1
f 353/7/1 354/8/1 355/2/1 356/1/1
f 357/7/1 358/8/1 359/2/1 360/1/1
f 361/7/1 362/8/1 363/2/1 364/1/1
f 365/7/1 366/8/1 367/2/1 368/1/1
f 369/7/1 370/8/1 371/2/1 372/1/1
f 373/7/1 374/8/1 375/2/1 376/1/1
f 377/7/1 378/8/1 379/2/1 380/1/1
f 381/7/1 382/8/1 383/2/1 384/1/1
f 385/7/1 386/8/1 387/2/1 388/1/1
f 389/7/1 390/8/1 391/2/1 392/1/1
f 393/7/1 394/8/1 395/2/1 396/1/1
f 397/4/1 398/3/1 399/10/1 400/11/1
f 401/1/1 402/2/1 403/3/1 404/4/1
f 405/2/1 406/5/1 407/6/1 408/3/1
f 409/7/1 410/8/1 411/2/1 412/1/1
f 413/7/1 414/8/1 415/2/1 416/1/1
f 417/7/1 418/8/1 419/2/1 420/1/1
f 421/7/1 422/8/1 423/2/1 424/1/1
f 425/7/1 426/8/1 427/2/1 428/1/1
f 429/7/1 430/8/1 431/2/1 432/1/1
f 433/7/1 434/8/1 435/2/1 436/1/1
f 437/7/1 438/8/1 439/2/1 440/1/1
f 441/7/1 442/8/1 443/2/1 444/1/1
f 445/7/1 446/8/1 447/2/1 448/1/1
f 449/7/1 450/8/1 451/2/1 452/1/1
f 453/7/1 454/8/1 455/2/1 456/1/1
f 457/7/1 458/8/1 459/2/1 460/1/1
f 461/7/1 462/8/1 463/2/1 464/1/1
f 465/4/1 466/3/1 467/10/1 468/11/1
f 469/2/1 470/5/1 471/6/1 472/3/1
f 473/7/1 474/8/1 475/2/1 476/1/1
f 477/7/1 478/8/1 479/2/1 480/1/1
f 481/7/1 482/8/1 483/2/1 484/1/1
f 485/7/1 486/8/1 487/2/1 488/1/1
f 489/7/1 490/8/1 491/2/1 492/1/1
f 493/7/1 494/8/1 495/2/1 496/1/1
f 497/7/1 498/8/1 499/2/1 500/1/1
f 501/7/1 502/8/1 503/2/1 504/1/1
f 505/7/1 506/8/1 507/2/1 508/1/1
f 509/7/1 510/8/1 511/2/1 512/1/1
f 513/7/1 514/8/1 515/2/1 516/1/1
f 517/7/1 518/8/1 519/2/1 520/1/1
f 521/7/1 522/8/1 523/2/1 524/1/1
f 525/7/1 526/8/1 527/2/1 528/1/1
f 529/7/1 530/8/1 531/2/1 532/1/1
f 533/4/1 534/3/1 535/10/1 536/11/1
f 537/2/1 538/5/1 539/6/1 540/3/1
f 541/7/1 542/8/1 543/2/1 544/1/1
f 545/7/1 546/8/1 547/2/1 548/1/1
f 549/7/1 550/8/1 551/2/1 552/1/1
f 553/7/1 554/8/1 555/2/1 556/1/1
f 557/7/1 558/8/1 559/2/1 560/1/1
f 561/7/1 562/8/1 563/2/1 564/1/1
f 565/7/1 566/8/1 567/2/1 568/1/1
f 569/7/1 570/8/1 571/2/1 572/1/1
f 573/7/1 574/8/1 575/2/1 576/1/1
f 577/7/1 578/8/1 579/2/1 580/1/1
f 581/7/1 582/8/1 583/2/1 584/1/1
f 585/7/1 586/8/1 587/2/1 588/1/1
f 589/7/1 590/8/1 591/2/1 592/1/1
f 593/7/1 594/8/1 595/2/1 596/1/1
f 597/7/1 598/8/1 599/2/1 600/1/1
f 601/7/1 602/8/1 603/2/1 604/1/1
f 605/4/1 606/3/1 607/10/1 608/11/1
f 609/2/1 610/5/1 611/6/1 612/3/1
f 613/7/1 614/8/1 615/2/1 616/1/1
f 617/7/1 618/8/1 619/2/1 620/1/1
f 621/7/1 622/8/1 623/2/1 624/1/1
f 625/7/1 626/8/1 627/2/1 628/1/1
f 629/7/1 630/8/1 631/2/1 632/1/1
f 633/7/1 634/8/1 635/2/1 636/1/1
f 637/7/1 638/8/1 639/2/1 640/1/1
f 641/7/1 642/8/1 643/2/1 644/1/1
f 645/7/1 646/8/1 647/2/1 648/1/1
f 649/7/1 650/8/1 651/2/1 652/1/1
f 653/7/1 654/8/1 655/2/1 656/1/1
f 657/7/1 658/8/1 659/2/1 660/1/1
f 661/7/1 662/8/1 663/2/1 664/1/1
f 665/7/1 666/8/1 667/2/1 668/1/1
f 669/7/1 670/8/1 671/2/1 672/1/1
f 673/7/1 674/8/1 675/2/1 676/1/1
f 677/7/1 678/8/1 679/2/1 680/1/1
f 681/8/1 682/9/1 683/5/1 684/2/1

