# Tiled2Unity generated file. Do not modify by hand.
# Wavefront file for 'Ville_mesh_0003.obj'

# Vertices (Count = 24)
v -17 -6 0
v -18 -6 0
v -18 -5 0
v -17 -5 0
v -17 -7 0
v -18 -7 0
v -18 -6 0
v -17 -6 0
v -17 -8 0
v -18 -8 0
v -18 -7 0
v -17 -7 0
v -17 -9 0
v -18 -9 0
v -18 -8 0
v -17 -8 0
v -17 -10 0
v -18 -10 0
v -18 -9 0
v -17 -9 0
v -17 -11 0
v -18 -11 0
v -18 -10 0
v -17 -10 0

# Texture cooridinates (Count = 4)
vt 0.3333333 0.3333333
vt 0.6666667 0.3333333
vt 0.6666667 0.5
vt 0.3333333 0.5

# Normal
vn 0 0 -1

# Mesh description
g Ville_mesh_0003

# Faces
f 1/1/1 2/2/1 3/3/1 4/4/1
f 5/1/1 6/2/1 7/3/1 8/4/1
f 9/1/1 10/2/1 11/3/1 12/4/1
f 13/1/1 14/2/1 15/3/1 16/4/1
f 17/1/1 18/2/1 19/3/1 20/4/1
f 21/1/1 22/2/1 23/3/1 24/4/1

