# Tiled2Unity generated file. Do not modify by hand.
# Wavefront file for 'Ville_mesh_0046.obj'

# Vertices (Count = 60)
v -29 -8 0
v -30 -8 0
v -30 -7 0
v -29 -7 0
v -30 -8 0
v -31 -8 0
v -31 -7 0
v -30 -7 0
v -31 -8 0
v -32 -8 0
v -32 -7 0
v -31 -7 0
v -32 -8 0
v -33 -8 0
v -33 -7 0
v -32 -7 0
v -33 -8 0
v -34 -8 0
v -34 -7 0
v -33 -7 0
v -29 -9 0
v -30 -9 0
v -30 -8 0
v -29 -8 0
v -30 -9 0
v -31 -9 0
v -31 -8 0
v -30 -8 0
v -31 -9 0
v -32 -9 0
v -32 -8 0
v -31 -8 0
v -32 -9 0
v -33 -9 0
v -33 -8 0
v -32 -8 0
v -33 -9 0
v -34 -9 0
v -34 -8 0
v -33 -8 0
v -29 -10 0
v -30 -10 0
v -30 -9 0
v -29 -9 0
v -30 -10 0
v -31 -10 0
v -31 -9 0
v -30 -9 0
v -32 -10 0
v -33 -10 0
v -33 -9 0
v -32 -9 0
v -33 -10 0
v -34 -10 0
v -34 -9 0
v -33 -9 0
v -36 -26 0
v -37 -26 0
v -37 -25 0
v -36 -25 0

# Texture cooridinates (Count = 16)
vt 0 0.90625
vt 0.03125 0.90625
vt 0.03125 0.9375
vt 0 0.9375
vt 0.0625 0.90625
vt 0.0625 0.9375
vt 0.09375 0.90625
vt 0.09375 0.9375
vt 0 0.875
vt 0.03125 0.875
vt 0.0625 0.875
vt 0.09375 0.875
vt 0.90625 0.71875
vt 0.9375 0.71875
vt 0.9375 0.75
vt 0.90625 0.75

# Normal
vn 0 0 -1

# Mesh description
g Ville_mesh_0046

# Faces
f 1/1/1 2/2/1 3/3/1 4/4/1
f 5/2/1 6/5/1 7/6/1 8/3/1
f 9/2/1 10/5/1 11/6/1 12/3/1
f 13/2/1 14/5/1 15/6/1 16/3/1
f 17/5/1 18/7/1 19/8/1 20/6/1
f 21/9/1 22/10/1 23/2/1 24/1/1
f 25/10/1 26/11/1 27/5/1 28/2/1
f 29/10/1 30/11/1 31/5/1 32/2/1
f 33/10/1 34/11/1 35/5/1 36/2/1
f 37/11/1 38/12/1 39/7/1 40/5/1
f 41/9/1 42/10/1 43/2/1 44/1/1
f 45/10/1 46/11/1 47/5/1 48/2/1
f 49/10/1 50/11/1 51/5/1 52/2/1
f 53/11/1 54/12/1 55/7/1 56/5/1
f 57/13/1 58/14/1 59/15/1 60/16/1

