# Tiled2Unity generated file. Do not modify by hand.
# Wavefront file for 'Ville_mesh_0052.obj'

# Vertices (Count = 68)
v -35 -1 0
v -36 -1 0
v -36 0 0
v -35 0 0
v -36 -1 0
v -37 -1 0
v -37 0 0
v -36 0 0
v -42 -1 0
v -43 -1 0
v -43 0 0
v -42 0 0
v -35 -2 0
v -36 -2 0
v -36 -1 0
v -35 -1 0
v -37 -2 0
v -38 -2 0
v -38 -1 0
v -37 -1 0
v -39 -2 0
v -40 -2 0
v -40 -1 0
v -39 -1 0
v -44 -2 0
v -45 -2 0
v -45 -1 0
v -44 -1 0
v -35 -3 0
v -36 -3 0
v -36 -2 0
v -35 -2 0
v -36 -3 0
v -37 -3 0
v -37 -2 0
v -36 -2 0
v -37 -3 0
v -38 -3 0
v -38 -2 0
v -37 -2 0
v -38 -3 0
v -39 -3 0
v -39 -2 0
v -38 -2 0
v -39 -3 0
v -40 -3 0
v -40 -2 0
v -39 -2 0
v -40 -3 0
v -41 -3 0
v -41 -2 0
v -40 -2 0
v -41 -3 0
v -42 -3 0
v -42 -2 0
v -41 -2 0
v -42 -3 0
v -43 -3 0
v -43 -2 0
v -42 -2 0
v -43 -3 0
v -44 -3 0
v -44 -2 0
v -43 -2 0
v -44 -3 0
v -45 -3 0
v -45 -2 0
v -44 -2 0

# Texture cooridinates (Count = 10)
vt 0.3333333 0.3333333
vt 0.6666667 0.3333333
vt 0.6666667 0.5
vt 0.3333333 0.5
vt 0.3333333 0
vt 0.6666667 0
vt 0.6666667 0.1666667
vt 0.3333333 0.1666667
vt 0 0
vt 0 0.1666667

# Normal
vn 0 0 -1

# Mesh description
g Ville_mesh_0052

# Faces
f 1/1/1 2/2/1 3/3/1 4/4/1
f 5/5/1 6/6/1 7/7/1 8/8/1
f 9/5/1 10/6/1 11/7/1 12/8/1
f 13/1/1 14/2/1 15/3/1 16/4/1
f 17/5/1 18/6/1 19/7/1 20/8/1
f 21/5/1 22/6/1 23/7/1 24/8/1
f 25/9/1 26/5/1 27/8/1 28/10/1
f 29/8/1 30/7/1 31/2/1 32/1/1
f 33/8/1 34/7/1 35/2/1 36/1/1
f 37/8/1 38/7/1 39/2/1 40/1/1
f 41/8/1 42/7/1 43/2/1 44/1/1
f 45/8/1 46/7/1 47/2/1 48/1/1
f 49/8/1 50/7/1 51/2/1 52/1/1
f 53/8/1 54/7/1 55/2/1 56/1/1
f 57/8/1 58/7/1 59/2/1 60/1/1
f 61/8/1 62/7/1 63/2/1 64/1/1
f 65/8/1 66/7/1 67/2/1 68/1/1

