# Tiled2Unity generated file. Do not modify by hand.
# Wavefront file for 'Ville_mesh_0037.obj'

# Vertices (Count = 24)
v -10 -3 0
v -11 -3 0
v -11 -2 0
v -10 -2 0
v -11 -3 0
v -12 -3 0
v -12 -2 0
v -11 -2 0
v -12 -3 0
v -13 -3 0
v -13 -2 0
v -12 -2 0
v -10 -4 0
v -11 -4 0
v -11 -3 0
v -10 -3 0
v -11 -4 0
v -12 -4 0
v -12 -3 0
v -11 -3 0
v -12 -4 0
v -13 -4 0
v -13 -3 0
v -12 -3 0

# Texture cooridinates (Count = 12)
vt 0.65625 0.3125
vt 0.6875 0.3125
vt 0.6875 0.34375
vt 0.65625 0.34375
vt 0.71875 0.3125
vt 0.71875 0.34375
vt 0.75 0.3125
vt 0.75 0.34375
vt 0.65625 0.28125
vt 0.6875 0.28125
vt 0.71875 0.28125
vt 0.75 0.28125

# Normal
vn 0 0 -1

# Mesh description
g Ville_mesh_0037

# Faces
f 1/1/1 2/2/1 3/3/1 4/4/1
f 5/2/1 6/5/1 7/6/1 8/3/1
f 9/5/1 10/7/1 11/8/1 12/6/1
f 13/9/1 14/10/1 15/2/1 16/1/1
f 17/10/1 18/11/1 19/5/1 20/2/1
f 21/11/1 22/12/1 23/7/1 24/5/1

