# Tiled2Unity generated file. Do not modify by hand.
# Wavefront file for 'Ville_mesh_0040.obj'

# Vertices (Count = 68)
v -1 -9 0
v -2 -9 0
v -2 -8 0
v -1 -8 0
v -44 -14 0
v -45 -14 0
v -45 -13 0
v -44 -13 0
v -44 -19 0
v -45 -19 0
v -45 -18 0
v -44 -18 0
v -42 -24 0
v -43 -24 0
v -43 -23 0
v -42 -23 0
v -30 -39 0
v -31 -39 0
v -31 -38 0
v -30 -38 0
v -41 -39 0
v -42 -39 0
v -42 -38 0
v -41 -38 0
v -30 -40 0
v -31 -40 0
v -31 -39 0
v -30 -39 0
v -34 -40 0
v -35 -40 0
v -35 -39 0
v -34 -39 0
v -26 -41 0
v -27 -41 0
v -27 -40 0
v -26 -40 0
v -43 -41 0
v -44 -41 0
v -44 -40 0
v -43 -40 0
v -31 -42 0
v -32 -42 0
v -32 -41 0
v -31 -41 0
v -40 -42 0
v -41 -42 0
v -41 -41 0
v -40 -41 0
v -19 -43 0
v -20 -43 0
v -20 -42 0
v -19 -42 0
v -24 -43 0
v -25 -43 0
v -25 -42 0
v -24 -42 0
v -28 -43 0
v -29 -43 0
v -29 -42 0
v -28 -42 0
v -31 -43 0
v -32 -43 0
v -32 -42 0
v -31 -42 0
v -35 -43 0
v -36 -43 0
v -36 -42 0
v -35 -42 0

# Texture cooridinates (Count = 8)
vt 0.1666667 0.6666666
vt 0.3333333 0.6666666
vt 0.3333333 1
vt 0.1666667 1
vt 0.6666667 0.6666666
vt 0.8333333 0.6666666
vt 0.8333333 1
vt 0.6666667 1

# Normal
vn 0 0 -1

# Mesh description
g Ville_mesh_0040

# Faces
f 1/1/1 2/2/1 3/3/1 4/4/1
f 5/5/1 6/6/1 7/7/1 8/8/1
f 9/5/1 10/6/1 11/7/1 12/8/1
f 13/1/1 14/2/1 15/3/1 16/4/1
f 17/1/1 18/2/1 19/3/1 20/4/1
f 21/5/1 22/6/1 23/7/1 24/8/1
f 25/1/1 26/2/1 27/3/1 28/4/1
f 29/5/1 30/6/1 31/7/1 32/8/1
f 33/1/1 34/2/1 35/3/1 36/4/1
f 37/5/1 38/6/1 39/7/1 40/8/1
f 41/5/1 42/6/1 43/7/1 44/8/1
f 45/5/1 46/6/1 47/7/1 48/8/1
f 49/1/1 50/2/1 51/3/1 52/4/1
f 53/5/1 54/6/1 55/7/1 56/8/1
f 57/5/1 58/6/1 59/7/1 60/8/1
f 61/5/1 62/6/1 63/7/1 64/8/1
f 65/1/1 66/2/1 67/3/1 68/4/1

