# Tiled2Unity generated file. Do not modify by hand.
# Wavefront file for 'Forest_mesh_0002.obj'

# Vertices (Count = 1096)
v -62 -51 0
v -63 -51 0
v -63 -50 0
v -62 -50 0
v -63 -51 0
v -64 -51 0
v -64 -50 0
v -63 -50 0
v -58 -52 0
v -59 -52 0
v -59 -51 0
v -58 -51 0
v -59 -52 0
v -60 -52 0
v -60 -51 0
v -59 -51 0
v -60 -52 0
v -61 -52 0
v -61 -51 0
v -60 -51 0
v -61 -52 0
v -62 -52 0
v -62 -51 0
v -61 -51 0
v -62 -52 0
v -63 -52 0
v -63 -51 0
v -62 -51 0
v -63 -52 0
v -64 -52 0
v -64 -51 0
v -63 -51 0
v -51 -53 0
v -52 -53 0
v -52 -52 0
v -51 -52 0
v -52 -53 0
v -53 -53 0
v -53 -52 0
v -52 -52 0
v -53 -53 0
v -54 -53 0
v -54 -52 0
v -53 -52 0
v -54 -53 0
v -55 -53 0
v -55 -52 0
v -54 -52 0
v -55 -53 0
v -56 -53 0
v -56 -52 0
v -55 -52 0
v -56 -53 0
v -57 -53 0
v -57 -52 0
v -56 -52 0
v -57 -53 0
v -58 -53 0
v -58 -52 0
v -57 -52 0
v -58 -53 0
v -59 -53 0
v -59 -52 0
v -58 -52 0
v -59 -53 0
v -60 -53 0
v -60 -52 0
v -59 -52 0
v -60 -53 0
v -61 -53 0
v -61 -52 0
v -60 -52 0
v -61 -53 0
v -62 -53 0
v -62 -52 0
v -61 -52 0
v -62 -53 0
v -63 -53 0
v -63 -52 0
v -62 -52 0
v -63 -53 0
v -64 -53 0
v -64 -52 0
v -63 -52 0
v -49 -54 0
v -50 -54 0
v -50 -53 0
v -49 -53 0
v -50 -54 0
v -51 -54 0
v -51 -53 0
v -50 -53 0
v -51 -54 0
v -52 -54 0
v -52 -53 0
v -51 -53 0
v -52 -54 0
v -53 -54 0
v -53 -53 0
v -52 -53 0
v -53 -54 0
v -54 -54 0
v -54 -53 0
v -53 -53 0
v -54 -54 0
v -55 -54 0
v -55 -53 0
v -54 -53 0
v -55 -54 0
v -56 -54 0
v -56 -53 0
v -55 -53 0
v -56 -54 0
v -57 -54 0
v -57 -53 0
v -56 -53 0
v -57 -54 0
v -58 -54 0
v -58 -53 0
v -57 -53 0
v -58 -54 0
v -59 -54 0
v -59 -53 0
v -58 -53 0
v -59 -54 0
v -60 -54 0
v -60 -53 0
v -59 -53 0
v -60 -54 0
v -61 -54 0
v -61 -53 0
v -60 -53 0
v -61 -54 0
v -62 -54 0
v -62 -53 0
v -61 -53 0
v -62 -54 0
v -63 -54 0
v -63 -53 0
v -62 -53 0
v -63 -54 0
v -64 -54 0
v -64 -53 0
v -63 -53 0
v -45 -55 0
v -46 -55 0
v -46 -54 0
v -45 -54 0
v -46 -55 0
v -47 -55 0
v -47 -54 0
v -46 -54 0
v -47 -55 0
v -48 -55 0
v -48 -54 0
v -47 -54 0
v -48 -55 0
v -49 -55 0
v -49 -54 0
v -48 -54 0
v -49 -55 0
v -50 -55 0
v -50 -54 0
v -49 -54 0
v -50 -55 0
v -51 -55 0
v -51 -54 0
v -50 -54 0
v -51 -55 0
v -52 -55 0
v -52 -54 0
v -51 -54 0
v -52 -55 0
v -53 -55 0
v -53 -54 0
v -52 -54 0
v -53 -55 0
v -54 -55 0
v -54 -54 0
v -53 -54 0
v -54 -55 0
v -55 -55 0
v -55 -54 0
v -54 -54 0
v -55 -55 0
v -56 -55 0
v -56 -54 0
v -55 -54 0
v -56 -55 0
v -57 -55 0
v -57 -54 0
v -56 -54 0
v -57 -55 0
v -58 -55 0
v -58 -54 0
v -57 -54 0
v -58 -55 0
v -59 -55 0
v -59 -54 0
v -58 -54 0
v -59 -55 0
v -60 -55 0
v -60 -54 0
v -59 -54 0
v -60 -55 0
v -61 -55 0
v -61 -54 0
v -60 -54 0
v -61 -55 0
v -62 -55 0
v -62 -54 0
v -61 -54 0
v -62 -55 0
v -63 -55 0
v -63 -54 0
v -62 -54 0
v -63 -55 0
v -64 -55 0
v -64 -54 0
v -63 -54 0
v -43 -56 0
v -44 -56 0
v -44 -55 0
v -43 -55 0
v -44 -56 0
v -45 -56 0
v -45 -55 0
v -44 -55 0
v -45 -56 0
v -46 -56 0
v -46 -55 0
v -45 -55 0
v -46 -56 0
v -47 -56 0
v -47 -55 0
v -46 -55 0
v -47 -56 0
v -48 -56 0
v -48 -55 0
v -47 -55 0
v -48 -56 0
v -49 -56 0
v -49 -55 0
v -48 -55 0
v -49 -56 0
v -50 -56 0
v -50 -55 0
v -49 -55 0
v -50 -56 0
v -51 -56 0
v -51 -55 0
v -50 -55 0
v -51 -56 0
v -52 -56 0
v -52 -55 0
v -51 -55 0
v -52 -56 0
v -53 -56 0
v -53 -55 0
v -52 -55 0
v -53 -56 0
v -54 -56 0
v -54 -55 0
v -53 -55 0
v -54 -56 0
v -55 -56 0
v -55 -55 0
v -54 -55 0
v -55 -56 0
v -56 -56 0
v -56 -55 0
v -55 -55 0
v -56 -56 0
v -57 -56 0
v -57 -55 0
v -56 -55 0
v -57 -56 0
v -58 -56 0
v -58 -55 0
v -57 -55 0
v -58 -56 0
v -59 -56 0
v -59 -55 0
v -58 -55 0
v -59 -56 0
v -60 -56 0
v -60 -55 0
v -59 -55 0
v -60 -56 0
v -61 -56 0
v -61 -55 0
v -60 -55 0
v -61 -56 0
v -62 -56 0
v -62 -55 0
v -61 -55 0
v -62 -56 0
v -63 -56 0
v -63 -55 0
v -62 -55 0
v -63 -56 0
v -64 -56 0
v -64 -55 0
v -63 -55 0
v -42 -57 0
v -43 -57 0
v -43 -56 0
v -42 -56 0
v -43 -57 0
v -44 -57 0
v -44 -56 0
v -43 -56 0
v -44 -57 0
v -45 -57 0
v -45 -56 0
v -44 -56 0
v -45 -57 0
v -46 -57 0
v -46 -56 0
v -45 -56 0
v -46 -57 0
v -47 -57 0
v -47 -56 0
v -46 -56 0
v -47 -57 0
v -48 -57 0
v -48 -56 0
v -47 -56 0
v -48 -57 0
v -49 -57 0
v -49 -56 0
v -48 -56 0
v -49 -57 0
v -50 -57 0
v -50 -56 0
v -49 -56 0
v -50 -57 0
v -51 -57 0
v -51 -56 0
v -50 -56 0
v -51 -57 0
v -52 -57 0
v -52 -56 0
v -51 -56 0
v -52 -57 0
v -53 -57 0
v -53 -56 0
v -52 -56 0
v -53 -57 0
v -54 -57 0
v -54 -56 0
v -53 -56 0
v -54 -57 0
v -55 -57 0
v -55 -56 0
v -54 -56 0
v -55 -57 0
v -56 -57 0
v -56 -56 0
v -55 -56 0
v -56 -57 0
v -57 -57 0
v -57 -56 0
v -56 -56 0
v -57 -57 0
v -58 -57 0
v -58 -56 0
v -57 -56 0
v -58 -57 0
v -59 -57 0
v -59 -56 0
v -58 -56 0
v -59 -57 0
v -60 -57 0
v -60 -56 0
v -59 -56 0
v -60 -57 0
v -61 -57 0
v -61 -56 0
v -60 -56 0
v -61 -57 0
v -62 -57 0
v -62 -56 0
v -61 -56 0
v -62 -57 0
v -63 -57 0
v -63 -56 0
v -62 -56 0
v -63 -57 0
v -64 -57 0
v -64 -56 0
v -63 -56 0
v -42 -58 0
v -43 -58 0
v -43 -57 0
v -42 -57 0
v -43 -58 0
v -44 -58 0
v -44 -57 0
v -43 -57 0
v -44 -58 0
v -45 -58 0
v -45 -57 0
v -44 -57 0
v -45 -58 0
v -46 -58 0
v -46 -57 0
v -45 -57 0
v -46 -58 0
v -47 -58 0
v -47 -57 0
v -46 -57 0
v -47 -58 0
v -48 -58 0
v -48 -57 0
v -47 -57 0
v -48 -58 0
v -49 -58 0
v -49 -57 0
v -48 -57 0
v -49 -58 0
v -50 -58 0
v -50 -57 0
v -49 -57 0
v -50 -58 0
v -51 -58 0
v -51 -57 0
v -50 -57 0
v -51 -58 0
v -52 -58 0
v -52 -57 0
v -51 -57 0
v -52 -58 0
v -53 -58 0
v -53 -57 0
v -52 -57 0
v -53 -58 0
v -54 -58 0
v -54 -57 0
v -53 -57 0
v -54 -58 0
v -55 -58 0
v -55 -57 0
v -54 -57 0
v -55 -58 0
v -56 -58 0
v -56 -57 0
v -55 -57 0
v -56 -58 0
v -57 -58 0
v -57 -57 0
v -56 -57 0
v -57 -58 0
v -58 -58 0
v -58 -57 0
v -57 -57 0
v -58 -58 0
v -59 -58 0
v -59 -57 0
v -58 -57 0
v -59 -58 0
v -60 -58 0
v -60 -57 0
v -59 -57 0
v -60 -58 0
v -61 -58 0
v -61 -57 0
v -60 -57 0
v -61 -58 0
v -62 -58 0
v -62 -57 0
v -61 -57 0
v -62 -58 0
v -63 -58 0
v -63 -57 0
v -62 -57 0
v -63 -58 0
v -64 -58 0
v -64 -57 0
v -63 -57 0
v -42 -59 0
v -43 -59 0
v -43 -58 0
v -42 -58 0
v -43 -59 0
v -44 -59 0
v -44 -58 0
v -43 -58 0
v -44 -59 0
v -45 -59 0
v -45 -58 0
v -44 -58 0
v -45 -59 0
v -46 -59 0
v -46 -58 0
v -45 -58 0
v -46 -59 0
v -47 -59 0
v -47 -58 0
v -46 -58 0
v -47 -59 0
v -48 -59 0
v -48 -58 0
v -47 -58 0
v -48 -59 0
v -49 -59 0
v -49 -58 0
v -48 -58 0
v -49 -59 0
v -50 -59 0
v -50 -58 0
v -49 -58 0
v -50 -59 0
v -51 -59 0
v -51 -58 0
v -50 -58 0
v -51 -59 0
v -52 -59 0
v -52 -58 0
v -51 -58 0
v -52 -59 0
v -53 -59 0
v -53 -58 0
v -52 -58 0
v -53 -59 0
v -54 -59 0
v -54 -58 0
v -53 -58 0
v -54 -59 0
v -55 -59 0
v -55 -58 0
v -54 -58 0
v -55 -59 0
v -56 -59 0
v -56 -58 0
v -55 -58 0
v -56 -59 0
v -57 -59 0
v -57 -58 0
v -56 -58 0
v -57 -59 0
v -58 -59 0
v -58 -58 0
v -57 -58 0
v -58 -59 0
v -59 -59 0
v -59 -58 0
v -58 -58 0
v -59 -59 0
v -60 -59 0
v -60 -58 0
v -59 -58 0
v -60 -59 0
v -61 -59 0
v -61 -58 0
v -60 -58 0
v -61 -59 0
v -62 -59 0
v -62 -58 0
v -61 -58 0
v -62 -59 0
v -63 -59 0
v -63 -58 0
v -62 -58 0
v -63 -59 0
v -64 -59 0
v -64 -58 0
v -63 -58 0
v -40 -60 0
v -41 -60 0
v -41 -59 0
v -40 -59 0
v -41 -60 0
v -42 -60 0
v -42 -59 0
v -41 -59 0
v -42 -60 0
v -43 -60 0
v -43 -59 0
v -42 -59 0
v -43 -60 0
v -44 -60 0
v -44 -59 0
v -43 -59 0
v -44 -60 0
v -45 -60 0
v -45 -59 0
v -44 -59 0
v -45 -60 0
v -46 -60 0
v -46 -59 0
v -45 -59 0
v -46 -60 0
v -47 -60 0
v -47 -59 0
v -46 -59 0
v -47 -60 0
v -48 -60 0
v -48 -59 0
v -47 -59 0
v -48 -60 0
v -49 -60 0
v -49 -59 0
v -48 -59 0
v -49 -60 0
v -50 -60 0
v -50 -59 0
v -49 -59 0
v -50 -60 0
v -51 -60 0
v -51 -59 0
v -50 -59 0
v -51 -60 0
v -52 -60 0
v -52 -59 0
v -51 -59 0
v -52 -60 0
v -53 -60 0
v -53 -59 0
v -52 -59 0
v -53 -60 0
v -54 -60 0
v -54 -59 0
v -53 -59 0
v -54 -60 0
v -55 -60 0
v -55 -59 0
v -54 -59 0
v -55 -60 0
v -56 -60 0
v -56 -59 0
v -55 -59 0
v -56 -60 0
v -57 -60 0
v -57 -59 0
v -56 -59 0
v -57 -60 0
v -58 -60 0
v -58 -59 0
v -57 -59 0
v -58 -60 0
v -59 -60 0
v -59 -59 0
v -58 -59 0
v -59 -60 0
v -60 -60 0
v -60 -59 0
v -59 -59 0
v -60 -60 0
v -61 -60 0
v -61 -59 0
v -60 -59 0
v -61 -60 0
v -62 -60 0
v -62 -59 0
v -61 -59 0
v -62 -60 0
v -63 -60 0
v -63 -59 0
v -62 -59 0
v -63 -60 0
v -64 -60 0
v -64 -59 0
v -63 -59 0
v -40 -61 0
v -41 -61 0
v -41 -60 0
v -40 -60 0
v -41 -61 0
v -42 -61 0
v -42 -60 0
v -41 -60 0
v -42 -61 0
v -43 -61 0
v -43 -60 0
v -42 -60 0
v -43 -61 0
v -44 -61 0
v -44 -60 0
v -43 -60 0
v -44 -61 0
v -45 -61 0
v -45 -60 0
v -44 -60 0
v -45 -61 0
v -46 -61 0
v -46 -60 0
v -45 -60 0
v -46 -61 0
v -47 -61 0
v -47 -60 0
v -46 -60 0
v -47 -61 0
v -48 -61 0
v -48 -60 0
v -47 -60 0
v -48 -61 0
v -49 -61 0
v -49 -60 0
v -48 -60 0
v -49 -61 0
v -50 -61 0
v -50 -60 0
v -49 -60 0
v -50 -61 0
v -51 -61 0
v -51 -60 0
v -50 -60 0
v -51 -61 0
v -52 -61 0
v -52 -60 0
v -51 -60 0
v -52 -61 0
v -53 -61 0
v -53 -60 0
v -52 -60 0
v -53 -61 0
v -54 -61 0
v -54 -60 0
v -53 -60 0
v -54 -61 0
v -55 -61 0
v -55 -60 0
v -54 -60 0
v -55 -61 0
v -56 -61 0
v -56 -60 0
v -55 -60 0
v -56 -61 0
v -57 -61 0
v -57 -60 0
v -56 -60 0
v -57 -61 0
v -58 -61 0
v -58 -60 0
v -57 -60 0
v -58 -61 0
v -59 -61 0
v -59 -60 0
v -58 -60 0
v -59 -61 0
v -60 -61 0
v -60 -60 0
v -59 -60 0
v -60 -61 0
v -61 -61 0
v -61 -60 0
v -60 -60 0
v -61 -61 0
v -62 -61 0
v -62 -60 0
v -61 -60 0
v -62 -61 0
v -63 -61 0
v -63 -60 0
v -62 -60 0
v -63 -61 0
v -64 -61 0
v -64 -60 0
v -63 -60 0
v -36 -62 0
v -37 -62 0
v -37 -61 0
v -36 -61 0
v -37 -62 0
v -38 -62 0
v -38 -61 0
v -37 -61 0
v -38 -62 0
v -39 -62 0
v -39 -61 0
v -38 -61 0
v -39 -62 0
v -40 -62 0
v -40 -61 0
v -39 -61 0
v -40 -62 0
v -41 -62 0
v -41 -61 0
v -40 -61 0
v -41 -62 0
v -42 -62 0
v -42 -61 0
v -41 -61 0
v -42 -62 0
v -43 -62 0
v -43 -61 0
v -42 -61 0
v -43 -62 0
v -44 -62 0
v -44 -61 0
v -43 -61 0
v -44 -62 0
v -45 -62 0
v -45 -61 0
v -44 -61 0
v -45 -62 0
v -46 -62 0
v -46 -61 0
v -45 -61 0
v -46 -62 0
v -47 -62 0
v -47 -61 0
v -46 -61 0
v -47 -62 0
v -48 -62 0
v -48 -61 0
v -47 -61 0
v -48 -62 0
v -49 -62 0
v -49 -61 0
v -48 -61 0
v -49 -62 0
v -50 -62 0
v -50 -61 0
v -49 -61 0
v -50 -62 0
v -51 -62 0
v -51 -61 0
v -50 -61 0
v -51 -62 0
v -52 -62 0
v -52 -61 0
v -51 -61 0
v -52 -62 0
v -53 -62 0
v -53 -61 0
v -52 -61 0
v -53 -62 0
v -54 -62 0
v -54 -61 0
v -53 -61 0
v -54 -62 0
v -55 -62 0
v -55 -61 0
v -54 -61 0
v -55 -62 0
v -56 -62 0
v -56 -61 0
v -55 -61 0
v -56 -62 0
v -57 -62 0
v -57 -61 0
v -56 -61 0
v -57 -62 0
v -58 -62 0
v -58 -61 0
v -57 -61 0
v -58 -62 0
v -59 -62 0
v -59 -61 0
v -58 -61 0
v -59 -62 0
v -60 -62 0
v -60 -61 0
v -59 -61 0
v -60 -62 0
v -61 -62 0
v -61 -61 0
v -60 -61 0
v -61 -62 0
v -62 -62 0
v -62 -61 0
v -61 -61 0
v -62 -62 0
v -63 -62 0
v -63 -61 0
v -62 -61 0
v -63 -62 0
v -64 -62 0
v -64 -61 0
v -63 -61 0
v -36 -63 0
v -37 -63 0
v -37 -62 0
v -36 -62 0
v -37 -63 0
v -38 -63 0
v -38 -62 0
v -37 -62 0
v -38 -63 0
v -39 -63 0
v -39 -62 0
v -38 -62 0
v -39 -63 0
v -40 -63 0
v -40 -62 0
v -39 -62 0
v -40 -63 0
v -41 -63 0
v -41 -62 0
v -40 -62 0
v -41 -63 0
v -42 -63 0
v -42 -62 0
v -41 -62 0
v -42 -63 0
v -43 -63 0
v -43 -62 0
v -42 -62 0
v -43 -63 0
v -44 -63 0
v -44 -62 0
v -43 -62 0
v -44 -63 0
v -45 -63 0
v -45 -62 0
v -44 -62 0
v -45 -63 0
v -46 -63 0
v -46 -62 0
v -45 -62 0
v -46 -63 0
v -47 -63 0
v -47 -62 0
v -46 -62 0
v -47 -63 0
v -48 -63 0
v -48 -62 0
v -47 -62 0
v -48 -63 0
v -49 -63 0
v -49 -62 0
v -48 -62 0
v -49 -63 0
v -50 -63 0
v -50 -62 0
v -49 -62 0
v -50 -63 0
v -51 -63 0
v -51 -62 0
v -50 -62 0
v -51 -63 0
v -52 -63 0
v -52 -62 0
v -51 -62 0
v -52 -63 0
v -53 -63 0
v -53 -62 0
v -52 -62 0
v -53 -63 0
v -54 -63 0
v -54 -62 0
v -53 -62 0
v -54 -63 0
v -55 -63 0
v -55 -62 0
v -54 -62 0
v -55 -63 0
v -56 -63 0
v -56 -62 0
v -55 -62 0
v -56 -63 0
v -57 -63 0
v -57 -62 0
v -56 -62 0
v -57 -63 0
v -58 -63 0
v -58 -62 0
v -57 -62 0
v -58 -63 0
v -59 -63 0
v -59 -62 0
v -58 -62 0
v -59 -63 0
v -60 -63 0
v -60 -62 0
v -59 -62 0
v -60 -63 0
v -61 -63 0
v -61 -62 0
v -60 -62 0
v -61 -63 0
v -62 -63 0
v -62 -62 0
v -61 -62 0
v -62 -63 0
v -63 -63 0
v -63 -62 0
v -62 -62 0
v -63 -63 0
v -64 -63 0
v -64 -62 0
v -63 -62 0
v -36 -64 0
v -37 -64 0
v -37 -63 0
v -36 -63 0
v -37 -64 0
v -38 -64 0
v -38 -63 0
v -37 -63 0
v -38 -64 0
v -39 -64 0
v -39 -63 0
v -38 -63 0
v -39 -64 0
v -40 -64 0
v -40 -63 0
v -39 -63 0
v -40 -64 0
v -41 -64 0
v -41 -63 0
v -40 -63 0
v -41 -64 0
v -42 -64 0
v -42 -63 0
v -41 -63 0
v -42 -64 0
v -43 -64 0
v -43 -63 0
v -42 -63 0
v -43 -64 0
v -44 -64 0
v -44 -63 0
v -43 -63 0
v -44 -64 0
v -45 -64 0
v -45 -63 0
v -44 -63 0
v -45 -64 0
v -46 -64 0
v -46 -63 0
v -45 -63 0
v -46 -64 0
v -47 -64 0
v -47 -63 0
v -46 -63 0
v -47 -64 0
v -48 -64 0
v -48 -63 0
v -47 -63 0
v -48 -64 0
v -49 -64 0
v -49 -63 0
v -48 -63 0
v -49 -64 0
v -50 -64 0
v -50 -63 0
v -49 -63 0
v -50 -64 0
v -51 -64 0
v -51 -63 0
v -50 -63 0
v -51 -64 0
v -52 -64 0
v -52 -63 0
v -51 -63 0
v -52 -64 0
v -53 -64 0
v -53 -63 0
v -52 -63 0
v -53 -64 0
v -54 -64 0
v -54 -63 0
v -53 -63 0
v -54 -64 0
v -55 -64 0
v -55 -63 0
v -54 -63 0
v -55 -64 0
v -56 -64 0
v -56 -63 0
v -55 -63 0
v -56 -64 0
v -57 -64 0
v -57 -63 0
v -56 -63 0
v -57 -64 0
v -58 -64 0
v -58 -63 0
v -57 -63 0
v -58 -64 0
v -59 -64 0
v -59 -63 0
v -58 -63 0
v -59 -64 0
v -60 -64 0
v -60 -63 0
v -59 -63 0
v -60 -64 0
v -61 -64 0
v -61 -63 0
v -60 -63 0
v -61 -64 0
v -62 -64 0
v -62 -63 0
v -61 -63 0
v -62 -64 0
v -63 -64 0
v -63 -63 0
v -62 -63 0
v -63 -64 0
v -64 -64 0
v -64 -63 0
v -63 -63 0

# Texture cooridinates (Count = 19)
vt 0 0.5
vt 0.3333333 0.5
vt 0.3333333 0.6666666
vt 0 0.6666666
vt 0.6666667 0.5
vt 0.6666667 0.6666666
vt 1 0.6666666
vt 1 0.8333333
vt 0.6666667 0.8333333
vt 0.3333333 0
vt 0.6666667 0
vt 0.6666667 0.1666667
vt 0.3333333 0.1666667
vt 1 0
vt 1 0.1666667
vt 0 0
vt 0 0.1666667
vt 0 0.3333333
vt 0.3333333 0.3333333

# Normal
vn 0 0 -1

# Mesh description
g Forest_mesh_0002

# Faces
f 1/1/1 2/2/1 3/3/1 4/4/1
f 5/2/1 6/5/1 7/6/1 8/3/1
f 9/1/1 10/2/1 11/3/1 12/4/1
f 13/2/1 14/5/1 15/6/1 16/3/1
f 17/2/1 18/5/1 19/6/1 20/3/1
f 21/2/1 22/5/1 23/6/1 24/3/1
f 25/6/1 26/7/1 27/8/1 28/9/1
f 29/10/1 30/11/1 31/12/1 32/13/1
f 33/1/1 34/2/1 35/3/1 36/4/1
f 37/2/1 38/5/1 39/6/1 40/3/1
f 41/2/1 42/5/1 43/6/1 44/3/1
f 45/2/1 46/5/1 47/6/1 48/3/1
f 49/2/1 50/5/1 51/6/1 52/3/1
f 53/2/1 54/5/1 55/6/1 56/3/1
f 57/2/1 58/5/1 59/6/1 60/3/1
f 61/6/1 62/7/1 63/8/1 64/9/1
f 65/11/1 66/14/1 67/15/1 68/12/1
f 69/11/1 70/14/1 71/15/1 72/12/1
f 73/10/1 74/11/1 75/12/1 76/13/1
f 77/10/1 78/11/1 79/12/1 80/13/1
f 81/16/1 82/10/1 83/13/1 84/17/1
f 85/1/1 86/2/1 87/3/1 88/4/1
f 89/2/1 90/5/1 91/6/1 92/3/1
f 93/6/1 94/7/1 95/8/1 96/9/1
f 97/11/1 98/14/1 99/15/1 100/12/1
f 101/11/1 102/14/1 103/15/1 104/12/1
f 105/10/1 106/11/1 107/12/1 108/13/1
f 109/10/1 110/11/1 111/12/1 112/13/1
f 113/11/1 114/14/1 115/15/1 116/12/1
f 117/16/1 118/10/1 119/13/1 120/17/1
f 121/16/1 122/10/1 123/13/1 124/17/1
f 125/16/1 126/10/1 127/13/1 128/17/1
f 129/10/1 130/11/1 131/12/1 132/13/1
f 133/16/1 134/10/1 135/13/1 136/17/1
f 137/16/1 138/10/1 139/13/1 140/17/1
f 141/16/1 142/10/1 143/13/1 144/17/1
f 145/1/1 146/2/1 147/3/1 148/4/1
f 149/2/1 150/5/1 151/6/1 152/3/1
f 153/2/1 154/5/1 155/6/1 156/3/1
f 157/2/1 158/5/1 159/6/1 160/3/1
f 161/6/1 162/7/1 163/8/1 164/9/1
f 165/10/1 166/11/1 167/12/1 168/13/1
f 169/11/1 170/14/1 171/15/1 172/12/1
f 173/11/1 174/14/1 175/15/1 176/12/1
f 177/11/1 178/14/1 179/15/1 180/12/1
f 181/10/1 182/11/1 183/12/1 184/13/1
f 185/16/1 186/10/1 187/13/1 188/17/1
f 189/10/1 190/11/1 191/12/1 192/13/1
f 193/10/1 194/11/1 195/12/1 196/13/1
f 197/11/1 198/14/1 199/15/1 200/12/1
f 201/10/1 202/11/1 203/12/1 204/13/1
f 205/16/1 206/10/1 207/13/1 208/17/1
f 209/16/1 210/10/1 211/13/1 212/17/1
f 213/16/1 214/10/1 215/13/1 216/17/1
f 217/16/1 218/10/1 219/13/1 220/17/1
f 221/1/1 222/2/1 223/3/1 224/4/1
f 225/2/1 226/5/1 227/6/1 228/3/1
f 229/6/1 230/7/1 231/8/1 232/9/1
f 233/16/1 234/10/1 235/13/1 236/17/1
f 237/10/1 238/11/1 239/12/1 240/13/1
f 241/11/1 242/14/1 243/15/1 244/12/1
f 245/16/1 246/10/1 247/13/1 248/17/1
f 249/11/1 250/14/1 251/15/1 252/12/1
f 253/16/1 254/10/1 255/13/1 256/17/1
f 257/16/1 258/10/1 259/13/1 260/17/1
f 261/16/1 262/10/1 263/13/1 264/17/1
f 265/10/1 266/11/1 267/12/1 268/13/1
f 269/16/1 270/10/1 271/13/1 272/17/1
f 273/10/1 274/11/1 275/12/1 276/13/1
f 277/11/1 278/14/1 279/15/1 280/12/1
f 281/11/1 282/14/1 283/15/1 284/12/1
f 285/10/1 286/11/1 287/12/1 288/13/1
f 289/16/1 290/10/1 291/13/1 292/17/1
f 293/11/1 294/14/1 295/15/1 296/12/1
f 297/16/1 298/10/1 299/13/1 300/17/1
f 301/10/1 302/11/1 303/12/1 304/13/1
f 305/1/1 306/2/1 307/3/1 308/4/1
f 309/6/1 310/7/1 311/8/1 312/9/1
f 313/11/1 314/14/1 315/15/1 316/12/1
f 317/11/1 318/14/1 319/15/1 320/12/1
f 321/11/1 322/14/1 323/15/1 324/12/1
f 325/16/1 326/10/1 327/13/1 328/17/1
f 329/10/1 330/11/1 331/12/1 332/13/1
f 333/10/1 334/11/1 335/12/1 336/13/1
f 337/16/1 338/10/1 339/13/1 340/17/1
f 341/16/1 342/10/1 343/13/1 344/17/1
f 345/10/1 346/11/1 347/12/1 348/13/1
f 349/16/1 350/10/1 351/13/1 352/17/1
f 353/16/1 354/10/1 355/13/1 356/17/1
f 357/16/1 358/10/1 359/13/1 360/17/1
f 361/16/1 362/10/1 363/13/1 364/17/1
f 365/10/1 366/11/1 367/12/1 368/13/1
f 369/10/1 370/11/1 371/12/1 372/13/1
f 373/11/1 374/14/1 375/15/1 376/12/1
f 377/10/1 378/11/1 379/12/1 380/13/1
f 381/11/1 382/14/1 383/15/1 384/12/1
f 385/10/1 386/11/1 387/12/1 388/13/1
f 389/10/1 390/11/1 391/12/1 392/13/1
f 393/18/1 394/19/1 395/2/1 396/1/1
f 397/11/1 398/14/1 399/15/1 400/12/1
f 401/16/1 402/10/1 403/13/1 404/17/1
f 405/10/1 406/11/1 407/12/1 408/13/1
f 409/16/1 410/10/1 411/13/1 412/17/1
f 413/11/1 414/14/1 415/15/1 416/12/1
f 417/16/1 418/10/1 419/13/1 420/17/1
f 421/10/1 422/11/1 423/12/1 424/13/1
f 425/16/1 426/10/1 427/13/1 428/17/1
f 429/10/1 430/11/1 431/12/1 432/13/1
f 433/16/1 434/10/1 435/13/1 436/17/1
f 437/11/1 438/14/1 439/15/1 440/12/1
f 441/11/1 442/14/1 443/15/1 444/12/1
f 445/10/1 446/11/1 447/12/1 448/13/1
f 449/16/1 450/10/1 451/13/1 452/17/1
f 453/11/1 454/14/1 455/15/1 456/12/1
f 457/16/1 458/10/1 459/13/1 460/17/1
f 461/10/1 462/11/1 463/12/1 464/13/1
f 465/11/1 466/14/1 467/15/1 468/12/1
f 469/16/1 470/10/1 471/13/1 472/17/1
f 473/11/1 474/14/1 475/15/1 476/12/1
f 477/10/1 478/11/1 479/12/1 480/13/1
f 481/18/1 482/19/1 483/2/1 484/1/1
f 485/16/1 486/10/1 487/13/1 488/17/1
f 489/10/1 490/11/1 491/12/1 492/13/1
f 493/16/1 494/10/1 495/13/1 496/17/1
f 497/16/1 498/10/1 499/13/1 500/17/1
f 501/10/1 502/11/1 503/12/1 504/13/1
f 505/11/1 506/14/1 507/15/1 508/12/1
f 509/16/1 510/10/1 511/13/1 512/17/1
f 513/16/1 514/10/1 515/13/1 516/17/1
f 517/10/1 518/11/1 519/12/1 520/13/1
f 521/10/1 522/11/1 523/12/1 524/13/1
f 525/10/1 526/11/1 527/12/1 528/13/1
f 529/16/1 530/10/1 531/13/1 532/17/1
f 533/11/1 534/14/1 535/15/1 536/12/1
f 537/10/1 538/11/1 539/12/1 540/13/1
f 541/16/1 542/10/1 543/13/1 544/17/1
f 545/16/1 546/10/1 547/13/1 548/17/1
f 549/10/1 550/11/1 551/12/1 552/13/1
f 553/16/1 554/10/1 555/13/1 556/17/1
f 557/16/1 558/10/1 559/13/1 560/17/1
f 561/10/1 562/11/1 563/12/1 564/13/1
f 565/16/1 566/10/1 567/13/1 568/17/1
f 569/1/1 570/2/1 571/3/1 572/4/1
f 573/2/1 574/5/1 575/6/1 576/3/1
f 577/6/1 578/7/1 579/8/1 580/9/1
f 581/11/1 582/14/1 583/15/1 584/12/1
f 585/16/1 586/10/1 587/13/1 588/17/1
f 589/16/1 590/10/1 591/13/1 592/17/1
f 593/11/1 594/14/1 595/15/1 596/12/1
f 597/10/1 598/11/1 599/12/1 600/13/1
f 601/10/1 602/11/1 603/12/1 604/13/1
f 605/10/1 606/11/1 607/12/1 608/13/1
f 609/16/1 610/10/1 611/13/1 612/17/1
f 613/16/1 614/10/1 615/13/1 616/17/1
f 617/10/1 618/11/1 619/12/1 620/13/1
f 621/16/1 622/10/1 623/13/1 624/17/1
f 625/10/1 626/11/1 627/12/1 628/13/1
f 629/11/1 630/14/1 631/15/1 632/12/1
f 633/11/1 634/14/1 635/15/1 636/12/1
f 637/11/1 638/14/1 639/15/1 640/12/1
f 641/16/1 642/10/1 643/13/1 644/17/1
f 645/10/1 646/11/1 647/12/1 648/13/1
f 649/11/1 650/14/1 651/15/1 652/12/1
f 653/11/1 654/14/1 655/15/1 656/12/1
f 657/11/1 658/14/1 659/15/1 660/12/1
f 661/16/1 662/10/1 663/13/1 664/17/1
f 665/18/1 666/19/1 667/2/1 668/1/1
f 669/11/1 670/14/1 671/15/1 672/12/1
f 673/11/1 674/14/1 675/15/1 676/12/1
f 677/10/1 678/11/1 679/12/1 680/13/1
f 681/16/1 682/10/1 683/13/1 684/17/1
f 685/16/1 686/10/1 687/13/1 688/17/1
f 689/11/1 690/14/1 691/15/1 692/12/1
f 693/11/1 694/14/1 695/15/1 696/12/1
f 697/16/1 698/10/1 699/13/1 700/17/1
f 701/11/1 702/14/1 703/15/1 704/12/1
f 705/11/1 706/14/1 707/15/1 708/12/1
f 709/11/1 710/14/1 711/15/1 712/12/1
f 713/11/1 714/14/1 715/15/1 716/12/1
f 717/10/1 718/11/1 719/12/1 720/13/1
f 721/16/1 722/10/1 723/13/1 724/17/1
f 725/10/1 726/11/1 727/12/1 728/13/1
f 729/11/1 730/14/1 731/15/1 732/12/1
f 733/11/1 734/14/1 735/15/1 736/12/1
f 737/10/1 738/11/1 739/12/1 740/13/1
f 741/11/1 742/14/1 743/15/1 744/12/1
f 745/11/1 746/14/1 747/15/1 748/12/1
f 749/10/1 750/11/1 751/12/1 752/13/1
f 753/10/1 754/11/1 755/12/1 756/13/1
f 757/10/1 758/11/1 759/12/1 760/13/1
f 761/1/1 762/2/1 763/3/1 764/4/1
f 765/2/1 766/5/1 767/6/1 768/3/1
f 769/2/1 770/5/1 771/6/1 772/3/1
f 773/2/1 774/5/1 775/6/1 776/3/1
f 777/6/1 778/7/1 779/8/1 780/9/1
f 781/11/1 782/14/1 783/15/1 784/12/1
f 785/16/1 786/10/1 787/13/1 788/17/1
f 789/11/1 790/14/1 791/15/1 792/12/1
f 793/11/1 794/14/1 795/15/1 796/12/1
f 797/16/1 798/10/1 799/13/1 800/17/1
f 801/11/1 802/14/1 803/15/1 804/12/1
f 805/10/1 806/11/1 807/12/1 808/13/1
f 809/10/1 810/11/1 811/12/1 812/13/1
f 813/11/1 814/14/1 815/15/1 816/12/1
f 817/16/1 818/10/1 819/13/1 820/17/1
f 821/10/1 822/11/1 823/12/1 824/13/1
f 825/10/1 826/11/1 827/12/1 828/13/1
f 829/16/1 830/10/1 831/13/1 832/17/1
f 833/16/1 834/10/1 835/13/1 836/17/1
f 837/10/1 838/11/1 839/12/1 840/13/1
f 841/11/1 842/14/1 843/15/1 844/12/1
f 845/16/1 846/10/1 847/13/1 848/17/1
f 849/11/1 850/14/1 851/15/1 852/12/1
f 853/10/1 854/11/1 855/12/1 856/13/1
f 857/16/1 858/10/1 859/13/1 860/17/1
f 861/10/1 862/11/1 863/12/1 864/13/1
f 865/16/1 866/10/1 867/13/1 868/17/1
f 869/10/1 870/11/1 871/12/1 872/13/1
f 873/18/1 874/19/1 875/2/1 876/1/1
f 877/10/1 878/11/1 879/12/1 880/13/1
f 881/10/1 882/11/1 883/12/1 884/13/1
f 885/16/1 886/10/1 887/13/1 888/17/1
f 889/11/1 890/14/1 891/15/1 892/12/1
f 893/10/1 894/11/1 895/12/1 896/13/1
f 897/11/1 898/14/1 899/15/1 900/12/1
f 901/10/1 902/11/1 903/12/1 904/13/1
f 905/16/1 906/10/1 907/13/1 908/17/1
f 909/16/1 910/10/1 911/13/1 912/17/1
f 913/11/1 914/14/1 915/15/1 916/12/1
f 917/11/1 918/14/1 919/15/1 920/12/1
f 921/10/1 922/11/1 923/12/1 924/13/1
f 925/11/1 926/14/1 927/15/1 928/12/1
f 929/16/1 930/10/1 931/13/1 932/17/1
f 933/10/1 934/11/1 935/12/1 936/13/1
f 937/16/1 938/10/1 939/13/1 940/17/1
f 941/16/1 942/10/1 943/13/1 944/17/1
f 945/16/1 946/10/1 947/13/1 948/17/1
f 949/10/1 950/11/1 951/12/1 952/13/1
f 953/10/1 954/11/1 955/12/1 956/13/1
f 957/16/1 958/10/1 959/13/1 960/17/1
f 961/10/1 962/11/1 963/12/1 964/13/1
f 965/10/1 966/11/1 967/12/1 968/13/1
f 969/11/1 970/14/1 971/15/1 972/12/1
f 973/16/1 974/10/1 975/13/1 976/17/1
f 977/11/1 978/14/1 979/15/1 980/12/1
f 981/10/1 982/11/1 983/12/1 984/13/1
f 985/18/1 986/19/1 987/2/1 988/1/1
f 989/11/1 990/14/1 991/15/1 992/12/1
f 993/10/1 994/11/1 995/12/1 996/13/1
f 997/11/1 998/14/1 999/15/1 1000/12/1
f 1001/10/1 1002/11/1 1003/12/1 1004/13/1
f 1005/16/1 1006/10/1 1007/13/1 1008/17/1
f 1009/16/1 1010/10/1 1011/13/1 1012/17/1
f 1013/16/1 1014/10/1 1015/13/1 1016/17/1
f 1017/11/1 1018/14/1 1019/15/1 1020/12/1
f 1021/16/1 1022/10/1 1023/13/1 1024/17/1
f 1025/16/1 1026/10/1 1027/13/1 1028/17/1
f 1029/16/1 1030/10/1 1031/13/1 1032/17/1
f 1033/16/1 1034/10/1 1035/13/1 1036/17/1
f 1037/10/1 1038/11/1 1039/12/1 1040/13/1
f 1041/11/1 1042/14/1 1043/15/1 1044/12/1
f 1045/11/1 1046/14/1 1047/15/1 1048/12/1
f 1049/10/1 1050/11/1 1051/12/1 1052/13/1
f 1053/16/1 1054/10/1 1055/13/1 1056/17/1
f 1057/11/1 1058/14/1 1059/15/1 1060/12/1
f 1061/10/1 1062/11/1 1063/12/1 1064/13/1
f 1065/10/1 1066/11/1 1067/12/1 1068/13/1
f 1069/16/1 1070/10/1 1071/13/1 1072/17/1
f 1073/10/1 1074/11/1 1075/12/1 1076/13/1
f 1077/11/1 1078/14/1 1079/15/1 1080/12/1
f 1081/16/1 1082/10/1 1083/13/1 1084/17/1
f 1085/16/1 1086/10/1 1087/13/1 1088/17/1
f 1089/11/1 1090/14/1 1091/15/1 1092/12/1
f 1093/16/1 1094/10/1 1095/13/1 1096/17/1

