# Tiled2Unity generated file. Do not modify by hand.
# Wavefront file for 'Forest_mesh_0012.obj'

# Vertices (Count = 8)
v -49 -14 0
v -50 -14 0
v -50 -13 0
v -49 -13 0
v -49 -15 0
v -50 -15 0
v -50 -14 0
v -49 -14 0

# Texture cooridinates (Count = 6)
vt 0.6666667 0.8571429
vt 0.7777778 0.8571429
vt 0.7777778 1
vt 0.6666667 1
vt 0.6666667 0.7142857
vt 0.7777778 0.7142857

# Normal
vn 0 0 -1

# Mesh description
g Forest_mesh_0012

# Faces
f 1/1/1 2/2/1 3/3/1 4/4/1
f 5/5/1 6/6/1 7/2/1 8/1/1

