# Tiled2Unity generated file. Do not modify by hand.
# Wavefront file for 'Forest_mesh_0010.obj'

# Vertices (Count = 32)
v -47 -15 0
v -48 -15 0
v -48 -14 0
v -47 -14 0
v -48 -15 0
v -49 -15 0
v -49 -14 0
v -48 -14 0
v -49 -15 0
v -50 -15 0
v -50 -14 0
v -49 -14 0
v -47 -16 0
v -48 -16 0
v -48 -15 0
v -47 -15 0
v -48 -16 0
v -49 -16 0
v -49 -15 0
v -48 -15 0
v -49 -16 0
v -50 -16 0
v -50 -15 0
v -49 -15 0
v -48 -17 0
v -49 -17 0
v -49 -16 0
v -48 -16 0
v -48 -18 0
v -49 -18 0
v -49 -17 0
v -48 -17 0

# Texture cooridinates (Count = 18)
vt 0 0.2857143
vt 0.1111111 0.2857143
vt 0.1111111 0.4285714
vt 0 0.4285714
vt 0.2222222 0.2857143
vt 0.2222222 0.4285714
vt 0.3333333 0.2857143
vt 0.3333333 0.4285714
vt 0 0.1428571
vt 0.1111111 0.1428571
vt 0.2222222 0.1428571
vt 0.3333333 0.1428571
vt 0.3333333 0.8571429
vt 0.4444444 0.8571429
vt 0.4444444 1
vt 0.3333333 1
vt 0.3333333 0.7142857
vt 0.4444444 0.7142857

# Normal
vn 0 0 -1

# Mesh description
g Forest_mesh_0010

# Faces
f 1/1/1 2/2/1 3/3/1 4/4/1
f 5/2/1 6/5/1 7/6/1 8/3/1
f 9/5/1 10/7/1 11/8/1 12/6/1
f 13/9/1 14/10/1 15/2/1 16/1/1
f 17/10/1 18/11/1 19/5/1 20/2/1
f 21/11/1 22/12/1 23/7/1 24/5/1
f 25/13/1 26/14/1 27/15/1 28/16/1
f 29/17/1 30/18/1 31/14/1 32/13/1

