# Tiled2Unity generated file. Do not modify by hand.
# Wavefront file for 'castle_mesh_0010.obj'

# Vertices (Count = 104)
v -12 -3 0
v -13 -3 0
v -13 -2 0
v -12 -2 0
v -18 -3 0
v -19 -3 0
v -19 -2 0
v -18 -2 0
v -5 -5 0
v -6 -5 0
v -6 -4 0
v -5 -4 0
v -10 -5 0
v -11 -5 0
v -11 -4 0
v -10 -4 0
v -20 -5 0
v -21 -5 0
v -21 -4 0
v -20 -4 0
v -25 -5 0
v -26 -5 0
v -26 -4 0
v -25 -4 0
v -5 -6 0
v -6 -6 0
v -6 -5 0
v -5 -5 0
v -10 -6 0
v -11 -6 0
v -11 -5 0
v -10 -5 0
v -20 -6 0
v -21 -6 0
v -21 -5 0
v -20 -5 0
v -25 -6 0
v -26 -6 0
v -26 -5 0
v -25 -5 0
v -5 -13 0
v -6 -13 0
v -6 -12 0
v -5 -12 0
v -10 -13 0
v -11 -13 0
v -11 -12 0
v -10 -12 0
v -20 -13 0
v -21 -13 0
v -21 -12 0
v -20 -12 0
v -25 -13 0
v -26 -13 0
v -26 -12 0
v -25 -12 0
v -5 -14 0
v -6 -14 0
v -6 -13 0
v -5 -13 0
v -10 -14 0
v -11 -14 0
v -11 -13 0
v -10 -13 0
v -20 -14 0
v -21 -14 0
v -21 -13 0
v -20 -13 0
v -25 -14 0
v -26 -14 0
v -26 -13 0
v -25 -13 0
v -5 -22 0
v -6 -22 0
v -6 -21 0
v -5 -21 0
v -10 -22 0
v -11 -22 0
v -11 -21 0
v -10 -21 0
v -20 -22 0
v -21 -22 0
v -21 -21 0
v -20 -21 0
v -25 -22 0
v -26 -22 0
v -26 -21 0
v -25 -21 0
v -5 -23 0
v -6 -23 0
v -6 -22 0
v -5 -22 0
v -10 -23 0
v -11 -23 0
v -11 -22 0
v -10 -22 0
v -20 -23 0
v -21 -23 0
v -21 -22 0
v -20 -22 0
v -25 -23 0
v -26 -23 0
v -26 -22 0
v -25 -22 0

# Texture cooridinates (Count = 8)
vt 0.25 0.2105263
vt 0.375 0.2105263
vt 0.375 0.2631579
vt 0.25 0.2631579
vt 0.875 0.7368421
vt 1 0.7368421
vt 1 0.7894737
vt 0.875 0.7894737

# Normal
vn 0 0 -1

# Mesh description
g castle_mesh_0010

# Faces
f 1/1/1 2/2/1 3/3/1 4/4/1
f 5/1/1 6/2/1 7/3/1 8/4/1
f 9/5/1 10/6/1 11/7/1 12/8/1
f 13/5/1 14/6/1 15/7/1 16/8/1
f 17/5/1 18/6/1 19/7/1 20/8/1
f 21/5/1 22/6/1 23/7/1 24/8/1
f 25/5/1 26/6/1 27/7/1 28/8/1
f 29/5/1 30/6/1 31/7/1 32/8/1
f 33/5/1 34/6/1 35/7/1 36/8/1
f 37/5/1 38/6/1 39/7/1 40/8/1
f 41/5/1 42/6/1 43/7/1 44/8/1
f 45/5/1 46/6/1 47/7/1 48/8/1
f 49/5/1 50/6/1 51/7/1 52/8/1
f 53/5/1 54/6/1 55/7/1 56/8/1
f 57/5/1 58/6/1 59/7/1 60/8/1
f 61/5/1 62/6/1 63/7/1 64/8/1
f 65/5/1 66/6/1 67/7/1 68/8/1
f 69/5/1 70/6/1 71/7/1 72/8/1
f 73/5/1 74/6/1 75/7/1 76/8/1
f 77/5/1 78/6/1 79/7/1 80/8/1
f 81/5/1 82/6/1 83/7/1 84/8/1
f 85/5/1 86/6/1 87/7/1 88/8/1
f 89/5/1 90/6/1 91/7/1 92/8/1
f 93/5/1 94/6/1 95/7/1 96/8/1
f 97/5/1 98/6/1 99/7/1 100/8/1
f 101/5/1 102/6/1 103/7/1 104/8/1

