# Tiled2Unity generated file. Do not modify by hand.
# Wavefront file for 'castle_mesh_0007.obj'

# Vertices (Count = 56)
v -12 -4 0
v -13 -4 0
v -13 -3 0
v -12 -3 0
v -18 -4 0
v -19 -4 0
v -19 -3 0
v -18 -3 0
v -5 -7 0
v -6 -7 0
v -6 -6 0
v -5 -6 0
v -10 -7 0
v -11 -7 0
v -11 -6 0
v -10 -6 0
v -20 -7 0
v -21 -7 0
v -21 -6 0
v -20 -6 0
v -25 -7 0
v -26 -7 0
v -26 -6 0
v -25 -6 0
v -5 -15 0
v -6 -15 0
v -6 -14 0
v -5 -14 0
v -10 -15 0
v -11 -15 0
v -11 -14 0
v -10 -14 0
v -20 -15 0
v -21 -15 0
v -21 -14 0
v -20 -14 0
v -25 -15 0
v -26 -15 0
v -26 -14 0
v -25 -14 0
v -5 -24 0
v -6 -24 0
v -6 -23 0
v -5 -23 0
v -10 -24 0
v -11 -24 0
v -11 -23 0
v -10 -23 0
v -20 -24 0
v -21 -24 0
v -21 -23 0
v -20 -23 0
v -25 -24 0
v -26 -24 0
v -26 -23 0
v -25 -23 0

# Texture cooridinates (Count = 8)
vt 0.25 0.1578947
vt 0.375 0.1578947
vt 0.375 0.2105263
vt 0.25 0.2105263
vt 0.875 0.6842105
vt 1 0.6842105
vt 1 0.7368421
vt 0.875 0.7368421

# Normal
vn 0 0 -1

# Mesh description
g castle_mesh_0007

# Faces
f 1/1/1 2/2/1 3/3/1 4/4/1
f 5/1/1 6/2/1 7/3/1 8/4/1
f 9/5/1 10/6/1 11/7/1 12/8/1
f 13/5/1 14/6/1 15/7/1 16/8/1
f 17/5/1 18/6/1 19/7/1 20/8/1
f 21/5/1 22/6/1 23/7/1 24/8/1
f 25/5/1 26/6/1 27/7/1 28/8/1
f 29/5/1 30/6/1 31/7/1 32/8/1
f 33/5/1 34/6/1 35/7/1 36/8/1
f 37/5/1 38/6/1 39/7/1 40/8/1
f 41/5/1 42/6/1 43/7/1 44/8/1
f 45/5/1 46/6/1 47/7/1 48/8/1
f 49/5/1 50/6/1 51/7/1 52/8/1
f 53/5/1 54/6/1 55/7/1 56/8/1

