# Tiled2Unity generated file. Do not modify by hand.
# Wavefront file for 'castle_mesh_0008.obj'

# Vertices (Count = 32)
v -11 -5 0
v -12 -5 0
v -12 -4 0
v -11 -4 0
v -14 -5 0
v -15 -5 0
v -15 -4 0
v -14 -4 0
v -16 -5 0
v -17 -5 0
v -17 -4 0
v -16 -4 0
v -19 -5 0
v -20 -5 0
v -20 -4 0
v -19 -4 0
v -11 -6 0
v -12 -6 0
v -12 -5 0
v -11 -5 0
v -19 -6 0
v -20 -6 0
v -20 -5 0
v -19 -5 0
v -11 -7 0
v -12 -7 0
v -12 -6 0
v -11 -6 0
v -19 -7 0
v -20 -7 0
v -20 -6 0
v -19 -6 0

# Texture cooridinates (Count = 16)
vt 0.375 0.6842105
vt 0.5 0.6842105
vt 0.5 0.7368421
vt 0.375 0.7368421
vt 0.875 0.2105263
vt 1 0.2105263
vt 1 0.2631579
vt 0.875 0.2631579
vt 0.625 0.6842105
vt 0.75 0.6842105
vt 0.75 0.7368421
vt 0.625 0.7368421
vt 0.375 0.6315789
vt 0.5 0.6315789
vt 0.625 0.6315789
vt 0.75 0.6315789

# Normal
vn 0 0 -1

# Mesh description
g castle_mesh_0008

# Faces
f 1/1/1 2/2/1 3/3/1 4/4/1
f 5/5/1 6/6/1 7/7/1 8/8/1
f 9/5/1 10/6/1 11/7/1 12/8/1
f 13/9/1 14/10/1 15/11/1 16/12/1
f 17/1/1 18/2/1 19/3/1 20/4/1
f 21/9/1 22/10/1 23/11/1 24/12/1
f 25/13/1 26/14/1 27/2/1 28/1/1
f 29/15/1 30/16/1 31/10/1 32/9/1

