# Tiled2Unity generated file. Do not modify by hand.
# Wavefront file for 'Maison_mesh_0006.obj'

# Vertices (Count = 32)
v -5 -2 0
v -6 -2 0
v -6 -1 0
v -5 -1 0
v -6 -2 0
v -7 -2 0
v -7 -1 0
v -6 -1 0
v -7 -2 0
v -8 -2 0
v -8 -1 0
v -7 -1 0
v -12 -2 0
v -13 -2 0
v -13 -1 0
v -12 -1 0
v -17 -18 0
v -18 -18 0
v -18 -17 0
v -17 -17 0
v -18 -18 0
v -19 -18 0
v -19 -17 0
v -18 -17 0
v -17 -19 0
v -18 -19 0
v -18 -18 0
v -17 -18 0
v -18 -19 0
v -19 -19 0
v -19 -18 0
v -18 -18 0

# Texture cooridinates (Count = 21)
vt 0.3125 0.9375
vt 0.375 0.9375
vt 0.375 1
vt 0.3125 1
vt 0.4375 0.9375
vt 0.4375 1
vt 0.5 0.9375
vt 0.5 1
vt 0 0.875
vt 0.0625 0.875
vt 0.0625 0.9375
vt 0 0.9375
vt 0.875 0.0625
vt 0.9375 0.0625
vt 0.9375 0.125
vt 0.875 0.125
vt 1 0.0625
vt 1 0.125
vt 0.875 0
vt 0.9375 0
vt 1 0

# Normal
vn 0 0 -1

# Mesh description
g Maison_mesh_0006

# Faces
f 1/1/1 2/2/1 3/3/1 4/4/1
f 5/2/1 6/5/1 7/6/1 8/3/1
f 9/5/1 10/7/1 11/8/1 12/6/1
f 13/9/1 14/10/1 15/11/1 16/12/1
f 17/13/1 18/14/1 19/15/1 20/16/1
f 21/14/1 22/17/1 23/18/1 24/15/1
f 25/19/1 26/20/1 27/14/1 28/13/1
f 29/20/1 30/21/1 31/17/1 32/14/1

