# Tiled2Unity generated file. Do not modify by hand.
# Wavefront file for 'Maison_mesh_0017.obj'

# Vertices (Count = 16)
v -1 -14 0
v -2 -14 0
v -2 -13 0
v -1 -13 0
v -2 -14 0
v -3 -14 0
v -3 -13 0
v -2 -13 0
v -1 -15 0
v -2 -15 0
v -2 -14 0
v -1 -14 0
v -2 -15 0
v -3 -15 0
v -3 -14 0
v -2 -14 0

# Texture cooridinates (Count = 9)
vt 0.25 0.75
vt 0.3125 0.75
vt 0.3125 0.8125
vt 0.25 0.8125
vt 0.375 0.75
vt 0.375 0.8125
vt 0.25 0.6875
vt 0.3125 0.6875
vt 0.375 0.6875

# Normal
vn 0 0 -1

# Mesh description
g Maison_mesh_0017

# Faces
f 1/1/1 2/2/1 3/3/1 4/4/1
f 5/2/1 6/5/1 7/6/1 8/3/1
f 9/7/1 10/8/1 11/2/1 12/1/1
f 13/8/1 14/9/1 15/5/1 16/2/1

