# Tiled2Unity generated file. Do not modify by hand.
# Wavefront file for 'Maison_mesh_0013.obj'

# Vertices (Count = 28)
v -15 -2 0
v -16 -2 0
v -16 -1 0
v -15 -1 0
v -16 -3 0
v -17 -3 0
v -17 -2 0
v -16 -2 0
v -13 -7 0
v -14 -7 0
v -14 -6 0
v -13 -6 0
v -14 -7 0
v -15 -7 0
v -15 -6 0
v -14 -6 0
v -15 -7 0
v -16 -7 0
v -16 -6 0
v -15 -6 0
v -16 -7 0
v -17 -7 0
v -17 -6 0
v -16 -6 0
v -17 -7 0
v -18 -7 0
v -18 -6 0
v -17 -6 0

# Texture cooridinates (Count = 20)
vt 0.5625 0.25
vt 0.625 0.25
vt 0.625 0.3125
vt 0.5625 0.3125
vt 0.375 0.6875
vt 0.4375 0.6875
vt 0.4375 0.75
vt 0.375 0.75
vt 0 0
vt 0.0625 0
vt 0.0625 0.0625
vt 0 0.0625
vt 0.375 0.625
vt 0.4375 0.625
vt 0.3125 0.625
vt 0.3125 0.6875
vt 0.5 0.625
vt 0.5 0.6875
vt 0.125 0
vt 0.125 0.0625

# Normal
vn 0 0 -1

# Mesh description
g Maison_mesh_0013

# Faces
f 1/1/1 2/2/1 3/3/1 4/4/1
f 5/5/1 6/6/1 7/7/1 8/8/1
f 9/9/1 10/10/1 11/11/1 12/12/1
f 13/13/1 14/14/1 15/6/1 16/5/1
f 17/15/1 18/13/1 19/5/1 20/16/1
f 21/14/1 22/17/1 23/18/1 24/6/1
f 25/10/1 26/19/1 27/20/1 28/11/1

