# Tiled2Unity generated file. Do not modify by hand.
# Wavefront file for 'Maison_mesh_0008.obj'

# Vertices (Count = 320)
v -1 -2 0
v -2 -2 0
v -2 -1 0
v -1 -1 0
v -2 -2 0
v -3 -2 0
v -3 -1 0
v -2 -1 0
v -3 -2 0
v -4 -2 0
v -4 -1 0
v -3 -1 0
v -4 -2 0
v -5 -2 0
v -5 -1 0
v -4 -1 0
v -5 -2 0
v -6 -2 0
v -6 -1 0
v -5 -1 0
v -6 -2 0
v -7 -2 0
v -7 -1 0
v -6 -1 0
v -7 -2 0
v -8 -2 0
v -8 -1 0
v -7 -1 0
v -8 -2 0
v -9 -2 0
v -9 -1 0
v -8 -1 0
v -9 -2 0
v -10 -2 0
v -10 -1 0
v -9 -1 0
v -10 -2 0
v -11 -2 0
v -11 -1 0
v -10 -1 0
v -11 -2 0
v -12 -2 0
v -12 -1 0
v -11 -1 0
v -12 -2 0
v -13 -2 0
v -13 -1 0
v -12 -1 0
v -13 -2 0
v -14 -2 0
v -14 -1 0
v -13 -1 0
v -14 -2 0
v -15 -2 0
v -15 -1 0
v -14 -1 0
v -15 -2 0
v -16 -2 0
v -16 -1 0
v -15 -1 0
v -16 -2 0
v -17 -2 0
v -17 -1 0
v -16 -1 0
v -17 -2 0
v -18 -2 0
v -18 -1 0
v -17 -1 0
v -18 -2 0
v -19 -2 0
v -19 -1 0
v -18 -1 0
v -1 -3 0
v -2 -3 0
v -2 -2 0
v -1 -2 0
v -10 -3 0
v -11 -3 0
v -11 -2 0
v -10 -2 0
v -18 -3 0
v -19 -3 0
v -19 -2 0
v -18 -2 0
v -1 -4 0
v -2 -4 0
v -2 -3 0
v -1 -3 0
v -10 -4 0
v -11 -4 0
v -11 -3 0
v -10 -3 0
v -18 -4 0
v -19 -4 0
v -19 -3 0
v -18 -3 0
v -1 -5 0
v -2 -5 0
v -2 -4 0
v -1 -4 0
v -10 -5 0
v -11 -5 0
v -11 -4 0
v -10 -4 0
v -18 -5 0
v -19 -5 0
v -19 -4 0
v -18 -4 0
v -1 -6 0
v -2 -6 0
v -2 -5 0
v -1 -5 0
v -10 -6 0
v -11 -6 0
v -11 -5 0
v -10 -5 0
v -18 -6 0
v -19 -6 0
v -19 -5 0
v -18 -5 0
v -1 -7 0
v -2 -7 0
v -2 -6 0
v -1 -6 0
v -10 -7 0
v -11 -7 0
v -11 -6 0
v -10 -6 0
v -18 -7 0
v -19 -7 0
v -19 -6 0
v -18 -6 0
v -1 -8 0
v -2 -8 0
v -2 -7 0
v -1 -7 0
v -10 -8 0
v -11 -8 0
v -11 -7 0
v -10 -7 0
v -18 -8 0
v -19 -8 0
v -19 -7 0
v -18 -7 0
v -1 -9 0
v -2 -9 0
v -2 -8 0
v -1 -8 0
v -3 -9 0
v -4 -9 0
v -4 -8 0
v -3 -8 0
v -4 -9 0
v -5 -9 0
v -5 -8 0
v -4 -8 0
v -5 -9 0
v -6 -9 0
v -6 -8 0
v -5 -8 0
v -6 -9 0
v -7 -9 0
v -7 -8 0
v -6 -8 0
v -7 -9 0
v -8 -9 0
v -8 -8 0
v -7 -8 0
v -8 -9 0
v -9 -9 0
v -9 -8 0
v -8 -8 0
v -9 -9 0
v -10 -9 0
v -10 -8 0
v -9 -8 0
v -10 -9 0
v -11 -9 0
v -11 -8 0
v -10 -8 0
v -18 -9 0
v -19 -9 0
v -19 -8 0
v -18 -8 0
v -1 -10 0
v -2 -10 0
v -2 -9 0
v -1 -9 0
v -18 -10 0
v -19 -10 0
v -19 -9 0
v -18 -9 0
v -1 -11 0
v -2 -11 0
v -2 -10 0
v -1 -10 0
v -18 -11 0
v -19 -11 0
v -19 -10 0
v -18 -10 0
v -1 -12 0
v -2 -12 0
v -2 -11 0
v -1 -11 0
v -18 -12 0
v -19 -12 0
v -19 -11 0
v -18 -11 0
v -1 -13 0
v -2 -13 0
v -2 -12 0
v -1 -12 0
v -18 -13 0
v -19 -13 0
v -19 -12 0
v -18 -12 0
v -1 -14 0
v -2 -14 0
v -2 -13 0
v -1 -13 0
v -18 -14 0
v -19 -14 0
v -19 -13 0
v -18 -13 0
v -1 -15 0
v -2 -15 0
v -2 -14 0
v -1 -14 0
v -18 -15 0
v -19 -15 0
v -19 -14 0
v -18 -14 0
v -1 -16 0
v -2 -16 0
v -2 -15 0
v -1 -15 0
v -18 -16 0
v -19 -16 0
v -19 -15 0
v -18 -15 0
v -1 -17 0
v -2 -17 0
v -2 -16 0
v -1 -16 0
v -18 -17 0
v -19 -17 0
v -19 -16 0
v -18 -16 0
v -1 -18 0
v -2 -18 0
v -2 -17 0
v -1 -17 0
v -18 -18 0
v -19 -18 0
v -19 -17 0
v -18 -17 0
v -1 -19 0
v -2 -19 0
v -2 -18 0
v -1 -18 0
v -2 -19 0
v -3 -19 0
v -3 -18 0
v -2 -18 0
v -3 -19 0
v -4 -19 0
v -4 -18 0
v -3 -18 0
v -4 -19 0
v -5 -19 0
v -5 -18 0
v -4 -18 0
v -5 -19 0
v -6 -19 0
v -6 -18 0
v -5 -18 0
v -6 -19 0
v -7 -19 0
v -7 -18 0
v -6 -18 0
v -7 -19 0
v -8 -19 0
v -8 -18 0
v -7 -18 0
v -8 -19 0
v -9 -19 0
v -9 -18 0
v -8 -18 0
v -11 -19 0
v -12 -19 0
v -12 -18 0
v -11 -18 0
v -12 -19 0
v -13 -19 0
v -13 -18 0
v -12 -18 0
v -13 -19 0
v -14 -19 0
v -14 -18 0
v -13 -18 0
v -14 -19 0
v -15 -19 0
v -15 -18 0
v -14 -18 0
v -15 -19 0
v -16 -19 0
v -16 -18 0
v -15 -18 0
v -16 -19 0
v -17 -19 0
v -17 -18 0
v -16 -18 0
v -17 -19 0
v -18 -19 0
v -18 -18 0
v -17 -18 0
v -18 -19 0
v -19 -19 0
v -19 -18 0
v -18 -18 0

# Texture cooridinates (Count = 16)
vt 0.125 0.9375
vt 0.1875 0.9375
vt 0.1875 1
vt 0.125 1
vt 0.25 0.9375
vt 0.25 1
vt 0.3125 0.9375
vt 0.3125 1
vt 0.125 0.875
vt 0.1875 0.875
vt 0.25 0.875
vt 0.3125 0.875
vt 0.1875 0.8125
vt 0.25 0.8125
vt 0.3125 0.8125
vt 0.125 0.8125

# Normal
vn 0 0 -1

# Mesh description
g Maison_mesh_0008

# Faces
f 1/1/1 2/2/1 3/3/1 4/4/1
f 5/2/1 6/5/1 7/6/1 8/3/1
f 9/2/1 10/5/1 11/6/1 12/3/1
f 13/2/1 14/5/1 15/6/1 16/3/1
f 17/2/1 18/5/1 19/6/1 20/3/1
f 21/2/1 22/5/1 23/6/1 24/3/1
f 25/2/1 26/5/1 27/6/1 28/3/1
f 29/2/1 30/5/1 31/6/1 32/3/1
f 33/2/1 34/5/1 35/6/1 36/3/1
f 37/5/1 38/7/1 39/8/1 40/6/1
f 41/2/1 42/5/1 43/6/1 44/3/1
f 45/2/1 46/5/1 47/6/1 48/3/1
f 49/2/1 50/5/1 51/6/1 52/3/1
f 53/2/1 54/5/1 55/6/1 56/3/1
f 57/2/1 58/5/1 59/6/1 60/3/1
f 61/2/1 62/5/1 63/6/1 64/3/1
f 65/2/1 66/5/1 67/6/1 68/3/1
f 69/5/1 70/7/1 71/8/1 72/6/1
f 73/9/1 74/10/1 75/2/1 76/1/1
f 77/11/1 78/12/1 79/7/1 80/5/1
f 81/11/1 82/12/1 83/7/1 84/5/1
f 85/9/1 86/10/1 87/2/1 88/1/1
f 89/11/1 90/12/1 91/7/1 92/5/1
f 93/11/1 94/12/1 95/7/1 96/5/1
f 97/9/1 98/10/1 99/2/1 100/1/1
f 101/11/1 102/12/1 103/7/1 104/5/1
f 105/11/1 106/12/1 107/7/1 108/5/1
f 109/9/1 110/10/1 111/2/1 112/1/1
f 113/11/1 114/12/1 115/7/1 116/5/1
f 117/11/1 118/12/1 119/7/1 120/5/1
f 121/9/1 122/10/1 123/2/1 124/1/1
f 125/11/1 126/12/1 127/7/1 128/5/1
f 129/11/1 130/12/1 131/7/1 132/5/1
f 133/9/1 134/10/1 135/2/1 136/1/1
f 137/11/1 138/12/1 139/7/1 140/5/1
f 141/11/1 142/12/1 143/7/1 144/5/1
f 145/9/1 146/10/1 147/2/1 148/1/1
f 149/13/1 150/14/1 151/11/1 152/10/1
f 153/13/1 154/14/1 155/11/1 156/10/1
f 157/13/1 158/14/1 159/11/1 160/10/1
f 161/13/1 162/14/1 163/11/1 164/10/1
f 165/13/1 166/14/1 167/11/1 168/10/1
f 169/13/1 170/14/1 171/11/1 172/10/1
f 173/13/1 174/14/1 175/11/1 176/10/1
f 177/14/1 178/15/1 179/12/1 180/11/1
f 181/11/1 182/12/1 183/7/1 184/5/1
f 185/9/1 186/10/1 187/2/1 188/1/1
f 189/11/1 190/12/1 191/7/1 192/5/1
f 193/9/1 194/10/1 195/2/1 196/1/1
f 197/11/1 198/12/1 199/7/1 200/5/1
f 201/9/1 202/10/1 203/2/1 204/1/1
f 205/11/1 206/12/1 207/7/1 208/5/1
f 209/9/1 210/10/1 211/2/1 212/1/1
f 213/11/1 214/12/1 215/7/1 216/5/1
f 217/9/1 218/10/1 219/2/1 220/1/1
f 221/11/1 222/12/1 223/7/1 224/5/1
f 225/9/1 226/10/1 227/2/1 228/1/1
f 229/11/1 230/12/1 231/7/1 232/5/1
f 233/9/1 234/10/1 235/2/1 236/1/1
f 237/11/1 238/12/1 239/7/1 240/5/1
f 241/9/1 242/10/1 243/2/1 244/1/1
f 245/11/1 246/12/1 247/7/1 248/5/1
f 249/9/1 250/10/1 251/2/1 252/1/1
f 253/11/1 254/12/1 255/7/1 256/5/1
f 257/16/1 258/13/1 259/10/1 260/9/1
f 261/13/1 262/14/1 263/11/1 264/10/1
f 265/13/1 266/14/1 267/11/1 268/10/1
f 269/13/1 270/14/1 271/11/1 272/10/1
f 273/13/1 274/14/1 275/11/1 276/10/1
f 277/13/1 278/14/1 279/11/1 280/10/1
f 281/13/1 282/14/1 283/11/1 284/10/1
f 285/13/1 286/14/1 287/11/1 288/10/1
f 289/13/1 290/14/1 291/11/1 292/10/1
f 293/13/1 294/14/1 295/11/1 296/10/1
f 297/13/1 298/14/1 299/11/1 300/10/1
f 301/13/1 302/14/1 303/11/1 304/10/1
f 305/13/1 306/14/1 307/11/1 308/10/1
f 309/13/1 310/14/1 311/11/1 312/10/1
f 313/13/1 314/14/1 315/11/1 316/10/1
f 317/14/1 318/15/1 319/12/1 320/11/1

