# Tiled2Unity generated file. Do not modify by hand.
# Wavefront file for 'Maison_mesh_0012.obj'

# Vertices (Count = 12)
v -2 -14 0
v -3 -14 0
v -3 -13 0
v -2 -13 0
v -1 -16 0
v -2 -16 0
v -2 -15 0
v -1 -15 0
v -2 -16 0
v -3 -16 0
v -3 -15 0
v -2 -15 0

# Texture cooridinates (Count = 10)
vt 0.3125 0.75
vt 0.375 0.75
vt 0.375 0.8125
vt 0.3125 0.8125
vt 0.25 0.625
vt 0.3125 0.625
vt 0.3125 0.6875
vt 0.25 0.6875
vt 0.375 0.625
vt 0.375 0.6875

# Normal
vn 0 0 -1

# Mesh description
g Maison_mesh_0012

# Faces
f 1/1/1 2/2/1 3/3/1 4/4/1
f 5/5/1 6/6/1 7/7/1 8/8/1
f 9/6/1 10/9/1 11/10/1 12/7/1

